<svg width="217" height="177" viewBox="0 0 217 177" fill="none" xmlns="http://www.w3.org/2000/svg">
<path d="M216.286 4.33765C216.397 2.40781 214.922 0.753833 212.992 0.643397C211.062 0.532961 209.408 2.00788 209.298 3.93771L216.286 4.33765ZM1.26778 150.527C0.0197652 152.003 0.204678 154.211 1.6808 155.459L25.7355 175.797C27.2117 177.045 29.42 176.86 30.668 175.384C31.916 173.908 31.7311 171.699 30.255 170.451L8.87302 152.373L26.9509 130.991C28.1989 129.515 28.014 127.307 26.5379 126.059C25.0618 124.811 22.8534 124.996 21.6054 126.472L1.26778 150.527ZM209.298 3.93771C206.898 45.875 163.224 135.937 3.64849 149.299L4.23258 156.274C166.752 142.666 213.658 50.2621 216.286 4.33765L209.298 3.93771Z" fill="#AB8F7F"/>
</svg>
