<svg width="93" height="150" viewBox="0 0 93 150" fill="none" xmlns="http://www.w3.org/2000/svg">
<path d="M45.3706 4.7395C46.4083 4.36109 46.9428 3.21309 46.5644 2.17536C46.186 1.13763 45.038 0.603137 44.0002 0.98154L45.3706 4.7395ZM7.37333 57.6721L5.38185 57.8565L7.37333 57.6721ZM54.2905 54.8821L56.1251 54.0859L54.2905 54.8821ZM5.45805 92.8478L7.32729 92.1365L5.45805 92.8478ZM92.0189 136.28C92.7988 135.497 92.7969 134.231 92.0147 133.451L79.2678 120.742C78.4856 119.962 77.2192 119.964 76.4394 120.747C75.6595 121.529 75.6614 122.795 76.4436 123.575L87.7741 134.872L76.4773 146.202C75.6974 146.985 75.6993 148.251 76.4815 149.031C77.2637 149.811 78.5301 149.809 79.3099 149.027L92.0189 136.28ZM44.0002 0.98154C37.398 3.38902 27.0712 9.56159 18.7331 19.088C10.3642 28.6494 3.88805 41.7274 5.38185 57.8565L9.36481 57.4876C7.99822 42.7321 13.8865 30.6985 21.743 21.7224C29.6302 12.7113 39.3897 6.9204 45.3706 4.7395L44.0002 0.98154ZM5.38185 57.8565C6.47202 69.6274 11.0222 77.7197 17.2474 82.5428C23.4486 87.3473 31.0994 88.7395 38.0767 87.5175C45.0363 86.2985 51.4781 82.4501 55.2272 76.5736C59.0214 70.6263 59.9156 62.8203 56.1251 54.0859L52.4558 55.6783C55.7658 63.3056 54.8704 69.6956 51.855 74.4222C48.7944 79.2196 43.4065 82.523 37.3866 83.5774C31.3843 84.6288 24.9055 83.416 19.6972 79.3808C14.513 75.3642 10.3738 68.3821 9.36481 57.4876L5.38185 57.8565ZM56.1251 54.0859C52.5298 45.8011 46.2646 41.2418 39.1322 39.9453C32.0827 38.6639 24.3846 40.5982 17.7751 44.8514C4.49453 53.3973 -4.78541 71.5521 3.58881 93.5591L7.32729 92.1365C-0.327239 72.0208 8.13422 55.8118 19.9396 48.2151C25.8731 44.397 32.5542 42.8152 38.4168 43.8808C44.1964 44.9314 49.3763 48.5822 52.4558 55.6783L56.1251 54.0859ZM3.58881 93.5591C10.2967 111.187 26.459 121.995 43.4976 128.38C60.5699 134.778 78.8968 136.885 90.6055 136.868L90.5996 132.868C79.2697 132.884 61.4359 130.831 44.9013 124.635C28.333 118.426 13.4424 108.207 7.32729 92.1365L3.58881 93.5591Z" fill="#6B635C"/>
</svg>
