<svg width="163" height="163" viewBox="0 0 163 163" fill="none" xmlns="http://www.w3.org/2000/svg">
<path d="M150.953 41.4011C151.576 41.0415 151.79 40.2441 151.421 39.6271C141.399 22.8922 125.697 10.2927 107.155 4.14334C88.201 -2.14284 67.5985 -1.25129 49.2581 6.64879C30.9177 14.5489 16.116 28.9076 7.66256 46.9996C-0.790896 65.0916 -2.30778 85.6576 3.39983 104.794C9.10744 123.931 21.6423 140.305 38.6251 150.811C55.608 161.316 75.8568 165.221 95.5283 161.784C115.2 158.346 132.925 147.806 145.339 132.164C157.483 116.863 163.717 97.7205 162.934 78.23C162.906 77.5114 162.29 76.9616 161.572 77.0019C160.853 77.0422 160.305 77.6574 160.334 78.3761C161.081 97.2293 155.046 115.744 143.299 130.545C131.281 145.687 114.123 155.891 95.08 159.218C76.0372 162.545 56.4354 158.766 39.9953 148.596C23.5551 138.426 11.4209 122.575 5.89568 104.05C0.370473 85.5247 1.83888 65.6159 10.0222 48.1021C18.2055 30.5883 32.5341 16.6884 50.2884 9.04081C68.0427 1.3932 87.9869 0.530138 106.335 6.61544C124.272 12.5639 139.463 24.7472 149.165 40.9296C149.535 41.5464 150.33 41.7607 150.953 41.4011Z" fill="white"/>
</svg>
