<svg width="146" height="118" viewBox="0 0 146 118" fill="none" xmlns="http://www.w3.org/2000/svg">
<ellipse cx="26.0158" cy="93.5461" rx="19.8032" ry="19.7961" fill="#FFE6C0"/>
<ellipse cx="113.771" cy="29.8879" rx="11.2606" ry="11.2566" fill="#FFE6C0"/>
<mask id="mask0_1418_1443" style="mask-type:luminance" maskUnits="userSpaceOnUse" x="17" y="3" width="111" height="111">
<path d="M17.8613 3.88189H127.362V113.343H17.8613V3.88189Z" fill="white"/>
</mask>
<g mask="url(#mask0_1418_1443)">
<path d="M20 52.6265V40.6542C20 37.7039 21.1977 35.0315 23.1332 33.0967C25.0687 31.1619 27.742 29.9646 30.6934 29.9646C36.5983 29.9646 41.3868 34.7514 41.3868 40.6542V47.0679" stroke="white" stroke-width="4" stroke-miterlimit="10" stroke-linecap="round" stroke-linejoin="round"/>
<path d="M41.3868 59.8953V100.516C41.3868 94.6128 36.5983 89.826 30.6934 89.826C24.7885 89.826 20 94.6128 20 100.516C20 100.879 20.0192 101.247 20.0556 101.619C20.6117 107.182 25.7103 111.205 31.3029 111.205H41.3868" stroke="white" stroke-width="4" stroke-miterlimit="10" stroke-linecap="round" stroke-linejoin="round"/>
<path d="M59.7795 111.205H114.53C120.437 111.205 125.223 106.42 125.223 100.516" stroke="white" stroke-width="4" stroke-miterlimit="10" stroke-linecap="round" stroke-linejoin="round"/>
<path d="M103.836 85.5503V100.516C103.836 93.685 110.244 88.3509 117.378 90.1938C120.98 91.1238 123.925 94.0677 124.855 97.6679C125.105 98.6364 125.223 99.5899 125.223 100.516V40.6542C125.223 34.7514 120.434 29.9647 114.53 29.9647C111.578 29.9647 108.905 31.1619 106.969 33.0967C105.034 35.0315 103.836 37.7039 103.836 40.6542V72.7228" stroke="white" stroke-width="4" stroke-miterlimit="10" stroke-linecap="round" stroke-linejoin="round"/>
<path d="M20 69.7298V100.516" stroke="white" stroke-width="4" stroke-miterlimit="10" stroke-linecap="round" stroke-linejoin="round"/>
<path d="M103.836 47.0679H82.4517" stroke="white" stroke-width="4" stroke-miterlimit="10" stroke-linecap="round" stroke-linejoin="round"/>
<path d="M103.836 72.7227V85.5502H85.4435L59.7794 111.205H41.3867L68.3341 85.5502L41.3867 59.8953V47.0678H46.5195C46.5195 47.0678 66.0754 65.6869 73.4669 72.7227H103.836Z" stroke="white" stroke-width="4" stroke-miterlimit="10" stroke-linecap="round" stroke-linejoin="round"/>
<path d="M62.7714 47.0679H46.5195" stroke="white" stroke-width="4" stroke-miterlimit="10" stroke-linecap="round" stroke-linejoin="round"/>
<path d="M82.4515 47.0677C87.1908 39.3905 91.8595 30.4968 91.8595 25.261C91.8595 14.6335 83.2428 6.01986 72.6114 6.01986C61.98 6.01986 53.3633 14.6335 53.3633 25.261C53.3633 30.4968 58.032 39.3905 62.7713 47.0677C67.6541 54.9822 72.6114 61.6055 72.6114 61.6055C72.6114 61.6055 77.5688 54.9822 82.4515 47.0677Z" stroke="white" stroke-width="4" stroke-miterlimit="10" stroke-linecap="round" stroke-linejoin="round"/>
<path d="M72.6116 33.8125C77.3295 33.8125 81.1663 29.9771 81.1663 25.2609C81.1663 20.5446 77.3295 16.7092 72.6116 16.7092C67.8937 16.7092 64.0569 20.5446 64.0569 25.2609C64.0569 29.9771 67.8937 33.8125 72.6116 33.8125Z" stroke="white" stroke-width="4" stroke-miterlimit="10" stroke-linecap="round" stroke-linejoin="round"/>
<path d="M20.1387 61.178C20.1387 61.1031 20.0767 61.0401 20 61.0401C19.9233 61.0401 19.8613 61.1031 19.8613 61.178C19.8613 61.2529 19.9233 61.3159 20 61.3159C20.0767 61.3159 20.1387 61.2529 20.1387 61.178Z" fill="white" stroke="white" stroke-width="4"/>
</g>
</svg>
