<svg width="94" height="94" viewBox="0 0 94 94" fill="none" xmlns="http://www.w3.org/2000/svg">
<g opacity="0.51">
<path fill-rule="evenodd" clip-rule="evenodd" d="M35.1012 72.3368C23.5744 63.5047 9 50.7945 9 37C9 13.9543 33 5.49996 47 19.5C61 5.00001 85 13.9542 85 36.9999C85 50.7943 70.4217 63.5047 58.8988 72.3368C53.6818 76.3318 51.0733 78.3332 47 78.3332C42.9267 78.3332 40.3182 76.3357 35.1012 72.3368Z" fill="#FFE6C0"/>
</g>
<path fill-rule="evenodd" clip-rule="evenodd" d="M38.1391 65.868C29.5553 59.2909 17.8333 48.4263 17.8333 38.1538C17.8333 20.9921 33.8749 14.5842 46.9999 27.8375C60.1249 14.5842 76.1666 20.9921 76.1666 38.1538C76.1666 48.4263 64.4416 59.2909 55.8607 65.868C51.9757 68.843 50.0332 70.3334 46.9999 70.3334C43.9666 70.3334 42.0241 68.8459 38.1391 65.868Z" fill="#6B635C"/>
<path d="M46.7525 55.3C45.5359 55.3 44.3275 55.1417 43.1275 54.825C41.9275 54.4917 40.9109 54.025 40.0775 53.425L41.6525 50.325C42.3192 50.8083 43.0942 51.1917 43.9775 51.475C44.8609 51.7583 45.7525 51.9 46.6525 51.9C47.6692 51.9 48.4692 51.7 49.0525 51.3C49.6359 50.9 49.9275 50.35 49.9275 49.65C49.9275 48.9833 49.6692 48.4583 49.1525 48.075C48.6359 47.6917 47.8025 47.5 46.6525 47.5H44.8025V44.825L49.6775 39.3L50.1275 40.75H40.9525V37.5H53.2025V40.125L48.3525 45.65L46.3025 44.475H47.4775C49.6275 44.475 51.2525 44.9583 52.3525 45.925C53.4525 46.8917 54.0025 48.1333 54.0025 49.65C54.0025 50.6333 53.7442 51.5583 53.2275 52.425C52.7109 53.275 51.9192 53.9667 50.8525 54.5C49.7859 55.0333 48.4192 55.3 46.7525 55.3Z" fill="white"/>
</svg>
