<svg width="65" height="91" viewBox="0 0 65 91" fill="none" xmlns="http://www.w3.org/2000/svg">
<path d="M65 37.6778C65 62.5779 43.8492 83.0003 32.5 90.099C21.1508 83.0003 0 62.5779 0 37.6778C0 12.7777 15.4762 0 32.5 0C49.5238 0 65 12.7777 65 37.6778Z" fill="#AB8F7F"/>
<path d="M49.8569 38.5054C45.7222 44.1485 40.4116 43.5449 37.6715 42.9246C34.7236 42.2546 30.3865 38.0236 30.9443 32.7017C31.0483 31.716 31.5842 29.2406 33.4383 26.9147C32.8969 26.1172 31.8085 24.9321 31.3491 24.7383C30.1677 26.0341 29.4184 27.4518 29.227 27.845C25.043 36.5782 30.556 44.9958 38.6341 45.5108C44.869 45.9096 48.6154 43.1462 49.8569 38.511V38.5054Z" fill="white"/>
<path d="M51.8859 30.3751C50.1521 25.9946 46.3838 24.8095 43.9609 24.4053C46.9417 25.8064 49.9005 28.675 50.6826 32.4296C51.5249 36.4778 51.328 42.1763 45.1149 45.3218C51.585 44.0979 53.1602 38.0727 52.6789 33.7753C52.6133 33.0942 52.3562 31.5491 51.8913 30.3696L51.8859 30.3751Z" fill="white"/>
<path d="M23.7193 14.0283L20.2901 12.2285L19.8088 12.4666L22.7568 14.5046L23.7193 14.0283Z" fill="white"/>
<path d="M23.7905 14.3105L22.8662 14.7647L21.7942 20.3801L23.7905 14.3105Z" fill="white"/>
<path d="M13.8256 15.4071L13.1091 19.2393L14.0717 18.7686L14.3069 15.1689L13.8256 15.4071Z" fill="white"/>
<path d="M13.2842 19.4717L19.2456 21.6315L14.214 19.0176L13.2897 19.4717H13.2842Z" fill="white"/>
<path d="M20.1863 16.0829L21.2473 21.7426L22.549 14.9199L20.1863 16.0829Z" fill="white"/>
<path d="M14.5259 18.8635L20.6459 22.0422L16.8941 17.7061L14.5313 18.869L14.5259 18.8635Z" fill="white"/>
<path d="M16.7625 17.445L15.9804 14.3438L14.6021 15.0194L14.3669 18.619L16.7625 17.445Z" fill="white"/>
<path d="M22.4617 14.6483L19.5137 12.6104L18.1355 13.286L20.0716 15.8168L22.4671 14.6427L22.4617 14.6483Z" fill="white"/>
<path d="M21.0066 22.0195L19.9182 16.2158L17.1562 17.5726L21.0066 22.0195Z" fill="white"/>
<path d="M19.8035 15.9498L17.8674 13.4189L17.0525 13.8177L16.2375 14.2164L17.0196 17.3176L19.8035 15.9498Z" fill="white"/>
<path d="M38.5136 21.5533C36.9713 21.725 35.2266 22.312 33.8757 22.9932C34.3461 23.2922 35.1118 23.9125 36.047 25.1253C37.026 24.5659 38.5683 23.9069 40.7232 23.6688C43.6985 23.3421 45.5854 23.8682 47.8441 24.8041C45.2463 21.7638 41.0021 21.2765 38.5136 21.5533Z" fill="white"/>
<path d="M26.4704 21.3379C19.8308 21.3379 14.4436 26.7927 14.4436 33.5157C14.4436 40.2386 19.8308 45.6934 26.4704 45.6934C28.4831 45.6934 31.2177 45.195 32.5194 44.2536C32.0983 43.9656 31.4474 43.4395 30.452 42.487C29.1558 43.0851 27.608 43.362 26.0985 43.362C20.5473 43.362 15.9203 38.5828 15.8601 32.9619C15.8 27.4572 20.5691 22.1298 26.4704 22.2239C32.0217 22.307 36.1729 27.4794 36.1729 33.1003C36.1729 35.7474 35.5931 37.5749 33.8922 39.5298C34.1547 39.923 35.265 40.881 35.6861 41.0693C37.6167 38.9095 38.4973 36.6556 38.4973 33.5157C38.4973 26.7927 33.1101 21.3379 26.4704 21.3379Z" fill="white"/>
</svg>
