<svg width="200" height="52" viewBox="0 0 200 52" fill="none" xmlns="http://www.w3.org/2000/svg">
<g clip-path="url(#clip0_280_9413)">
<path d="M0 31.4512C0 22.3816 6.56922 15.7299 16.5888 15.7299C24.6112 15.7299 28.5714 19.9206 29.1748 23.3281L28.4525 23.4142C27.6026 18.1909 20.9909 16.4613 16.5973 16.4613C9.39067 16.4613 3.94323 22.2869 3.94323 31.4426C3.94323 41.1147 10.2405 46.3379 16.5973 46.3379C19.7077 46.3809 25.682 46.2949 30.5855 41.4158L31.0954 41.8891C25.9794 46.9833 19.7926 47.1554 16.5973 47.1554C6.56922 47.164 0 40.4349 0 31.4512Z" fill="#AB8F7F"/>
<path d="M33.05 14.3876H36.1009V37.492C36.9932 32.0967 39.2963 24.1887 45.823 24.1887C52.8596 24.1887 55.5451 28.2502 55.5451 36.5368V46.467H52.0268V31.1759C52.0268 26.469 48.381 24.9545 45.8145 24.9545C37.2822 24.9545 36.0924 40.1595 36.0924 46.4584H33.0415V14.3876H33.05Z" fill="#AB8F7F"/>
<path d="M127.968 14.0433V46.1314H125.215V14.0433H127.968Z" fill="#6B635C"/>
<path d="M131.495 38.275C131.495 34.2995 134.223 31.8385 137.767 31.064L135.183 29.8077C136.509 27.6048 138.064 23.853 145.781 23.853C150.939 23.853 154.755 25.1094 154.755 32.5785V46.0969L151.279 46.14V35.2977L151.194 35.814C150.302 41.4675 148.254 46.8284 141.557 46.8284C135.846 46.8284 131.495 45.3569 131.495 38.275ZM134.435 38.7053C134.435 44.3587 139.007 46.0883 141.523 46.0883C149.367 46.0883 150.565 37.578 151.075 31.3652H142.925C139.475 31.3652 134.435 33.3099 134.435 38.7053ZM141.523 30.6338H151.16C151.16 26.228 150.905 24.3693 145.534 24.3693C140.928 24.3693 139.475 29.7216 139.475 30.7628C140.112 30.6768 140.801 30.6338 141.523 30.6338Z" fill="#6B635C"/>
<path d="M157.211 25.2729V24.5415H160.925V15.9451H164.392V24.5415H174.327V25.2729H164.392V39.867C164.392 44.5739 166.483 46.0884 168.998 46.0884C172.797 46.0884 175.567 43.111 177.191 37.2338L177.913 37.4059C176.672 41.7687 174.242 46.8198 169.041 46.8198C161.962 46.8198 160.925 44.0146 160.925 33.1723L160.882 25.2729H157.211Z" fill="#6B635C"/>
<path d="M176.63 35.3751C176.63 27.906 182.816 23.8875 189.556 23.8875C198.513 23.8875 199.448 30.1949 199.448 37.3629H180.088C180.343 41.5965 184.61 46.0883 189.556 46.0883C193.439 46.0883 196.89 44.9181 199.66 42.5001L200 42.9303C199.278 43.5327 196.159 46.8198 189.547 46.8198C181.482 46.8198 176.621 41.9407 176.621 35.3751H176.63ZM180.046 36.6659H198.725C198.725 30.1863 197.4 24.5759 189.556 24.5759C183.454 24.5759 179.876 32.088 180.046 36.6659Z" fill="#6B635C"/>
<path d="M114.906 40.8307C108.481 49.5992 100.229 48.6612 95.9718 47.6975C91.3911 46.6563 84.652 40.082 85.5188 31.8126C85.6803 30.281 86.5131 26.4345 89.394 22.8204C88.5527 21.5813 86.8615 19.7398 86.1477 19.4387C84.312 21.4522 83.1478 23.6551 82.8503 24.2661C76.3491 37.8361 84.9154 50.9157 97.4675 51.716C107.156 52.3356 112.977 48.0417 114.906 40.8393V40.8307Z" fill="#6B635C"/>
<path d="M118.059 28.1986C115.365 21.392 109.51 19.5505 105.745 18.9224C110.376 21.0994 114.974 25.5568 116.189 31.391C117.498 37.6813 117.192 46.5358 107.538 51.4234C117.592 49.5217 120.039 40.1595 119.291 33.482C119.189 32.4236 118.79 30.0228 118.067 28.1899L118.059 28.1986Z" fill="#AC8F80"/>
<path d="M74.2924 2.79662L68.9639 0L68.2161 0.370015L72.7967 3.53665L74.2924 2.79662Z" fill="#6B635C"/>
<path d="M74.4029 3.23547L72.9667 3.94108L71.301 12.6666L74.4029 3.23547Z" fill="#6B635C"/>
<path d="M58.919 4.93929L57.8057 10.8939L59.3014 10.1625L59.6668 4.56927L58.919 4.93929Z" fill="#6B635C"/>
<path d="M58.0776 11.2554L67.3408 14.6113L59.5224 10.5497L58.0861 11.2554H58.0776Z" fill="#6B635C"/>
<path d="M68.8025 5.98906L70.4512 14.7834L72.4738 4.18201L68.8025 5.98906Z" fill="#6B635C"/>
<path d="M60.0068 10.3088L69.5165 15.248L63.6866 8.51031L60.0153 10.3174L60.0068 10.3088Z" fill="#6B635C"/>
<path d="M63.4825 8.10591L62.2673 3.28711L60.1257 4.33692L59.7603 9.93017L63.4825 8.10591Z" fill="#6B635C"/>
<path d="M72.3379 3.76039L67.7573 0.59375L65.6157 1.64356L68.6241 5.57604L72.3464 3.75178L72.3379 3.76039Z" fill="#6B635C"/>
<path d="M70.0773 15.2137L68.3861 6.19562L64.0945 8.30384L70.0773 15.2137Z" fill="#6B635C"/>
<path d="M68.2077 5.78258L65.1993 1.8501L63.933 2.46966L62.6667 3.08922L63.882 7.90802L68.2077 5.78258Z" fill="#6B635C"/>
<path d="M97.2806 14.4908C94.884 14.7576 92.1731 15.6697 90.074 16.7281C90.8048 17.1928 91.9946 18.1565 93.4478 20.041C94.969 19.1719 97.3656 18.1479 100.714 17.7779C105.337 17.2702 108.269 18.0877 111.779 19.5419C107.742 14.8178 101.147 14.0605 97.2806 14.4908Z" fill="#6B635C"/>
<path d="M78.5672 14.1552C68.2503 14.1552 59.8794 22.6311 59.8794 33.0776C59.8794 43.5241 68.2503 52 78.5672 52C81.6946 52 85.9438 51.2255 87.9664 49.7627C87.312 49.3152 86.3007 48.4978 84.754 47.0177C82.7399 47.947 80.3349 48.3773 77.9894 48.3773C69.3635 48.3773 62.174 40.9512 62.0805 32.2171C61.987 23.6637 69.3975 15.3857 78.5672 15.532C87.1931 15.6611 93.6433 23.6982 93.6433 32.4322C93.6433 36.5454 92.7425 39.3851 90.0995 42.4226C90.5074 43.0336 92.2326 44.5222 92.887 44.8148C95.8869 41.4589 97.2551 37.9566 97.2551 33.0776C97.2551 22.6311 88.8842 14.1552 78.5672 14.1552Z" fill="#AC8F80"/>
</g>
<defs>
<clipPath id="clip0_280_9413">
<rect width="200" height="52" fill="white"/>
</clipPath>
</defs>
</svg>
