<svg width="44" height="44" viewBox="0 0 44 44" fill="none" xmlns="http://www.w3.org/2000/svg">
<path d="M36.6659 28.1966V32.3916C36.6674 32.7811 36.5875 33.1665 36.4312 33.5234C36.2749 33.8802 36.0456 34.2005 35.758 34.4638C35.4705 34.7271 35.131 34.9275 34.7614 35.0523C34.3917 35.177 34 35.2234 33.6114 35.1883C29.2999 34.7208 25.1584 33.2504 21.5197 30.8954C18.1343 28.7484 15.2641 25.8839 13.1129 22.5053C10.7449 18.8573 9.27133 14.7039 8.81142 10.3816C8.77641 9.99486 8.82246 9.60513 8.94663 9.23717C9.07081 8.86922 9.27039 8.5311 9.53267 8.24434C9.79496 7.95758 10.1142 7.72847 10.4701 7.57159C10.8259 7.41472 11.2106 7.33351 11.5997 7.33314H15.8031C16.483 7.32646 17.1422 7.56678 17.6578 8.00929C18.1734 8.45181 18.5101 9.06633 18.6053 9.73831C18.7827 11.0808 19.1117 12.399 19.5861 13.6677C19.7746 14.1682 19.8154 14.7121 19.7037 15.2351C19.5919 15.758 19.3323 16.238 18.9556 16.6182L17.1762 18.3941C19.1707 21.8949 22.0751 24.7936 25.5829 26.7842L27.3624 25.0083C27.7433 24.6324 28.2243 24.3733 28.7482 24.2617C29.2722 24.1502 29.8172 24.1909 30.3187 24.3791C31.5899 24.8525 32.9107 25.1808 34.2559 25.3579C34.9365 25.4537 35.5581 25.7959 36.0025 26.3193C36.4468 26.8427 36.6829 27.5108 36.6659 28.1966Z" stroke="#E0E0E0" stroke-width="2" stroke-linecap="round" stroke-linejoin="round"/>
</svg>
