<svg width="146" height="118" viewBox="0 0 146 118" fill="none" xmlns="http://www.w3.org/2000/svg">
<ellipse cx="126.197" cy="88.8883" rx="19.8032" ry="19.7961" fill="#FFE6C0"/>
<ellipse cx="29.1222" cy="32.9935" rx="9.70745" ry="9.70395" fill="#FFE6C0"/>
<path d="M35.9751 58.2646C35.2882 57.2337 33.895 56.9559 32.8637 57.6421C31.8333 58.3286 31.5545 59.7214 32.2412 60.7523C35.0772 65.007 39.2555 69.7056 44.6588 74.7188C45.0734 75.1039 45.6187 75.3175 46.1846 75.3166C46.4935 75.317 46.7991 75.2536 47.0822 75.1302C47.3653 75.0068 47.6198 74.8261 47.8297 74.5996C48.6724 73.6924 48.619 72.273 47.7105 71.4308C42.6376 66.7244 38.5793 62.1715 35.9751 58.2646ZM32.8743 51.2545V51.2291C32.8743 49.9922 31.8731 48.9974 30.6355 48.9956H30.631C29.3957 48.9956 28.3924 50.0036 28.3882 51.2387V51.3186C28.4091 52.5448 29.4089 53.5292 30.6312 53.5292H30.6689C31.9081 53.5081 32.8954 52.4932 32.8743 51.2545Z" fill="#6B635C"/>
<path d="M134.018 90.967L129.929 83.1437C127.787 79.0459 125.034 75.2982 121.763 72.0294L110.587 60.8575C109.312 59.584 107.618 58.8818 105.816 58.8818C104.014 58.8818 102.319 59.584 101.045 60.8575C100.345 61.5559 99.8078 62.4004 99.4723 63.3304C98.7134 63.0469 97.9096 62.9023 97.0995 62.9036C96.1166 62.9018 95.1453 63.1155 94.2539 63.5294C96.8934 59.0396 98.228 54.9222 98.228 51.2292C98.228 37.011 87.5649 25.4439 74.458 25.4439C68.7073 25.4439 63.1269 27.7386 58.8213 31.8102C54.5148 27.7386 48.935 25.4439 43.1837 25.4439C30.0778 25.4439 19.4148 37.0112 19.4148 51.229C19.4148 59.4329 25.9091 69.5978 38.716 81.442C48.0224 90.0481 57.1747 96.2955 57.5597 96.5567C57.9316 96.8099 58.3711 96.9452 58.821 96.9452C59.271 96.9452 59.7105 96.8099 60.0824 96.5567C60.4183 96.3289 67.9403 91.1948 76.2734 83.8375L83.9418 91.5032L81.7802 90.8582C78.1272 89.7676 74.3302 91.7486 73.1366 95.369C72.1161 98.4668 73.3472 101.819 76.1313 103.52L88.607 111.144C91.5486 112.945 94.8191 114.144 98.2282 114.67L109.479 116.42C109.595 116.438 109.711 116.447 109.826 116.447C110.361 116.446 110.878 116.255 111.284 115.907C111.69 115.558 111.958 115.077 112.04 114.549C112.23 113.325 111.392 112.179 110.168 111.988L98.9174 110.239C96.0933 109.803 93.3842 108.809 90.9473 107.318L78.4717 99.6941C77.9882 99.4006 77.6187 98.9517 77.4238 98.4209C77.2288 97.8901 77.2199 97.3089 77.3985 96.7724C77.6 96.1509 78.0375 95.6334 78.6169 95.3311C79.1962 95.0288 79.8711 94.9659 80.4964 95.156L91.1621 98.3405C91.6406 98.4835 92.1532 98.4627 92.6186 98.2815C93.0841 98.1004 93.4757 97.7691 93.7315 97.3403C93.9873 96.9117 94.0926 96.41 94.0308 95.9148C93.969 95.4196 93.7436 94.9591 93.3903 94.6064L70.3281 71.5525C69.4468 70.6718 69.4468 69.2376 70.3281 68.3566C70.5376 68.1462 70.7867 67.9793 71.061 67.8657C71.3354 67.7522 71.6295 67.6941 71.9265 67.6948C72.5308 67.6948 73.0983 67.9298 73.5252 68.3568L94.4611 89.2849C95.337 90.1605 96.7576 90.1596 97.6335 89.2849C98.5097 88.4093 98.5097 86.9893 97.6335 86.1134L87.1135 75.5972C86.903 75.3878 86.7361 75.1387 86.6224 74.8645C86.5088 74.5902 86.4507 74.2961 86.4515 73.9992C86.4515 73.3951 86.6865 72.828 87.1137 72.4012C87.3231 72.1907 87.5722 72.0238 87.8465 71.9102C88.1209 71.7965 88.4151 71.7384 88.7121 71.7392C89.0089 71.7384 89.303 71.7965 89.5773 71.9101C89.8515 72.0238 90.1005 72.1907 90.3097 72.4012L92.324 74.4146C92.3249 74.4155 92.3267 74.4164 92.3276 74.4182L100.83 82.9175C101.706 83.7931 103.126 83.7931 104.003 82.9175C104.211 82.7094 104.377 82.4623 104.489 82.1901C104.602 81.918 104.66 81.6263 104.659 81.3318C104.66 81.0373 104.602 80.7456 104.489 80.4734C104.377 80.2013 104.211 79.954 104.003 79.746L95.5002 71.2467C94.6189 70.3657 94.6189 68.9317 95.5002 68.0507C95.7096 67.8402 95.9587 67.6733 96.2331 67.5596C96.5074 67.446 96.8016 67.3879 97.0986 67.3887C97.702 67.3887 98.2704 67.6239 98.6974 68.0507L107.2 76.55C108.076 77.4256 109.496 77.4256 110.372 76.55C111.248 75.6744 111.248 74.2544 110.372 73.3785L104.217 67.2249C104.006 67.0156 103.839 66.7666 103.725 66.4924C103.612 66.2181 103.553 65.924 103.554 65.6272C103.554 65.024 103.789 64.4567 104.217 64.029C104.426 63.8186 104.675 63.6518 104.949 63.5382C105.224 63.4246 105.518 63.3664 105.815 63.367C106.418 63.367 106.987 63.603 107.414 64.0299L118.59 75.2018C121.538 78.1487 124.021 81.5276 125.951 85.2221L130.041 93.0455C130.614 94.1428 131.97 94.5681 133.068 93.9938C134.167 93.4198 134.592 92.0655 134.018 90.967ZM82.616 71.1004L76.6979 65.1851C75.4237 63.9116 73.7295 63.2094 71.9267 63.2094C70.1247 63.2094 68.4306 63.9116 67.1555 65.1853C64.5247 67.8149 64.5247 72.0945 67.1555 74.724L73.0938 80.6602C66.9995 86.0189 61.2776 90.2166 58.8206 91.9656C55.9943 89.9545 48.8476 84.7021 41.7634 78.1507C30.0778 67.3443 23.9011 58.0351 23.9011 51.2301C23.9011 39.4848 32.5516 29.9301 43.1839 29.9301C48.497 29.9301 53.4478 32.2698 57.1246 36.5193C57.3352 36.7626 57.5957 36.9577 57.8884 37.0914C58.1811 37.2252 58.4992 37.2944 58.821 37.2944C59.1429 37.2944 59.4609 37.2252 59.7537 37.0914C60.0464 36.9577 60.3069 36.7626 60.5175 36.5193C64.1943 32.2698 69.1451 29.9301 74.4582 29.9301C85.0905 29.9301 93.7412 39.4848 93.7412 51.2301C93.7412 55.79 90.9928 61.4396 85.5765 68.0245C84.9736 68.3418 84.4221 68.7485 83.9409 69.2306C83.3957 69.7737 82.9476 70.4061 82.616 71.1004ZM58.8208 6.03812C59.4108 6.03812 59.9895 5.798 60.4068 5.38061C60.8241 4.96322 61.0636 4.38493 61.0636 3.79498C61.0636 3.20322 60.8243 2.62651 60.4068 2.21024C59.9859 1.79006 59.4157 1.55365 58.8208 1.55273C58.2261 1.55346 57.656 1.78991 57.2355 2.21024C56.8158 2.63109 56.5794 3.20069 56.5778 3.79498C56.5798 4.38951 56.8161 4.95929 57.2355 5.38084C57.6568 5.8 58.2264 6.03602 58.8208 6.03812ZM71.484 20.6506C71.7786 20.6509 72.0704 20.5931 72.3425 20.4805C72.6147 20.3678 72.862 20.2026 73.0702 19.9942L78.5559 14.5103C79.4319 13.6346 79.4319 12.2146 78.5559 11.3388C77.68 10.4629 76.2595 10.4631 75.3833 11.3388L69.8976 16.8227C69.0214 17.6984 69.0214 19.1184 69.8976 19.9942C70.1056 20.2028 70.3529 20.3681 70.6251 20.4808C70.8973 20.5934 71.1894 20.6511 71.484 20.6506ZM44.5571 19.9774C44.9955 20.415 45.569 20.634 46.1433 20.634C46.7175 20.634 47.2922 20.415 47.7297 19.9774C48.6056 19.1018 48.6056 17.6817 47.7297 16.8061L42.2597 11.3372C41.3835 10.4613 39.9632 10.4613 39.0862 11.3372C38.2102 12.2128 38.2102 13.6328 39.0862 14.5085L44.5571 19.9774ZM58.8208 10.6806C57.5823 10.6806 56.5775 11.6841 56.5775 12.9228V19.9406C56.5775 21.1793 57.5823 22.1831 58.8206 22.1831C60.0597 22.1831 61.0645 21.1793 61.0645 19.9406V12.9228C61.0645 11.6841 60.06 10.6806 58.8208 10.6806Z" fill="#6B635C"/>
</svg>
