<svg width="40" height="40" viewBox="0 0 40 40" fill="none" xmlns="http://www.w3.org/2000/svg">
<g clip-path="url(#clip0_280_11153)">
<path d="M0.853564 19.7606C0.852627 23.1214 1.73763 26.403 3.42044 29.2954L0.692627 39.1778L10.8851 36.5261C13.7042 38.0489 16.8628 38.8468 20.0726 38.847H20.0811C30.6772 38.847 39.3026 30.2915 39.3072 19.7757C39.3092 14.68 37.3111 9.88839 33.6808 6.28342C30.0511 2.67877 25.2237 0.692572 20.0803 0.690247C9.48294 0.690247 0.858096 9.24529 0.853721 19.7606" fill="url(#paint0_linear_280_11153)"/>
<path d="M0.167188 19.7544C0.166094 23.2361 1.08281 26.635 2.82562 29.631L0 39.8678L10.558 37.1209C13.467 38.6947 16.7423 39.5245 20.0752 39.5257H20.0837C31.06 39.5257 39.9953 30.6625 40 19.7702C40.0019 14.4915 37.9319 9.5276 34.1719 5.79349C30.4114 2.05984 25.4114 0.00217054 20.0837 0C9.10562 0 0.171563 8.86202 0.167188 19.7544ZM6.45469 29.115L6.06047 28.4941C4.40328 25.8795 3.52859 22.8581 3.52984 19.7557C3.53344 10.7022 10.9591 3.33643 20.09 3.33643C24.5119 3.33829 28.6675 5.04868 31.7931 8.15194C34.9186 11.2555 36.6384 15.3811 36.6373 19.769C36.6333 28.8225 29.2075 36.1891 20.0837 36.1891H20.0772C17.1064 36.1876 14.1928 35.396 11.6519 33.9L11.0472 33.5442L4.78188 35.1741L6.45469 29.1149V29.115Z" fill="url(#paint1_linear_280_11153)"/>
<path d="M15.1061 11.4958C14.7332 10.6737 14.3409 10.6571 13.9864 10.6427C13.6961 10.6302 13.3642 10.6312 13.0326 10.6312C12.7007 10.6312 12.1615 10.7551 11.7057 11.2489C11.2495 11.7431 9.96387 12.9375 9.96387 15.3668C9.96387 17.7963 11.7471 20.144 11.9957 20.4738C12.2446 20.803 15.4384 25.9478 20.4965 27.927C24.7003 29.5718 25.5557 29.2447 26.4681 29.1622C27.3806 29.08 29.4125 27.9681 29.827 26.8151C30.2418 25.6622 30.2418 24.674 30.1175 24.4675C29.9931 24.2617 29.6612 24.1382 29.1636 23.8913C28.6657 23.6444 26.2192 22.4498 25.7631 22.285C25.3068 22.1203 24.9751 22.0382 24.6432 22.5326C24.3114 23.0262 23.3584 24.1382 23.0679 24.4675C22.7778 24.7975 22.4873 24.8386 21.9898 24.5916C21.4918 24.3439 19.8892 23.8231 17.9878 22.1411C16.5084 20.8323 15.5096 19.216 15.2193 18.7216C14.929 18.2279 15.1882 17.9603 15.4378 17.7143C15.6614 17.493 15.9356 17.1377 16.1846 16.8495C16.4328 16.5611 16.5156 16.3554 16.6815 16.0261C16.8476 15.6965 16.7645 15.4081 16.6403 15.1611C16.5156 14.9141 15.5486 12.4721 15.1061 11.4958Z" fill="white"/>
</g>
<defs>
<linearGradient id="paint0_linear_280_11153" x1="1931.42" y1="3849.45" x2="1931.42" y2="0.690247" gradientUnits="userSpaceOnUse">
<stop stop-color="#1FAF38"/>
<stop offset="1" stop-color="#60D669"/>
</linearGradient>
<linearGradient id="paint1_linear_280_11153" x1="2000" y1="3986.78" x2="2000" y2="0" gradientUnits="userSpaceOnUse">
<stop stop-color="#F9F9F9"/>
<stop offset="1" stop-color="white"/>
</linearGradient>
<clipPath id="clip0_280_11153">
<rect width="40" height="40" fill="white"/>
</clipPath>
</defs>
</svg>
