<svg width="146.000000" height="118.000000" viewBox="0 0 146 118" fill="none" xmlns="http://www.w3.org/2000/svg" xmlns:xlink="http://www.w3.org/1999/xlink">
	<desc>
			Created with Pixso.
	</desc>
	<defs>
		<clipPath id="clip280_10258">
			<rect id="Camera" width="146.000000" height="118.000000" fill="white" fill-opacity="0"/>
		</clipPath>
	</defs>
	<rect id="Camera" width="146.000000" height="118.000000" fill="#FFFFFF" fill-opacity="0"/>
	<g clip-path="url(#clip280_10258)">
		<ellipse id="Ellipse 19" cx="112.994629" cy="30.664062" rx="19.026592" ry="19.019737" fill="#FFE6C0" fill-opacity="1.000000"/>
		<ellipse id="Ellipse 20" cx="19.803101" cy="97.427246" rx="11.260638" ry="11.256580" fill="#FFE6C0" fill-opacity="1.000000"/>
		<path id="Vector" d="M85.9869 49.7544C82.4653 49.7544 79.0449 50.437 75.821 51.7832C74.7537 52.229 74.25 53.4551 74.6957 54.522C75.1416 55.5894 76.3684 56.0923 77.4357 55.647C80.1455 54.5156 83.0225 53.9419 85.9869 53.9419C98.229 53.9419 108.188 63.8979 108.188 76.1353C108.188 88.3726 98.229 98.3286 85.9869 98.3286C73.745 98.3286 63.7856 88.3726 63.7856 76.1353C63.7856 73.1763 64.3578 70.3042 65.4866 67.5991C65.9318 66.5317 65.4272 65.3057 64.3597 64.8608C63.2928 64.416 62.0657 64.9199 61.6204 65.9873C60.2776 69.2061 59.5967 72.6201 59.5967 76.1353C59.5967 90.6816 71.4353 102.516 85.9869 102.516C100.539 102.516 112.377 90.6816 112.377 76.1353C112.377 61.5889 100.539 49.7544 85.9869 49.7544Z" fill="#6B635C" fill-opacity="1.000000" fill-rule="nonzero"/>
		<path id="Vector" d="M85.9869 93.3037C95.457 93.3037 103.161 85.6021 103.161 76.1353C103.161 66.6685 95.457 58.9668 85.9869 58.9668C76.5167 58.9668 68.8123 66.6685 68.8123 76.1353C68.8123 85.6021 76.517 93.3037 85.9869 93.3037ZM85.9869 63.1543C93.1472 63.1543 98.9727 68.9775 98.9727 76.1353C98.9727 83.293 93.1472 89.1162 85.9869 89.1162C78.8265 89.1162 73.0012 83.293 73.0012 76.1353C73.0012 68.9775 78.8265 63.1543 85.9869 63.1543Z" fill="#6B635C" fill-opacity="1.000000" fill-rule="nonzero"/>
		<path id="Vector" d="M115.996 39.7046L109.625 39.7046L102.312 27.3335C102.127 27.02 101.863 26.7603 101.547 26.5801C101.231 26.3994 100.873 26.3047 100.509 26.3047L71.4653 26.3047C71.1013 26.3047 70.7435 26.3994 70.4274 26.5801C70.1111 26.7603 69.8474 27.02 69.6622 27.3335L62.3494 39.7046L50.3798 39.7046L50.3798 37.1919C50.3798 33.0356 46.9973 29.6548 42.8396 29.6548C38.6819 29.6548 35.2996 33.0356 35.2996 37.1919L35.2996 39.7046L30.0039 39.7046C24.1467 39.7046 19.3816 44.4678 19.3816 50.3232L19.3816 101.947C19.3816 107.802 24.1467 112.566 30.0039 112.566L115.996 112.566C121.853 112.566 126.618 107.802 126.618 101.947L126.618 50.3232C126.618 44.4678 121.853 39.7046 115.996 39.7046ZM72.6605 30.4922L99.3135 30.4922L104.759 39.7046L67.2148 39.7046L72.6605 30.4922ZM39.4885 37.1919C39.4885 35.3447 40.9919 33.8423 42.8396 33.8423C44.6874 33.8423 46.1908 35.3447 46.1908 37.1919L46.1908 39.7046L39.4885 39.7046L39.4885 37.1919ZM122.429 101.947C122.429 105.493 119.543 108.378 115.996 108.378L30.0039 108.378C26.4565 108.378 23.5706 105.493 23.5706 101.947L23.5706 50.3232C23.5706 46.7769 26.4565 43.8921 30.0039 43.8921L115.996 43.8921C119.543 43.8921 122.429 46.7769 122.429 50.3232L122.429 101.947L122.429 101.947Z" fill="#6B635C" fill-opacity="1.000000" fill-rule="nonzero"/>
		<path id="Vector" d="M85.9869 72.0522C88.2391 72.0522 90.0712 73.8838 90.0712 76.1348C90.0712 77.2915 91.0089 78.2285 92.1656 78.2285C93.3224 78.2285 94.2601 77.2915 94.2601 76.1348C94.2601 71.5747 90.5487 67.8647 85.9869 67.8647C84.8302 67.8647 83.8925 68.8022 83.8925 69.9585C83.8925 71.1147 84.8302 72.0522 85.9869 72.0522ZM85.9869 20.7964C87.1437 20.7964 88.0814 19.8589 88.0814 18.7026L88.0814 7.52783C88.0814 6.37158 87.1437 5.43408 85.9869 5.43408C84.8302 5.43408 83.8925 6.37158 83.8925 7.52783L83.8925 18.7026C83.8925 19.8589 84.8302 20.7964 85.9869 20.7964ZM95.9535 20.7964C96.2286 20.7964 96.5011 20.7427 96.7552 20.6372C97.0094 20.5322 97.2402 20.3779 97.4344 20.1831L105.119 12.501C105.937 11.6836 105.937 10.3574 105.119 9.54004C104.301 8.72266 102.975 8.72266 102.157 9.54004L94.4725 17.2222C93.6545 18.0396 93.6545 19.3652 94.4725 20.1831C94.6667 20.3779 94.8977 20.5322 95.1519 20.6377C95.406 20.7427 95.6785 20.7969 95.9535 20.7964ZM74.5394 20.1831C74.9485 20.5918 75.4845 20.7964 76.0204 20.7964C76.5564 20.7964 77.0925 20.5918 77.5015 20.1831C78.3193 19.3657 78.3196 18.04 77.5016 17.2222L69.8168 9.54004C68.9989 8.72266 67.6727 8.72266 66.8549 9.54004C66.037 10.3574 66.0367 11.6836 66.8546 12.501L74.5394 20.1831ZM48.2853 56.873L37.394 56.873C36.2373 56.873 35.2996 57.8105 35.2996 58.9668C35.2996 60.123 36.2373 61.0601 37.394 61.0601L48.2853 61.0601C49.442 61.0601 50.3798 60.123 50.3798 58.9668C50.3798 57.8101 49.442 56.873 48.2853 56.873ZM68.8027 61.0601C69.3535 61.0601 69.8939 60.8359 70.2834 60.4468C70.6731 60.0571 70.8971 59.519 70.8971 58.9663C70.8971 58.4155 70.6731 57.8755 70.2834 57.4863C69.8939 57.0967 69.3535 56.8726 68.8027 56.8726C68.2518 56.8726 67.7114 57.0967 67.3219 57.4863C66.9298 57.8789 66.7091 58.4111 66.7083 58.9663C66.7083 59.5171 66.9302 60.0571 67.3219 60.4468C67.7114 60.8359 68.2498 61.0601 68.8027 61.0601Z" fill="#6B635C" fill-opacity="1.000000" fill-rule="nonzero"/>
	</g>
</svg>
