<svg width="146" height="118" viewBox="0 0 146 118" fill="none" xmlns="http://www.w3.org/2000/svg">
<ellipse cx="123.867" cy="96.6515" rx="19.8032" ry="19.7961" fill="#FFE6C0"/>
<ellipse cx="26.016" cy="39.9802" rx="12.0372" ry="12.0329" fill="#FFE6C0"/>
<path d="M91.409 45.9608C90.393 45.9608 89.4627 45.2837 89.1854 44.2565C88.8531 43.0276 89.5798 41.7619 90.8092 41.4305L90.9028 41.4051C91.1957 41.3285 91.5009 41.3103 91.8009 41.3517C92.101 41.393 92.3899 41.4931 92.6512 41.6461C92.9124 41.7992 93.141 42.0022 93.3237 42.2436C93.5065 42.485 93.6398 42.76 93.7162 43.053C94.0387 44.2837 93.3003 45.543 92.0691 45.8645L92.0124 45.8797C91.8158 45.9335 91.6129 45.9608 91.409 45.9608ZM106.941 68.0858C105.845 68.0858 104.763 67.7984 103.788 67.2358C102.324 66.3914 101.278 65.0275 100.84 63.3962C100.51 62.1665 101.241 60.9035 102.471 60.5739C103.7 60.2434 104.965 60.9736 105.294 62.2033C105.352 62.4211 105.453 62.6252 105.59 62.8038C105.727 62.9825 105.899 63.1321 106.094 63.2441C106.289 63.3574 106.504 63.4309 106.727 63.4602C106.95 63.4896 107.177 63.4742 107.394 63.4151C107.612 63.3578 107.817 63.2577 107.996 63.1206C108.175 62.9835 108.324 62.8121 108.436 62.6166C108.55 62.4219 108.623 62.2067 108.653 61.9834C108.682 61.76 108.667 61.5331 108.608 61.3158C108.278 60.086 109.008 58.8228 110.239 58.4932C111.468 58.163 112.732 58.8931 113.062 60.1227C113.5 61.7541 113.275 63.4582 112.43 64.9213C111.585 66.3843 110.22 67.4304 108.589 67.8678C108.051 68.0121 107.497 68.0853 106.941 68.0858ZM86.9979 73.4279C85.9019 73.4279 84.8203 73.1398 83.8449 72.5781C82.3813 71.7337 81.3349 70.3698 80.8973 68.7376C80.5676 67.5087 81.298 66.2446 82.5282 65.9153C83.7575 65.5848 85.0221 66.3149 85.3515 67.5447C85.4094 67.7624 85.5098 67.9665 85.6471 68.1452C85.7844 68.3238 85.9558 68.4735 86.1513 68.5855C86.3461 68.6988 86.5614 68.7723 86.7849 68.8017C87.0083 68.831 87.2353 68.8157 87.4528 68.7565C87.6706 68.699 87.8748 68.5988 88.0535 68.4617C88.2322 68.3246 88.3818 68.1533 88.4937 67.9579C88.6071 67.7632 88.6806 67.5479 88.7099 67.3246C88.7393 67.1012 88.724 66.8743 88.6648 66.6569C88.3351 65.4271 89.0657 64.1642 90.2959 63.8346C91.5252 63.5043 92.7896 64.2345 93.1193 65.464C93.5569 67.0955 93.3319 68.7996 92.4869 70.2624C91.6421 71.7256 90.2777 72.7717 88.6459 73.2091C88.1086 73.3541 87.5545 73.4278 86.9979 73.4281V73.4279ZM100.883 88.5282C99.2404 88.5282 97.6203 88.0979 96.1596 87.2541C93.9675 85.9893 92.3997 83.9467 91.745 81.5023C91.4153 80.2725 92.1447 79.0087 93.375 78.6791C94.6052 78.3495 95.8686 79.0799 96.1983 80.3096C96.3623 80.9272 96.6472 81.5062 97.0364 82.013C97.4257 82.5198 97.9116 82.9445 98.466 83.2624C99.0187 83.5833 99.6295 83.7915 100.263 83.8749C100.897 83.9584 101.541 83.9155 102.158 83.7487C104.749 83.0545 106.293 80.3816 105.599 77.7906C105.269 76.5618 105.999 75.2979 107.229 74.9683C108.458 74.6378 109.722 75.3689 110.052 76.5977C111.405 81.6438 108.399 86.849 103.351 88.2004C102.546 88.4176 101.717 88.5278 100.883 88.5282Z" fill="#6B635C"/>
<path d="M130.902 64.5654C127.248 50.9318 115.33 41.2063 101.244 40.3635C99.9707 40.2897 98.8811 41.2565 98.8055 42.5269C98.769 43.1371 98.9765 43.7369 99.3823 44.1942C99.7881 44.6516 100.359 44.9291 100.969 44.9657C113.069 45.6887 123.309 54.045 126.448 65.7583C130.461 80.7307 121.541 96.1746 106.564 100.186C104.208 100.818 101.78 101.137 99.3404 101.137C89.9293 101.137 80.8935 96.3926 75.6605 88.2947C78.073 83.7367 79.4427 78.5465 79.4427 73.0413C79.4427 67.5361 78.0739 62.3462 75.6612 57.7889C77.8675 54.3727 80.8198 51.4395 84.2365 49.278C85.3118 48.5974 85.6325 47.1731 84.9517 46.0975C84.2709 45.0224 82.8461 44.702 81.7708 45.3826C78.3828 47.526 75.3882 50.3197 72.9882 53.555C67.0173 45.5301 57.4619 40.3213 46.7108 40.3213C28.6621 40.3213 13.9788 54.9991 13.9788 73.0413C13.9788 91.0838 28.6621 105.762 46.7108 105.762C57.4647 105.762 67.0236 100.55 72.9937 92.5205C76.5112 97.246 81.3115 101.011 86.789 103.277C90.7973 104.935 95.0033 105.77 99.2397 105.77C102.082 105.77 104.938 105.394 107.757 104.639C125.19 99.9693 135.574 81.9918 130.902 64.5654ZM46.7108 101.152C31.2044 101.152 18.5898 88.5413 18.5898 73.0413C18.5898 57.5417 31.2044 44.9307 46.7108 44.9307C62.2163 44.9307 74.8307 57.5417 74.8307 73.0413C74.8307 88.5413 62.2163 101.152 46.7108 101.152Z" fill="#6B635C"/>
<path d="M40.4085 70.4582C39.1349 70.4582 38.102 69.4264 38.102 68.1535C38.102 67.2081 37.3329 66.4393 36.3872 66.4393C35.4417 66.4393 34.6726 67.2081 34.6726 68.1535C34.6726 69.4264 33.6404 70.4582 32.367 70.4582C31.0935 70.4582 30.0615 69.4264 30.0615 68.1535C30.0615 64.6665 32.8992 61.8299 36.3872 61.8299C39.8754 61.8299 42.714 64.6668 42.714 68.1535C42.714 69.4264 41.6811 70.4582 40.4085 70.4582ZM61.0546 70.4582C59.781 70.4582 58.7491 69.4264 58.7491 68.1535C58.7491 67.2081 57.98 66.4393 57.0342 66.4393C56.0885 66.4393 55.3194 67.2081 55.3194 68.1535C55.3194 69.4264 54.2865 70.4582 53.0139 70.4582C51.7405 70.4582 50.7077 69.4264 50.7077 68.1535C50.7077 64.6665 53.5462 61.8299 57.0342 61.8299C60.5223 61.8299 63.3601 64.6668 63.3601 68.1535C63.3601 69.4264 62.3279 70.4582 61.0546 70.4582ZM46.7108 88.7436C41.4847 88.7436 37.2338 84.4942 37.2338 79.27C37.2338 77.9978 38.2659 76.9653 39.5393 76.9653C40.8128 76.9653 41.8448 77.9978 41.8448 79.27C41.8448 81.9526 44.0279 84.134 46.7108 84.134C49.3935 84.134 51.5766 81.9519 51.5766 79.27C51.5766 77.9978 52.6088 76.9653 53.8821 76.9653C55.1555 76.9653 56.1877 77.9978 56.1877 79.27C56.1877 84.4942 51.9361 88.7436 46.7108 88.7436ZM73.0378 21.8229C71.7644 21.8229 70.7323 20.7904 70.7323 19.5182V8.51514C70.7323 7.24226 71.7644 6.21045 73.0378 6.21045C74.3113 6.21045 75.3433 7.24226 75.3433 8.51514V19.5182C75.3433 20.7913 74.3113 21.8229 73.0378 21.8229ZM73.0369 31.5558C72.4298 31.5558 71.8373 31.3092 71.4068 30.8805C70.9762 30.4474 70.734 29.8618 70.7332 29.2511C70.7332 28.645 70.9773 28.0501 71.4068 27.6217C71.8404 27.1913 72.4259 26.9487 73.0369 26.9464C73.6448 26.9464 74.2373 27.193 74.6669 27.6217C75.0983 28.0545 75.3411 28.6401 75.3424 29.2511C75.3412 29.8621 75.0984 30.4478 74.6669 30.8805C74.2335 31.3112 73.6479 31.5538 73.0369 31.5558ZM61.1436 27.5611C60.8408 27.5614 60.5409 27.5019 60.2612 27.386C59.9815 27.2702 59.7274 27.1002 59.5136 26.8858L51.8703 19.2458C50.9705 18.3462 50.9705 16.8869 51.8703 15.9867C52.7709 15.0865 54.2307 15.0865 55.1313 15.9867L62.7745 23.6272C63.6744 24.5267 63.6744 25.986 62.7745 26.886C62.5606 27.1005 62.3064 27.2705 62.0265 27.3864C61.7466 27.5023 61.4466 27.5615 61.1436 27.5611ZM85.0724 27.3587C84.7698 27.359 84.4701 27.2996 84.1906 27.1839C83.911 27.0682 83.6571 26.8984 83.4433 26.6844C82.5418 25.7842 82.5418 24.3258 83.4414 23.4244L90.8721 15.9918C91.7729 15.0925 93.2327 15.0916 94.1333 15.9909C95.0338 16.8913 95.0338 18.3506 94.1342 19.2508L86.7035 26.6834C86.4896 26.8979 86.2353 27.068 85.9554 27.1839C85.6754 27.2998 85.3753 27.3592 85.0724 27.3587Z" fill="#6B635C"/>
</svg>
