<svg width="146" height="118" viewBox="0 0 146 118" fill="none" xmlns="http://www.w3.org/2000/svg">
<ellipse cx="19.8032" cy="84.2301" rx="19.8032" ry="19.7961" fill="#FFE6C0"/>
<ellipse cx="112.218" cy="48.5196" rx="13.5904" ry="13.5855" fill="#FFE6C0"/>
<path d="M72.7941 14.9943C74.0764 14.9943 75.1159 13.9551 75.1159 12.6732V2.32105C75.1159 1.03918 74.0764 0 72.7941 0C71.5117 0 70.4722 1.03918 70.4722 2.32105V12.6732C70.4724 13.9551 71.512 14.9943 72.7941 14.9943ZM129.55 79.7387L125.448 75.6499C123.989 74.1931 122.044 73.3907 119.972 73.3907C118.647 73.3907 117.375 73.7202 116.248 74.3376L108.518 66.6202L108.895 66.2443C112.031 63.1035 112.029 57.9997 108.895 54.8695C107.791 53.7604 106.385 53.0005 104.853 52.6847C105.065 51.9508 105.173 51.1906 105.173 50.4265C105.173 48.2705 104.335 46.2488 102.819 44.739C101.715 43.63 100.309 42.8701 98.7768 42.5542C98.9895 41.8203 99.0973 41.0601 99.097 40.2961C99.097 38.1398 98.2592 36.1183 96.7401 34.6062C95.6354 33.5016 94.2317 32.7442 92.7017 32.4272C93.4939 29.6968 92.817 26.6249 90.6683 24.4732C88.8797 22.6929 86.4526 21.9277 84.1137 22.1757L68.797 19.2775C66.461 18.8346 63.5439 18.5417 61.7024 20.2206C61.5862 20.3266 61.4677 20.4486 61.3511 20.5843C58.4959 19.544 55.1658 20.1635 52.8795 22.4465C51.3627 23.9609 50.5271 25.9816 50.5271 28.1365C50.5271 28.9127 50.6371 29.6708 50.8467 30.3949C49.3169 30.7101 47.9138 31.4682 46.812 32.5749C45.2922 34.0879 44.4542 36.1064 44.4526 38.2587C44.4516 39.0249 44.5595 39.7874 44.773 40.5233C43.2421 40.8379 41.8373 41.5953 40.7333 42.7012C39.2135 44.2189 38.3766 46.2408 38.3766 48.3945C38.3766 50.0442 38.8693 51.6157 39.7823 52.9432C38.6171 53.3383 37.5587 53.9966 36.6894 54.867C33.5516 57.9997 33.5505 63.1037 36.6915 66.2491L37.0666 66.6225L29.3362 74.336C26.4633 72.9839 22.9236 73.4904 20.5529 75.8574L16.4486 79.9486C14.9887 81.4061 14.185 83.3503 14.1848 85.423C14.1848 87.4958 14.9887 89.4403 16.4486 90.898L21.5708 96.0121C22.478 96.918 23.9482 96.9171 24.8543 96.0102C25.7606 95.1033 25.7597 93.6336 24.8524 92.7279L19.7303 87.6138C19.1488 87.0332 18.8286 86.2552 18.8286 85.4232C18.8286 84.5914 19.1488 83.8136 19.7289 83.2344L23.8334 79.1429C24.8589 78.1189 26.4285 77.9664 27.6204 78.6788C27.8577 79.0362 28.1899 79.3206 28.5798 79.4999L52.1175 102.995C52.2315 103.245 52.3892 103.473 52.5832 103.668C52.7729 103.857 52.9941 104.012 53.2368 104.125C53.7372 104.69 54.0123 105.419 54.0096 106.173C54.0096 107.005 53.6894 107.783 53.1079 108.363L49.0076 112.457C47.796 113.663 45.8253 113.663 44.6174 112.461L39.4952 107.34C38.5885 106.434 37.1185 106.434 36.2117 107.34C35.305 108.247 35.305 109.716 36.2117 110.623L41.3376 115.747C42.8463 117.249 44.8277 118 46.81 118C48.7927 118 50.7764 117.248 52.2869 115.745L56.3898 111.648C57.8497 110.19 58.6536 108.246 58.6536 106.173C58.6536 104.694 58.2421 103.281 57.4769 102.063L66.177 93.3762L66.2049 93.3479C67.2011 92.3183 69.9753 92.511 72.6583 92.6972C74.5645 92.8298 76.6897 92.977 78.766 92.7378L88.2934 102.25C87.6762 103.375 87.3467 104.645 87.3467 105.968C87.3467 108.038 88.1506 109.981 89.6105 111.439L93.7136 115.536C95.1726 116.993 97.1173 117.795 99.1895 117.795C101.261 117.795 103.206 116.993 104.665 115.536L129.551 90.6889C131.011 89.2314 131.815 87.2872 131.815 85.2144C131.815 83.1418 131.011 81.1975 129.55 79.7387ZM67.9324 23.8385L78.0045 25.7443L71.9758 31.7685C71.0432 31.3205 69.7651 30.4848 68.3629 29.1439C66.4435 27.3085 65.0706 25.1893 64.9456 23.8676L64.9454 23.8655L64.9452 23.8648C64.9375 23.7888 64.9341 23.7125 64.935 23.6362C65.2386 23.5624 66.0451 23.4806 67.9324 23.8385ZM56.1609 25.7309C57.3372 24.5562 59.1645 24.4207 60.4937 25.3204C61.2469 28.4774 63.9409 31.3387 65.1529 32.4979C66.0511 33.3571 68.9332 35.9331 71.8423 36.6411C72.2401 37.2118 72.4523 37.8911 72.4501 38.5867C72.4501 39.5005 72.0985 40.3548 71.4578 40.9946C70.8189 41.6344 69.9629 41.9865 69.0471 41.9865C68.1311 41.9865 67.2751 41.6344 66.6333 40.9916L66.633 40.9914L66.6319 40.9902L56.1607 30.5417C55.5223 29.9045 55.1707 29.0501 55.1707 28.1365C55.1709 27.2227 55.5225 26.3684 56.1609 25.7309ZM50.0937 35.8593C50.7326 35.2198 51.5877 34.8674 52.502 34.8674C53.4176 34.8674 54.2755 35.2204 54.9185 35.8625L63.3502 44.2744C64.6779 45.6037 64.6779 47.7669 63.3548 49.0917C62.7125 49.7312 61.8535 50.0834 60.9361 50.0834C60.0187 50.0834 59.1597 49.7312 58.5201 49.0944L58.5199 49.0942L52.1233 42.7012C52.1133 42.6913 52.1025 42.6821 52.0924 42.672L50.0912 40.6724C49.4491 40.0312 49.0956 39.1753 49.0963 38.2622C49.0973 37.352 49.4495 36.5005 50.0937 35.8593ZM44.015 45.9856C44.6543 45.3475 45.5113 44.996 46.4284 44.996C47.3379 44.996 48.1875 45.3424 48.8241 45.9695L55.2403 52.3804C55.8801 53.0175 56.2326 53.8709 56.2326 54.7835C56.2326 55.696 55.8801 56.5494 55.2378 57.1889C54.5987 57.8269 53.7426 58.1783 52.8271 58.1783C51.9102 58.1783 51.0514 57.826 50.4114 57.1889L48.0854 54.8665L48.0838 54.8649L44.0152 50.8027C43.3738 50.1622 43.0206 49.3067 43.0206 48.394C43.0206 47.4816 43.3738 46.6259 44.015 45.9856ZM39.9711 58.1511C40.6132 57.51 41.4713 57.1569 42.3873 57.1569C43.303 57.1569 44.1609 57.5098 44.8028 58.1505L47.132 60.4761C47.7721 61.1131 48.1243 61.9666 48.1243 62.8792C48.1243 63.7919 47.7718 64.6451 47.1272 65.2871C46.4883 65.9267 45.6323 66.2791 44.7165 66.2791C43.8006 66.2791 42.9445 65.9269 42.3011 65.2825L42.0094 64.9921C42.0055 64.9882 42.0025 64.9841 41.9988 64.9804L41.9854 64.9684L39.9734 62.9649C38.6457 61.6349 38.6445 59.4756 39.9711 58.1511ZM87.2882 84.5301C86.3819 83.623 84.9116 83.6223 84.0046 84.528L81.9389 86.5905C79.976 88.5527 76.4193 88.3057 72.9797 88.0671C69.2445 87.8076 65.3821 87.5398 62.8826 90.1049L54.3303 98.6438L32.9437 77.2962L40.5122 69.7439C41.7632 70.5105 43.2067 70.9214 44.717 70.9214C46.8747 70.9214 48.8981 70.0853 50.4093 68.5718C51.9307 67.0571 52.7688 65.0357 52.7688 62.8794C52.7688 62.8594 52.7674 62.8396 52.7674 62.8195C52.7875 62.8197 52.8075 62.8209 52.8276 62.8209C54.9823 62.8209 57.004 61.9873 58.5174 60.4763C60.0388 58.9617 60.8768 56.94 60.8768 54.784C60.8768 54.7639 60.8755 54.7441 60.8755 54.7241C60.8957 54.7241 60.916 54.7255 60.9366 54.7255C63.0906 54.7255 65.1135 53.8928 66.6369 52.3761C68.2185 50.7925 69.0008 48.7077 68.9858 46.6273C69.0066 46.6275 69.0273 46.6286 69.0481 46.6286C71.2058 46.6284 73.2289 45.7925 74.7425 44.2767C76.2593 42.7623 77.0948 40.7415 77.0948 38.5867C77.0948 37.0796 76.6848 35.639 75.9206 34.391L82.5542 27.7625C83.0307 27.2878 83.6371 26.9648 84.297 26.8342C84.3661 26.8268 84.4344 26.8157 84.5019 26.8023C85.527 26.6611 86.6034 26.9773 87.3873 27.7576C88.715 29.0872 88.715 31.2504 87.3921 32.5751L85.3718 34.5864C85.3651 34.5931 85.358 34.5991 85.3513 34.6058L83.0243 36.928C82.1169 37.8337 82.116 39.3034 83.0223 40.2103C83.9288 41.1174 85.3988 41.1181 86.3058 40.2124L88.3342 38.1875L88.3355 38.1861L88.6422 37.8807C89.9736 36.562 92.1307 36.5648 93.4607 37.8925C94.1007 38.5295 94.4532 39.3829 94.4532 40.2956C94.4532 41.208 94.1007 42.0614 93.4556 42.7035L91.4238 44.7388L91.4231 44.7397L89.0964 47.0562C88.1878 47.9607 88.1848 49.4304 89.0897 50.3385C89.9946 51.2468 91.4646 51.2495 92.3732 50.3452L94.7105 48.0181C95.3494 47.3784 96.2054 47.0262 97.1212 47.0262C98.0372 47.0262 98.8934 47.3784 99.5369 48.0227C100.177 48.66 100.529 49.5134 100.529 50.4261C100.529 51.3385 100.177 52.1919 99.5332 52.8326L95.4824 56.8836C94.5759 57.7902 94.5761 59.2597 95.4829 60.1659C95.6982 60.3817 95.9541 60.5528 96.2358 60.6694C96.5175 60.786 96.8195 60.8458 97.1244 60.8453C97.7188 60.8453 98.3131 60.6185 98.7664 60.1652L100.752 58.18C100.763 58.1691 100.775 58.1597 100.786 58.1484C101.425 57.5086 102.281 57.1564 103.197 57.1564C104.113 57.1564 104.969 57.5086 105.61 58.1507C106.937 59.4752 106.936 61.6347 105.61 62.9617L103.592 64.9772L103.59 64.9792L103.587 64.9815L100.384 68.1802C99.4765 69.0862 99.4756 70.5559 100.382 71.4628C100.597 71.6789 100.853 71.8503 101.135 71.9672C101.417 72.084 101.719 72.144 102.025 72.1436C102.618 72.1436 103.212 71.9173 103.665 71.4649L105.232 69.9002L112.743 77.3994L91.3583 98.7505L83.6962 91.1003C84.247 90.7472 84.7583 90.3359 85.2213 89.8735L87.2858 87.8122C88.1935 86.9067 88.1944 85.437 87.2882 84.5301ZM126.269 87.4045L101.383 112.251C100.801 112.833 100.022 113.153 99.1892 113.153C98.3565 113.153 97.5772 112.833 96.9948 112.251L92.8917 108.155C92.3103 107.574 91.99 106.798 91.99 105.968C91.99 105.138 92.3103 104.361 92.8917 103.781L117.778 78.9339C118.36 78.3524 119.139 78.0323 119.972 78.0323C120.805 78.0323 121.584 78.3524 122.168 78.9353L126.27 83.024C126.851 83.6046 127.171 84.3822 127.171 85.2142C127.171 86.0464 126.851 86.8242 126.269 87.4045ZM41.9626 13.0376C42.1779 13.2529 42.4336 13.4237 42.7151 13.54C42.9965 13.6564 43.2982 13.7161 43.6028 13.7156C44.1976 13.7156 44.7926 13.4884 45.2461 13.0342C46.152 12.1268 46.1506 10.6573 45.2429 9.75182L36.7821 1.31091C35.8747 0.405394 34.4044 0.406547 33.4986 1.31413C32.5928 2.22149 32.5941 3.69095 33.5018 4.59647L41.9626 13.0376ZM101.985 13.7156C102.579 13.7156 103.173 13.4893 103.626 13.0369L112.081 4.59577C112.988 3.69003 112.989 2.22033 112.082 1.31344C111.176 0.406547 109.706 0.405625 108.799 1.3116L100.345 9.75274C99.4373 10.6585 99.4364 12.1282 100.343 13.0351C100.558 13.2512 100.814 13.4225 101.096 13.5393C101.378 13.6561 101.68 13.7161 101.985 13.7156Z" fill="#6B635C"/>
<path d="M28.4617 99.8402C27.5628 100.754 27.5753 102.224 28.4899 103.122L28.4966 103.129C28.9289 103.555 29.5119 103.794 30.1192 103.793C30.7202 103.793 31.3213 103.561 31.7766 103.098C32.6755 102.184 32.6596 100.711 31.7453 99.812C30.8311 98.9134 29.3611 98.9261 28.4617 99.8402ZM92.9671 81.1867C93.3203 81.1867 93.6786 81.1063 94.015 80.9369C95.1599 80.3596 95.6199 78.9639 95.0425 77.8193C94.465 76.6748 93.0686 76.2148 91.9239 76.7921L91.911 76.7986C90.766 77.3759 90.3126 78.7684 90.8899 79.9129C91.2975 80.7214 92.1173 81.1867 92.9671 81.1867Z" fill="#6B635C"/>
</svg>
