<svg width="94" height="94" viewBox="0 0 94 94" fill="none" xmlns="http://www.w3.org/2000/svg">
<g opacity="0.51">
<path fill-rule="evenodd" clip-rule="evenodd" d="M35.1012 72.3368C23.5744 63.5047 9 50.7945 9 37C9 13.9543 33 5.49996 47 19.5C61 5.00001 85 13.9542 85 36.9999C85 50.7943 70.4217 63.5047 58.8988 72.3368C53.6818 76.3318 51.0733 78.3332 47 78.3332C42.9267 78.3332 40.3182 76.3357 35.1012 72.3368Z" fill="#FFE6C0"/>
</g>
<path fill-rule="evenodd" clip-rule="evenodd" d="M38.1392 65.868C29.5555 59.2909 17.8334 48.4263 17.8334 38.1538C17.8334 20.9921 33.875 14.5842 47 27.8375C60.125 14.5842 76.1667 20.9921 76.1667 38.1538C76.1667 48.4263 64.4417 59.2909 55.8609 65.868C51.9759 68.843 50.0334 70.3334 47 70.3334C43.9667 70.3334 42.0242 68.8459 38.1392 65.868Z" fill="#AB8F7F"/>
<path d="M40.952 55V52.375L47.702 46C48.2353 45.5167 48.627 45.0833 48.877 44.7C49.127 44.3167 49.2936 43.9667 49.377 43.65C49.477 43.3333 49.527 43.0417 49.527 42.775C49.527 42.075 49.2853 41.5417 48.802 41.175C48.3353 40.7917 47.6436 40.6 46.727 40.6C45.9936 40.6 45.3103 40.7417 44.677 41.025C44.0603 41.3083 43.5353 41.75 43.102 42.35L40.152 40.45C40.8186 39.45 41.752 38.6583 42.952 38.075C44.152 37.4917 45.5353 37.2 47.102 37.2C48.402 37.2 49.5353 37.4167 50.502 37.85C51.4853 38.2667 52.2436 38.8583 52.777 39.625C53.327 40.3917 53.602 41.3083 53.602 42.375C53.602 42.9417 53.527 43.5083 53.377 44.075C53.2436 44.625 52.9603 45.2083 52.527 45.825C52.1103 46.4417 51.4936 47.1333 50.677 47.9L45.077 53.175L44.302 51.7H54.177V55H40.952Z" fill="white"/>
</svg>
