<svg width="94.000000" height="94.000000" viewBox="0 0 94 94" fill="none" xmlns="http://www.w3.org/2000/svg" xmlns:xlink="http://www.w3.org/1999/xlink">
	<desc>
			Created with Pixso.
	</desc>
	<defs>
		<clipPath id="clip280_10295">
			<rect id="solar:health-bold" width="94.000000" height="94.000000" fill="white" fill-opacity="0"/>
		</clipPath>
		<clipPath id="clip280_10297">
			<rect id="solar:health-bold" width="70.000000" height="70.000000" transform="translate(12.000000 12.000000)" fill="white" fill-opacity="0"/>
		</clipPath>
	</defs>
	<g opacity="0.510000">
		<rect id="solar:health-bold" width="94.000000" height="94.000000" fill="#FFFFFF" fill-opacity="0"/>
		<g clip-path="url(#clip280_10295)">
			<path id="Vector" d="M35.1012 72.3372C23.5745 63.5049 9 50.7947 9 37.0002C9 13.9546 33 5.50024 47 19.5002C61 5.00024 85 13.9543 85 37C85 50.7947 70.4216 63.5049 58.8988 72.3372C53.6819 76.332 51.0734 78.3335 47 78.3335C42.9266 78.3335 40.3181 76.3359 35.1012 72.3372Z" fill="#AB8F7F" fill-opacity="1.000000" fill-rule="evenodd"/>
		</g>
	</g>
	<rect id="solar:health-bold" width="70.000000" height="70.000000" transform="translate(12.000000 12.000000)" fill="#FFFFFF" fill-opacity="0"/>
	<g clip-path="url(#clip280_10297)">
		<path id="Vector" d="M38.1392 65.8679C29.5554 59.2908 17.8334 48.4263 17.8334 38.1538C17.8334 20.9922 33.875 14.5842 47 27.8376C60.125 14.5842 76.1667 20.9922 76.1667 38.1538C76.1667 48.4263 64.4417 59.2908 55.8608 65.8679C51.9758 68.843 50.0333 70.3335 47 70.3335C43.9667 70.3335 42.0242 68.8459 38.1392 65.8679Z" fill="#FFE6C0" fill-opacity="1.000000" fill-rule="evenodd"/>
		<path id="1" d="M49.827 37.5012L49.827 55L45.7743 55L45.7743 40.7483L42.277 40.7483L42.277 37.5012L49.827 37.5012Z" fill="#3D3A38" fill-opacity="1.000000" fill-rule="evenodd"/>
	</g>
</svg>
