<svg width="627" height="418" viewBox="0 0 627 418" fill="none" xmlns="http://www.w3.org/2000/svg">
<path fill-rule="evenodd" clip-rule="evenodd" d="M149.542 79.7088C81.49 130.077 132.881 137.145 124.852 164.157C122.068 173.525 108.382 179.286 105.723 181.431C36.4965 237.298 53.7682 308.362 118.594 337.514C180.72 365.45 602.926 369.888 547.998 192.56C532.062 141.116 460.375 144.057 452.688 90.8853C450.944 78.8277 471.726 45.4704 439.432 33.7405C365.049 6.72351 223.449 25.0085 149.542 79.7088ZM156.258 31.067L161.34 27.9086C172.975 20.6772 203.261 13.4893 207.929 30.0663C214.947 54.985 129.034 57.2463 156.258 31.067Z" fill="#FFE6C0"/>
<path fill-rule="evenodd" clip-rule="evenodd" d="M105.859 51.8496C90.6226 52.2526 77.336 60.4688 69.8546 72.6359L105.859 51.8496ZM66.7213 78.7788L112.75 52.2049C115.406 52.5527 117.987 53.1387 120.468 53.9421L64.3747 86.3279C64.9306 83.7179 65.7223 81.194 66.7213 78.7788ZM63.6331 91.0906L124.965 55.681C126.886 56.5488 128.733 57.552 130.493 58.6781L63.4576 97.3815C63.4308 96.7403 63.4158 96.0974 63.4158 95.4495C63.4166 93.9782 63.4902 92.5244 63.6331 91.0906ZM63.8338 101.506L133.871 61.0707C135.355 62.2319 136.763 63.4876 138.086 64.8277L64.9741 107.038C64.4792 105.238 64.0971 103.392 63.8338 101.506ZM66.1553 110.69L140.66 67.6751C141.803 69.0587 142.863 70.5141 143.832 72.0332L68.3498 115.613C67.5214 114.026 66.7874 112.384 66.1553 110.69ZM70.2342 118.868C71.2031 120.387 72.264 121.843 73.4076 123.226L147.909 80.2126C147.277 78.5188 146.543 76.8761 145.713 75.2894L70.2342 118.868ZM75.9809 126.073C77.3034 127.414 78.7112 128.669 80.196 129.83L150.231 89.3952C149.969 87.51 149.585 85.6641 149.09 83.8642L75.9809 126.073ZM83.5734 132.222C85.3323 133.348 87.1791 134.35 89.0994 135.217L150.435 99.8042C150.577 98.3722 150.651 96.92 150.651 95.4495C150.651 94.8041 150.634 94.1604 150.606 93.52L83.5734 132.222ZM93.6054 136.958C96.0875 137.76 98.6665 138.346 101.32 138.694L147.35 112.119C148.349 109.705 149.138 107.184 149.694 104.576L93.6054 136.958ZM108.208 139.051L144.213 118.263C136.732 130.432 123.444 138.648 108.208 139.051Z" fill="#FFE6C0"/>
<path fill-rule="evenodd" clip-rule="evenodd" d="M482.249 39.5527C465.251 40.0025 450.426 49.1684 442.078 62.745L482.249 39.5527ZM438.583 69.5969L489.938 39.9473C492.901 40.3361 495.78 40.9898 498.55 41.8868L435.965 78.0204C436.585 75.1078 437.467 72.2922 438.583 69.5969ZM435.137 83.3332L503.567 43.8264C505.71 44.7945 507.771 45.9139 509.736 47.1704L434.943 90.3523C434.912 89.6383 434.895 88.9194 434.895 88.1971C434.895 86.556 434.978 84.9333 435.137 83.3332ZM435.362 94.9553L513.504 49.8397C515.161 51.1347 516.731 52.535 518.207 54.0314L436.634 101.127C436.081 99.1186 435.654 97.0587 435.362 94.9553ZM437.951 105.201L521.077 57.2091C522.353 58.7523 523.536 60.3767 524.616 62.0712L440.399 110.694C439.474 108.924 438.655 107.091 437.951 105.201ZM442.502 114.325C443.583 116.02 444.766 117.644 446.042 119.188L529.166 71.197C528.461 69.3076 527.642 67.4743 526.716 65.7053L442.502 114.325ZM448.913 122.364C450.388 123.86 451.959 125.261 453.616 126.556L531.756 81.4422C531.463 79.338 531.036 77.2797 530.482 75.2708L448.913 122.364ZM457.383 129.225C459.348 130.481 461.407 131.6 463.549 132.567L531.984 93.0559C532.143 91.4575 532.225 89.8365 532.225 88.1962C532.225 87.4756 532.206 86.7575 532.174 86.0444L457.383 129.225ZM468.577 134.509C471.345 135.404 474.223 136.059 477.184 136.446L528.541 106.795C529.656 104.102 530.536 101.288 531.157 98.3787L468.577 134.509ZM484.869 136.844L525.043 113.65C516.695 127.227 501.869 136.394 484.869 136.844Z" fill="#FFE6C0"/>
<path fill-rule="evenodd" clip-rule="evenodd" d="M118.322 288.187C82.5735 277.382 61.4519 258.319 56.4259 248.431C50.4125 236.597 57.5144 228.696 76.6604 237.867C48.6436 213.237 38.5087 179.202 75.0018 201.822C42.4003 161.47 50.701 148.217 74.8915 169.073C52.9523 103.976 89.0516 104.32 88.9179 167.3C95.9068 143.447 115.549 146.672 102.056 197.191C124.02 157.913 128.319 209.498 110.337 235.112C120.271 221.077 124.979 217.863 128.981 220.327C137.443 225.537 135.029 257.939 118.322 288.187Z" fill="#6B635C"/>
<path fill-rule="evenodd" clip-rule="evenodd" d="M78.7511 151.017C78.6967 150.666 78.9367 150.337 79.2886 150.283C79.6389 150.229 79.9683 150.469 80.0226 150.82C81.9195 162.886 84.8455 180.845 90.6933 203.964C96.5378 227.067 105.302 255.307 118.873 287.927C119.009 288.255 118.854 288.634 118.525 288.77C118.196 288.907 117.819 288.75 117.683 288.422C104.082 255.733 95.2997 227.431 89.4427 204.278C83.5882 181.138 80.6538 163.123 78.7511 151.017Z" fill="#AB8F7F"/>
<path fill-rule="evenodd" clip-rule="evenodd" d="M65.0192 173.115C64.8336 172.813 64.9305 172.416 65.2332 172.23C65.5366 172.044 65.9337 172.141 66.1193 172.445C66.1444 172.487 74.9759 187.13 89.4404 199.43C89.7112 199.66 89.7455 200.066 89.5165 200.338C89.2866 200.61 88.8794 200.643 88.6086 200.413C73.9811 187.976 65.0459 173.159 65.0192 173.115Z" fill="#AB8F7F"/>
<path fill-rule="evenodd" clip-rule="evenodd" d="M58.8594 199.719C58.6838 199.409 58.7925 199.016 59.101 198.841C59.4112 198.665 59.8041 198.774 59.9796 199.083C62.5687 203.654 68.4776 210.634 76.4304 217.376C82.6461 222.647 90.1007 227.761 98.1773 231.45C98.5008 231.596 98.643 231.978 98.495 232.301C98.3479 232.624 97.9658 232.766 97.6431 232.619C89.4444 228.875 81.8904 223.695 75.5986 218.359C67.5279 211.519 61.5103 204.399 58.8594 199.719Z" fill="#AB8F7F"/>
<path fill-rule="evenodd" clip-rule="evenodd" d="M62.7283 243.074C62.4541 242.847 62.414 242.442 62.6397 242.168C62.8654 241.894 63.2709 241.854 63.5451 242.08C68.9506 246.514 77.1434 251.874 86.2868 255.957C93.3618 259.115 101.003 261.505 108.353 262.096C108.708 262.124 108.973 262.434 108.946 262.79C108.918 263.145 108.608 263.409 108.253 263.383C100.748 262.778 92.9631 260.346 85.7626 257.132C76.5064 253 68.2083 247.567 62.7283 243.074Z" fill="#AB8F7F"/>
<path fill-rule="evenodd" clip-rule="evenodd" d="M95.1878 164.937C95.2263 164.583 95.5456 164.328 95.8993 164.366C96.2537 164.405 96.5079 164.725 96.4694 165.078C95.8098 171.049 94.682 176.468 93.2734 181.117C91.7402 186.177 89.87 190.327 87.9021 193.289C87.7056 193.586 87.3052 193.667 87.0092 193.471C86.7133 193.275 86.6322 192.875 86.8278 192.579C88.7322 189.712 90.548 185.677 92.042 180.745C93.428 176.174 94.5366 170.835 95.1878 164.937Z" fill="#AB8F7F"/>
<path fill-rule="evenodd" clip-rule="evenodd" d="M111.497 196.061C111.558 195.71 111.893 195.475 112.245 195.536C112.596 195.597 112.83 195.932 112.769 196.283C112.092 200.091 109.91 206.225 106.306 212.194C103.609 216.663 100.106 221.055 95.8323 224.332C95.5497 224.548 95.1459 224.494 94.9294 224.211C94.7137 223.928 94.768 223.524 95.0506 223.308C99.1788 220.141 102.577 215.877 105.202 211.527C108.718 205.703 110.843 199.745 111.497 196.061Z" fill="#AB8F7F"/>
<path fill-rule="evenodd" clip-rule="evenodd" d="M124.404 231.023C124.465 230.673 124.8 230.438 125.151 230.499C125.501 230.56 125.736 230.894 125.675 231.246C125.045 234.79 121.92 240.078 117.831 244.817C114.134 249.1 109.63 252.966 105.45 254.719C105.12 254.854 104.743 254.7 104.608 254.37C104.471 254.041 104.627 253.664 104.955 253.527C108.94 251.857 113.275 248.125 116.856 243.974C120.805 239.399 123.813 234.35 124.404 231.023Z" fill="#7DA9B6"/>
<path fill-rule="evenodd" clip-rule="evenodd" d="M90.4586 267.023C100.109 286.982 137.737 290.215 123.277 314.665C110.36 336.505 79.2328 317.006 68.0296 301.666C49.5222 276.33 55.5481 257.764 42.5926 233.401C35.3529 219.787 65.6821 215.783 81.1632 247.799L90.4586 267.023Z" fill="#AB8F7F"/>
<path fill-rule="evenodd" clip-rule="evenodd" d="M49.2573 231.919C48.9563 231.73 48.8627 231.334 49.0508 231.031C49.2389 230.729 49.636 230.636 49.9394 230.823C65.678 240.626 69.5428 251.396 73.9092 263.57C75.3655 267.629 76.8795 271.847 78.9244 276.251C83.1002 285.234 89.886 293.766 99.4532 301.171C108.317 308.032 119.567 313.928 133.334 318.324C133.672 318.432 133.86 318.793 133.752 319.131C133.645 319.469 133.282 319.657 132.944 319.549C119.024 315.105 107.641 309.138 98.6665 302.19C88.9271 294.652 82.0134 285.957 77.754 276.791C75.6983 272.366 74.1701 268.105 72.6987 264.003C68.4125 252.056 64.6196 241.486 49.2573 231.919Z" fill="#6B635C"/>
<path fill-rule="evenodd" clip-rule="evenodd" d="M62.9124 233.015C62.6892 232.738 62.7326 232.332 63.0102 232.11C63.2869 231.887 63.6924 231.931 63.9164 232.208C72.136 242.475 71.0316 254.619 71.0283 254.653C71.0015 255.009 70.6897 255.274 70.3361 255.246C70.255 255.239 70.1806 255.219 70.112 255.188C69.424 254.902 54.0132 248.519 51.5812 246.609C51.3012 246.389 51.2527 245.984 51.4734 245.704C51.6933 245.424 52.0987 245.375 52.3779 245.595C54.3944 247.179 66.462 252.268 69.7843 253.655C69.852 250.743 69.5084 241.255 62.9124 233.015Z" fill="#6B635C"/>
<path fill-rule="evenodd" clip-rule="evenodd" d="M80.5814 255.668C80.5287 255.316 80.7712 254.987 81.1231 254.933C81.4751 254.88 81.8036 255.124 81.8571 255.476C83.7373 267.97 79.936 279.816 79.9251 279.85C79.8173 280.189 79.4561 280.376 79.1184 280.27L58.0646 271.898C57.7343 271.767 57.573 271.393 57.7034 271.064C57.8347 270.733 58.2083 270.571 58.5386 270.702L78.896 278.798C79.6409 276.177 82.1606 266.164 80.5814 255.668Z" fill="#6B635C"/>
<path fill-rule="evenodd" clip-rule="evenodd" d="M93.2993 275.262C93.2425 274.911 93.4807 274.58 93.8318 274.523C94.183 274.466 94.5132 274.704 94.57 275.055C96.7545 288.275 93.9765 296.698 93.9681 296.722C93.8854 296.986 93.6471 297.157 93.3871 297.169C93.3436 297.173 78.5974 297.975 70.015 294.503C69.6857 294.371 69.526 293.996 69.6572 293.666C69.7902 293.336 70.1639 293.177 70.4949 293.308C77.9512 296.323 90.3516 296.005 92.8704 295.905C93.3771 294.075 95.1519 286.471 93.2993 275.262Z" fill="#6B635C"/>
<path fill-rule="evenodd" clip-rule="evenodd" d="M107.405 289.498C107.304 289.156 107.498 288.797 107.84 288.696C108.181 288.595 108.541 288.788 108.642 289.131C113.031 303.86 112.012 309.207 112.008 309.223C111.957 309.501 111.736 309.703 111.471 309.742C111.425 309.751 95.6445 312.217 83.0677 309.366C82.7208 309.288 82.5034 308.943 82.5812 308.597C82.6598 308.25 83.0034 308.033 83.3503 308.109C94.4173 310.618 108.078 308.919 110.795 308.539C110.92 307.023 110.987 301.518 107.405 289.498Z" fill="#6B635C"/>
<path fill-rule="evenodd" clip-rule="evenodd" d="M482.379 220.547C481.08 249.99 436.834 273.705 467.335 295.961C494.58 315.843 522.343 275.683 527.965 251.066C537.251 210.408 520.142 190.904 523.162 154.35C524.849 133.922 485.714 144.966 483.63 192.191L482.379 220.547Z" fill="#AB8F7F"/>
<path fill-rule="evenodd" clip-rule="evenodd" d="M513.012 155.182C513.216 154.889 513.618 154.817 513.91 155.021C514.202 155.224 514.275 155.627 514.071 155.919C500.298 175.731 501.222 190.666 502.267 207.546C502.624 213.306 502.996 219.291 502.809 225.795C502.425 239.192 498.56 253.409 490.646 267.697C483.346 280.876 472.599 294.121 457.958 306.843C457.689 307.076 457.281 307.046 457.05 306.777C456.818 306.509 456.847 306.102 457.115 305.87C471.636 293.251 482.29 280.125 489.521 267.071C497.331 252.97 501.144 238.956 501.523 225.76C501.707 219.331 501.338 213.364 500.982 207.622C499.922 190.504 498.985 175.36 513.012 155.182Z" fill="#6B635C"/>
<path fill-rule="evenodd" clip-rule="evenodd" d="M496.705 164.154C496.797 163.811 497.151 163.609 497.492 163.703C497.836 163.795 498.036 164.149 497.944 164.491C494.092 178.472 499.049 190.577 500.535 193.734C503.516 190.658 516.127 177.565 517.807 174.481C517.977 174.169 518.368 174.054 518.68 174.224C518.992 174.393 519.107 174.784 518.937 175.096C516.942 178.758 500.872 195.242 500.826 195.287C500.778 195.332 500.727 195.372 500.667 195.405C500.354 195.571 499.964 195.453 499.797 195.14C499.774 195.099 492.084 180.92 496.705 164.154Z" fill="#6B635C"/>
<path fill-rule="evenodd" clip-rule="evenodd" d="M487.023 201.875C486.933 201.531 487.138 201.179 487.481 201.089C487.826 200.998 488.177 201.204 488.268 201.548C491.944 215.541 500.61 226.663 502.667 229.166L523.437 208.42C523.689 208.17 524.097 208.17 524.349 208.423C524.599 208.675 524.598 209.082 524.345 209.333L503.047 230.604C502.778 230.836 502.371 230.807 502.138 230.538C502.107 230.502 491.278 218.076 487.023 201.875Z" fill="#6B635C"/>
<path fill-rule="evenodd" clip-rule="evenodd" d="M481.783 232.462C481.698 232.117 481.909 231.768 482.255 231.682C482.6 231.597 482.949 231.808 483.035 232.154C486.747 247.164 493.123 255.591 494.542 257.332C497.315 256.275 513.041 250.061 520.716 242.305C520.966 242.053 521.374 242.052 521.626 242.303C521.878 242.553 521.88 242.961 521.629 243.213C513.172 251.76 495.316 258.421 494.591 258.689C494.341 258.795 494.042 258.732 493.855 258.518C493.831 258.493 486.049 249.707 481.783 232.462Z" fill="#6B635C"/>
<path fill-rule="evenodd" clip-rule="evenodd" d="M472.002 257.065C471.962 256.711 472.216 256.392 472.569 256.351C472.923 256.311 473.242 256.566 473.283 256.918C475.281 273.962 478.385 280.594 479.253 282.173C482.354 281.331 500.34 276.202 512.768 267.154C513.054 266.946 513.456 267.008 513.665 267.296C513.874 267.583 513.811 267.985 513.524 268.194C499.699 278.257 479.169 283.527 479.109 283.543C478.849 283.609 478.567 283.508 478.411 283.273C478.398 283.257 474.374 277.307 472.002 257.065Z" fill="#6B635C"/>
<path fill-rule="evenodd" clip-rule="evenodd" d="M413.153 359.005C407.031 364.556 401.871 364.534 394.026 368.034C386.145 371.539 396.497 373.08 400.399 373.051C410.772 372.975 421.433 372.26 424.72 371.529C427.052 370.533 424.164 363.234 423.983 359.843L413.153 359.005Z" fill="#313543"/>
<path fill-rule="evenodd" clip-rule="evenodd" d="M412.516 350.173L413.152 359.004C412.784 365.131 422.151 364.917 423.961 359.885L425.145 351.314L412.516 350.173Z" fill="#E1A679"/>
<path fill-rule="evenodd" clip-rule="evenodd" d="M500.031 350.676C499.389 354.851 497.846 359.402 496.31 362.546C494.976 365.276 491.599 366.903 489.919 368.281C488.469 369.473 487.48 370.526 487.975 371.402C489.272 373.694 499.552 373.741 503.294 370.185C507.683 366.015 512.467 357.247 513.88 355.463C516.526 352.126 510.432 347.282 508.318 344.948L500.031 350.676Z" fill="#313543"/>
<path fill-rule="evenodd" clip-rule="evenodd" d="M426.913 217.188C416.949 251.931 413.15 279.83 412.06 289.253C410.969 298.677 411.239 324.538 410.291 356.265C413.65 359.604 423.242 358.947 427.688 356.407L433.139 295.014C443.026 259.692 448.318 253.592 457.382 220.006L426.913 217.188Z" fill="#4B4E58"/>
<path fill-rule="evenodd" clip-rule="evenodd" d="M494.335 344.92L500.031 350.676C500.031 350.676 504.45 352.098 506.91 349.91C509.371 347.724 508.318 344.948 508.318 344.948L504.041 338.291L494.335 344.92Z" fill="#E1A679"/>
<path fill-rule="evenodd" clip-rule="evenodd" d="M444.08 219.469C452.222 266.875 455.09 288.217 460.432 301.023C465.702 313.653 472.711 322.312 493.019 349.242C501.028 349.416 506.539 345.672 508.773 339.677L479.935 287.855C476.78 263.049 481.218 238.316 477.35 215.387L444.08 219.469Z" fill="#4B4E58"/>
<path fill-rule="evenodd" clip-rule="evenodd" d="M446.052 234.18C446.021 233.993 446.146 233.818 446.331 233.787C446.518 233.757 446.693 233.881 446.724 234.068C447.269 237.331 448.034 240.818 448.665 243.694C449.02 245.314 449.333 246.74 449.546 247.854C449.58 248.039 449.459 248.217 449.273 248.251C449.088 248.285 448.91 248.164 448.875 247.979C448.674 246.917 448.357 245.477 447.997 243.838C447.366 240.964 446.602 237.478 446.052 234.18Z" fill="#313543"/>
<path fill-rule="evenodd" clip-rule="evenodd" d="M441.012 241.722C440.882 241.586 440.886 241.37 441.023 241.241C441.158 241.112 441.373 241.117 441.503 241.252C441.513 241.265 445.416 245.295 449.382 247.623C449.544 247.719 449.598 247.927 449.504 248.089C449.409 248.251 449.2 248.307 449.038 248.211C444.995 245.838 441.024 241.733 441.012 241.722Z" fill="#313543"/>
<path fill-rule="evenodd" clip-rule="evenodd" d="M488.509 328.769C517.287 330.985 537.837 323.16 544.225 317.442C551.869 310.6 548.963 302.919 532.603 304.172C559.678 294.264 576.502 272.58 543.883 278.666C578.66 258.716 576.388 246.844 553.125 255.103C587.142 214.342 561.038 204.489 543.514 249.9C545.152 230.76 530.099 227.588 525.686 267.76C520.852 233.317 503.323 269.279 509.112 292.763C505.881 279.873 503.389 276.24 499.815 276.896C492.26 278.282 484.934 302.301 488.509 328.769Z" fill="#6B635C"/>
<path fill-rule="evenodd" clip-rule="evenodd" d="M554.407 240.441C554.585 240.134 554.98 240.028 555.287 240.207C555.595 240.385 555.699 240.779 555.52 241.087C550.765 249.274 543.613 261.427 532.908 276.48C522.207 291.528 507.957 309.467 489.008 329.217C488.762 329.474 488.354 329.48 488.097 329.234C487.842 328.989 487.835 328.58 488.081 328.324C506.98 308.625 521.188 290.737 531.86 275.732C542.527 260.733 549.662 248.608 554.407 240.441Z" fill="#AB8F7F"/>
<path fill-rule="evenodd" clip-rule="evenodd" d="M558.411 259.869C558.694 259.653 559.098 259.709 559.314 259.991C559.53 260.272 559.476 260.677 559.192 260.894C559.162 260.916 548.561 269.106 534.522 273.982C534.187 274.099 533.819 273.922 533.703 273.586C533.586 273.25 533.764 272.883 534.099 272.766C547.94 267.958 558.381 259.892 558.411 259.869Z" fill="#AB8F7F"/>
<path fill-rule="evenodd" clip-rule="evenodd" d="M555.379 280.78C555.654 280.556 556.06 280.599 556.284 280.875C556.509 281.151 556.467 281.555 556.191 281.779C552.963 284.418 546.62 287.872 538.873 290.55C532.831 292.638 525.926 294.261 518.96 294.666C518.605 294.685 518.302 294.412 518.282 294.057C518.263 293.703 518.536 293.398 518.89 293.379C525.729 292.983 532.515 291.388 538.453 289.334C546.05 286.709 552.244 283.344 555.379 280.78Z" fill="#AB8F7F"/>
<path fill-rule="evenodd" clip-rule="evenodd" d="M540.83 310.733C541.167 310.623 541.531 310.809 541.642 311.146C541.752 311.484 541.566 311.849 541.227 311.959C536.014 313.666 528.502 315.26 520.661 315.647C514.561 315.95 508.256 315.523 502.664 313.853C502.323 313.751 502.128 313.392 502.23 313.052C502.331 312.711 502.69 312.517 503.031 312.618C508.475 314.242 514.634 314.657 520.601 314.363C528.313 313.98 535.701 312.412 540.83 310.733Z" fill="#7DA9B6"/>
<path fill-rule="evenodd" clip-rule="evenodd" d="M538.554 246.151C538.644 245.807 538.996 245.602 539.341 245.692C539.683 245.781 539.889 246.135 539.8 246.479C538.622 250.897 537.929 255.046 537.649 258.722C537.348 262.681 537.526 266.083 538.092 268.666C538.167 269.014 537.945 269.357 537.598 269.433C537.25 269.508 536.906 269.286 536.832 268.939C536.239 266.239 536.051 262.712 536.363 258.626C536.649 254.88 537.355 250.651 538.554 246.151Z" fill="#AB8F7F"/>
<path fill-rule="evenodd" clip-rule="evenodd" d="M518.078 264.083C518.146 263.734 518.485 263.506 518.834 263.575C519.184 263.642 519.411 263.982 519.343 264.33C518.787 267.154 518.652 272.021 519.552 277.184C520.225 281.039 521.474 285.046 523.55 288.464C523.735 288.766 523.637 289.162 523.333 289.347C523.03 289.53 522.635 289.432 522.451 289.13C520.277 285.553 518.976 281.393 518.281 277.406C517.353 272.078 517.498 267.027 518.078 264.083Z" fill="#AB8F7F"/>
<path fill-rule="evenodd" clip-rule="evenodd" d="M498.998 285.66C499.067 285.311 499.406 285.084 499.755 285.152C500.104 285.22 500.332 285.559 500.263 285.908C499.763 288.445 500.517 292.895 502.073 297.277C503.484 301.25 505.552 305.132 507.938 307.432C508.194 307.678 508.2 308.086 507.955 308.343C507.709 308.6 507.302 308.606 507.045 308.361C504.506 305.91 502.329 301.845 500.858 297.705C499.23 293.128 498.455 288.414 498.998 285.66Z" fill="#AB8F7F"/>
<path fill-rule="evenodd" clip-rule="evenodd" d="M144.746 353.858C119.735 368.264 97.818 370.063 89.5901 367.657C79.7445 364.778 79.054 356.594 94.3561 350.672C65.6562 353.404 41.1272 341.089 73.1844 332.521C33.2035 329.51 30.1371 317.819 54.6887 315.243C6.42228 293.128 25.7289 272.985 61.1159 306.406C51.3882 289.843 63.6038 280.49 84.9018 314.836C74.4175 281.674 105.736 306.567 110.636 330.252C107.995 317.229 108.677 312.877 112.184 311.928C119.598 309.922 136.562 328.437 144.746 353.858Z" fill="#6B635C"/>
<path fill-rule="evenodd" clip-rule="evenodd" d="M46.4834 303.631C46.1899 303.431 46.1139 303.03 46.3145 302.736C46.5143 302.441 46.9156 302.368 47.209 302.567C55.0123 307.891 66.6786 315.758 82.7666 324.693C98.8621 333.631 119.394 343.647 144.94 353.274C145.273 353.4 145.442 353.771 145.316 354.104C145.192 354.437 144.819 354.604 144.487 354.48C118.877 344.827 98.2861 334.783 82.1413 325.817C65.9923 316.848 54.3017 308.966 46.4834 303.631Z" fill="#AB8F7F"/>
<path fill-rule="evenodd" clip-rule="evenodd" d="M51.7084 323.084C51.3606 323.012 51.1374 322.671 51.2093 322.323C51.2812 321.975 51.6231 321.751 51.9709 321.825C52.0076 321.831 64.9054 324.608 79.4694 322.98C79.823 322.941 80.1416 323.196 80.1808 323.551C80.2201 323.904 79.9643 324.222 79.6098 324.261C64.8419 325.912 51.746 323.094 51.7084 323.084Z" fill="#AB8F7F"/>
<path fill-rule="evenodd" clip-rule="evenodd" d="M63.42 340.638C63.0747 340.554 62.8615 340.205 62.946 339.86C63.0296 339.516 63.3773 339.303 63.7226 339.387C67.6526 340.346 74.6934 340.713 82.6848 339.808C88.928 339.099 95.7397 337.613 102.082 335.023C102.412 334.889 102.788 335.047 102.922 335.378C103.056 335.709 102.896 336.085 102.567 336.218C96.1084 338.855 89.1763 340.369 82.8252 341.088C74.6851 342.01 67.4729 341.627 63.42 340.638Z" fill="#AB8F7F"/>
<path fill-rule="evenodd" clip-rule="evenodd" d="M89.9278 361.417C89.5758 361.461 89.2531 361.212 89.2096 360.86C89.1645 360.507 89.4136 360.184 89.7664 360.141C95.111 359.445 102.452 357.676 109.583 354.692C115.097 352.385 120.474 349.357 124.682 345.548C124.944 345.31 125.352 345.33 125.59 345.594C125.827 345.857 125.808 346.263 125.545 346.502C121.213 350.422 115.708 353.526 110.078 355.882C102.841 358.91 95.3726 360.709 89.9278 361.417Z" fill="#7DA9B6"/>
<path fill-rule="evenodd" clip-rule="evenodd" d="M62.9952 301.722C62.7653 301.451 62.7962 301.044 63.0663 300.813C63.3355 300.582 63.7434 300.613 63.9742 300.883C66.9921 304.423 69.4516 307.936 71.3284 311.198C73.3725 314.756 74.7251 318.02 75.3521 320.708C75.4332 321.054 75.2184 321.401 74.8714 321.482C74.5245 321.563 74.1775 321.347 74.0973 321.001C73.4945 318.422 72.1895 315.277 70.2132 311.839C68.379 308.648 65.9647 305.204 62.9952 301.722Z" fill="#AB8F7F"/>
<path fill-rule="evenodd" clip-rule="evenodd" d="M89.1469 309.007C88.9354 308.722 88.9956 308.319 89.2807 308.107C89.5666 307.895 89.9687 307.956 90.181 308.241C91.9743 310.647 94.2825 315.142 95.7396 320.348C96.8314 324.249 97.4517 328.563 97.0321 332.724C96.9978 333.077 96.6826 333.336 96.3281 333.301C95.9754 333.266 95.717 332.951 95.7513 332.597C96.1534 328.614 95.5532 324.462 94.499 320.696C93.0861 315.648 90.8666 311.315 89.1469 309.007Z" fill="#AB8F7F"/>
<path fill-rule="evenodd" clip-rule="evenodd" d="M115.664 320.251C115.453 319.967 115.512 319.563 115.797 319.351C116.083 319.14 116.486 319.199 116.697 319.485C118.374 321.736 119.707 326.323 120.212 331.157C120.668 335.524 120.457 340.13 119.223 343.432C119.099 343.765 118.729 343.935 118.395 343.812C118.063 343.687 117.894 343.317 118.017 342.984C119.178 339.879 119.369 335.484 118.931 331.288C118.449 326.666 117.21 322.326 115.664 320.251Z" fill="#AB8F7F"/>
<path fill-rule="evenodd" clip-rule="evenodd" d="M383.679 79.0801H391.214C398.316 79.0801 404.124 84.8903 404.124 91.9913V109.603H383.679V79.0801Z" fill="#EBEBEB"/>
<path fill-rule="evenodd" clip-rule="evenodd" d="M274.294 79.0801H383.679H393.902C388.278 79.0801 383.679 83.6806 383.679 89.3035V232.121H261.384V91.9913C261.384 84.8903 267.193 79.0801 274.294 79.0801Z" fill="white"/>
<path d="M374.798 90.1943H270.265V221.008H374.798V90.1943Z" fill="#C9E1E0"/>
<path d="M315.231 127.202C315.76 125.021 316.592 123.148 317.726 121.584C318.86 120.021 320.697 118.864 323.237 118.113C324.002 117.874 324.936 117.618 326.04 117.344C327.144 117.07 328.25 116.691 329.358 116.205C330.466 115.72 331.459 115.077 332.338 114.276C333.215 113.476 333.807 112.452 334.109 111.205C334.336 110.27 334.358 109.404 334.175 108.604C333.991 107.806 333.67 107.091 333.21 106.46C332.75 105.831 332.16 105.298 331.441 104.863C330.72 104.43 329.961 104.115 329.158 103.921C328.178 103.683 327.248 103.634 326.365 103.773C325.482 103.913 324.655 104.16 323.887 104.515C323.116 104.871 322.397 105.309 321.729 105.83C321.059 106.352 320.477 106.859 319.98 107.35L315.142 101.932C316.056 100.693 317.121 99.6541 318.338 98.818C319.554 97.9817 320.864 97.3455 322.267 96.9082C323.669 96.4707 325.129 96.2363 326.647 96.2035C328.163 96.1711 329.678 96.3379 331.193 96.7056C332.884 97.1162 334.494 97.7671 336.024 98.6564C337.552 99.5464 338.843 100.685 339.897 102.072C340.951 103.46 341.687 105.088 342.105 106.959C342.523 108.828 342.451 110.921 341.889 113.235C341.543 114.661 341.071 115.878 340.472 116.888C339.874 117.898 339.154 118.772 338.316 119.511C337.474 120.251 336.546 120.873 335.528 121.38C334.508 121.888 333.384 122.345 332.153 122.753C331.133 123.071 330.117 123.368 329.109 123.641C328.099 123.915 327.155 124.262 326.274 124.685C325.394 125.108 324.625 125.653 323.968 126.317C323.311 126.984 322.847 127.873 322.578 128.985L315.231 127.202ZM311.586 142.796L313.824 133.579L321.237 135.379L318.999 144.596L311.586 142.796Z" fill="#AB8F7F"/>
<path fill-rule="evenodd" clip-rule="evenodd" d="M343.629 190.02C354.918 190.02 364.125 180.812 364.125 169.523C364.125 158.233 354.917 149.026 343.629 149.026C332.34 149.026 323.132 158.233 323.132 169.523C323.132 180.812 332.34 190.02 343.629 190.02Z" fill="#E5AE62"/>
<path d="M374.798 173.232H270.265V221.007H374.798V173.232Z" fill="#6B635C"/>
<path fill-rule="evenodd" clip-rule="evenodd" d="M338.579 173.232C323.207 170.602 334.011 172.197 331.265 168.158C328.506 164.099 325.479 172.334 326.77 166.041C327.344 163.251 323.519 159.807 318.998 165.346C317.96 155.954 310.147 154.351 305.48 157.383C305.452 157.323 305.424 157.261 305.391 157.198C302.726 152.08 297.939 161.421 300.389 154.16C301.476 150.94 297.462 146.417 291.304 152.398C291.531 136.066 272.274 137.523 271.386 148.966C271.022 148.514 270.647 148.104 270.266 147.731V173.232L338.579 173.232Z" fill="white"/>
<path fill-rule="evenodd" clip-rule="evenodd" d="M374.798 160.848C374.76 161.316 374.752 161.796 374.784 162.292C368.489 156.413 360.982 159.518 364.158 167.901C356.506 164.88 358.399 171.419 356.684 171.482C354.596 171.56 351.183 172.608 348.85 173.231H356.028C362.263 173.137 368.53 173.059 374.798 172.972V160.848Z" fill="white"/>
<path fill-rule="evenodd" clip-rule="evenodd" d="M213.682 134.231C212.602 143.451 207.751 145.687 203.296 146.752C191.768 149.507 185.092 174.382 200.144 182.956C218.193 193.234 260.152 178.149 254.071 156.398C249.263 139.204 257.585 123.927 236.259 119.316C223.294 116.51 215.166 121.541 213.682 134.231Z" fill="#232733"/>
<path fill-rule="evenodd" clip-rule="evenodd" d="M224.739 159.296C215.006 158.166 207.459 160.276 202.022 171.065C199.167 176.732 198.43 188.204 194.812 195.187H250.27C248.576 169.789 244.409 161.581 224.739 159.296Z" fill="#AB8F7F"/>
<path fill-rule="evenodd" clip-rule="evenodd" d="M268.218 185.171C263.871 179.271 251.748 166.588 237.116 161.649C230.941 164.817 240.151 176.851 245.104 180.462C252.181 182.562 268.218 185.171 268.218 185.171Z" fill="#AB8F7F"/>
<path fill-rule="evenodd" clip-rule="evenodd" d="M225.646 160.632C225.646 160.632 194.251 136.049 182.441 135.014C175.358 134.393 156.067 149.529 149.864 158.124C148.54 159.958 150.411 161.649 150.153 162.67C150.142 162.714 153.777 164.513 156.99 165.743C160.246 166.991 160.344 167.542 163.175 165.531C169.408 161.105 180.519 154.226 181.586 154.868C191.053 160.569 197.605 169.017 205.346 177.726L225.646 160.632Z" fill="#AB8F7F"/>
<path fill-rule="evenodd" clip-rule="evenodd" d="M225.884 172.313C223.087 171.513 219.94 168.928 218.953 165.788C218.063 162.956 217.485 157.603 220.409 156.429C224.933 154.612 238.331 159.636 238.645 162.077C239.143 165.967 233.843 174.594 225.884 172.313Z" fill="#6B635C"/>
<path fill-rule="evenodd" clip-rule="evenodd" d="M181.081 154.752C181.147 154.858 181.115 154.998 181.011 155.065C180.904 155.131 180.763 155.1 180.697 154.994C180.69 154.982 178.222 151.051 179.827 147.187C179.876 147.07 180.009 147.016 180.125 147.065C180.241 147.113 180.296 147.246 180.248 147.361C178.732 151.01 181.075 154.742 181.081 154.752Z" fill="#6B635C"/>
<path fill-rule="evenodd" clip-rule="evenodd" d="M237.896 151.585L235.84 162.842C233.784 174.106 219.83 169.895 221.707 160.325L223.787 149.724L237.896 151.585Z" fill="#E1A679"/>
<path fill-rule="evenodd" clip-rule="evenodd" d="M237.895 151.586L236.01 161.91C232.003 165.054 224.206 163.983 221.956 159.049L223.786 149.725L237.895 151.586Z" fill="#C07452"/>
<path fill-rule="evenodd" clip-rule="evenodd" d="M181.355 155.107C181.353 155.233 181.25 155.333 181.125 155.331C180.999 155.328 180.899 155.224 180.902 155.099C180.902 155.086 180.92 150.45 184.346 148.044C184.448 147.972 184.589 147.997 184.663 148.099C184.734 148.201 184.709 148.344 184.607 148.416C181.374 150.686 181.355 155.095 181.355 155.107Z" fill="#6B635C"/>
<path fill-rule="evenodd" clip-rule="evenodd" d="M158.002 167.588C160.396 171.57 164.464 173.469 164.366 174.469C164.194 176.238 160.204 175.1 158.833 173.884L157.982 183.207C157.681 186.496 155.798 185.933 155.443 183.419L154.811 178.951C154.633 179.204 152.86 179.746 151.9 178.764C150.769 179.146 150.05 178.758 149.216 177.827C148.225 177.264 147.286 178.145 147.017 176.84C146.298 173.364 148.566 168.683 150.869 164.508L158.002 167.588Z" fill="#E1A679"/>
<path fill-rule="evenodd" clip-rule="evenodd" d="M158.239 168.108C158.123 168.17 155.648 166.926 152.335 166.618C150.953 166.489 149.393 167.272 149.216 167.117C148.472 166.572 148.694 166.373 150.234 162.102C150.81 160.502 156.115 161.729 159.069 163.307C160.536 164.092 159.965 164.322 159.491 165.3C159.065 166.181 158.833 167.841 158.239 168.108Z" fill="#6B635C"/>
<path fill-rule="evenodd" clip-rule="evenodd" d="M200.886 175.592C200.841 175.726 200.694 175.799 200.561 175.755C200.425 175.71 200.352 175.565 200.397 175.43C202.07 170.413 202.982 162.36 202.984 162.336C202.999 162.195 203.126 162.093 203.268 162.108C203.409 162.123 203.511 162.25 203.497 162.391C203.493 162.414 202.575 170.521 200.886 175.592Z" fill="#6B635C"/>
<path fill-rule="evenodd" clip-rule="evenodd" d="M204.888 195.186C204.632 195.132 204.491 195.073 204.489 195.009C204.442 193.84 208.209 191.224 214.3 189.708C224.516 187.166 227.286 187.715 230.122 190.598C232.086 192.596 230.348 194.317 229.097 195.186H204.888V195.186Z" fill="#E1A679"/>
<path fill-rule="evenodd" clip-rule="evenodd" d="M219.585 195.186C218.353 193.599 217.537 190.277 217.859 189.247C218.095 188.493 218.316 187.944 223.068 187.589C224.149 191.371 224.505 193.194 225.182 195.186H219.585Z" fill="#6B635C"/>
<path fill-rule="evenodd" clip-rule="evenodd" d="M214.956 138.08C216.803 138.354 218.629 140.784 219.034 143.505C219.44 146.226 218.271 148.209 216.425 147.934C214.578 147.66 212.752 145.23 212.347 142.51C211.941 139.788 213.109 137.805 214.956 138.08Z" fill="#E1A679"/>
<path fill-rule="evenodd" clip-rule="evenodd" d="M214.862 140.691C214.228 140.439 213.521 140.808 213.676 142.431C213.829 144.053 215.051 145.124 215.051 145.124C215.051 145.124 215.37 143.85 216.086 144.015C216.801 144.181 217.192 144.535 217.192 144.535C217.192 144.535 217.102 141.696 214.862 140.691Z" fill="#6B635C"/>
<path fill-rule="evenodd" clip-rule="evenodd" d="M213.742 142.515C213.754 142.612 213.683 142.7 213.586 142.711C213.489 142.722 213.401 142.652 213.39 142.554C213.291 141.695 213.405 141.131 213.645 140.806C213.811 140.581 214.035 140.468 214.289 140.448C214.526 140.428 214.788 140.495 215.053 140.63C215.727 140.97 216.455 141.77 216.847 142.737C217.087 143.326 217.297 144.001 217.347 144.375C217.362 144.491 217.362 144.589 217.344 144.659C217.301 144.83 217.2 144.896 217.033 144.832C216.96 144.805 216.874 144.732 216.773 144.604C216.611 144.4 216.375 144.247 216.132 144.183C215.98 144.143 215.826 144.139 215.69 144.179C215.56 144.22 215.444 144.302 215.357 144.438C215.241 144.618 215.176 144.888 215.192 145.272C215.196 145.369 215.12 145.452 215.023 145.456C214.925 145.46 214.843 145.384 214.839 145.286C214.82 144.825 214.908 144.485 215.059 144.248C215.195 144.036 215.38 143.904 215.588 143.842C215.788 143.782 216.01 143.787 216.223 143.843C216.501 143.916 216.773 144.079 216.976 144.301C216.908 143.938 216.726 143.376 216.52 142.871C216.159 141.983 215.501 141.252 214.895 140.947C214.687 140.841 214.489 140.789 214.318 140.802C214.165 140.814 214.031 140.882 213.931 141.018C213.739 141.272 213.653 141.752 213.742 142.515Z" fill="#232733"/>
<path fill-rule="evenodd" clip-rule="evenodd" d="M249.941 143.289C248.094 143.014 245.639 144.805 244.459 147.291C243.279 149.777 243.819 152.013 245.665 152.289C247.512 152.563 249.967 150.772 251.147 148.287C252.327 145.801 251.788 143.564 249.941 143.289Z" fill="#E1A679"/>
<path fill-rule="evenodd" clip-rule="evenodd" d="M249.27 145.814C249.95 145.758 250.519 146.316 249.899 147.823C249.279 149.332 247.796 150 247.796 150C247.796 150 247.864 148.687 247.131 148.637C246.398 148.587 245.919 148.812 245.919 148.812C245.919 148.812 246.834 146.123 249.27 145.814Z" fill="#6B635C"/>
<path fill-rule="evenodd" clip-rule="evenodd" d="M249.809 147.884C249.771 147.973 249.813 148.078 249.901 148.116C249.991 148.156 250.094 148.114 250.134 148.025C250.479 147.231 250.534 146.658 250.399 146.278C250.305 146.015 250.125 145.841 249.888 145.748C249.666 145.66 249.397 145.648 249.103 145.699C248.359 145.828 247.431 146.382 246.775 147.192C246.372 147.686 245.975 148.269 245.819 148.614C245.77 148.721 245.742 148.813 245.738 148.885C245.73 149.061 245.807 149.154 245.986 149.142C246.064 149.137 246.168 149.092 246.301 149C246.517 148.851 246.786 148.774 247.037 148.783C247.194 148.789 247.343 148.83 247.462 148.908C247.575 148.983 247.662 149.098 247.704 149.252C247.762 149.456 247.745 149.736 247.619 150.098C247.586 150.19 247.634 150.291 247.728 150.323C247.82 150.356 247.92 150.307 247.952 150.215C248.105 149.779 248.121 149.428 248.044 149.157C247.977 148.914 247.838 148.734 247.657 148.615C247.483 148.497 247.271 148.438 247.049 148.431C246.761 148.419 246.454 148.497 246.194 148.649C246.367 148.322 246.703 147.836 247.047 147.414C247.651 146.67 248.493 146.163 249.162 146.046C249.392 146.006 249.598 146.014 249.757 146.076C249.901 146.132 250.01 146.236 250.065 146.396C250.175 146.697 250.117 147.18 249.809 147.884Z" fill="#232733"/>
<path fill-rule="evenodd" clip-rule="evenodd" d="M229.877 160.019C240.493 161.349 246.73 151.291 248.586 135.836C250.596 119.087 219.797 112.798 217.593 131.155C215.737 146.609 219.745 158.529 229.877 160.019Z" fill="#E1A679"/>
<path fill-rule="evenodd" clip-rule="evenodd" d="M218.291 133.274C218.539 133.955 218.92 134.582 219.565 135.025C219.565 135.025 225.649 135.331 229.657 133.17C235.374 130.087 233.334 131.093 237.901 135.583C240.008 137.656 242.428 138.197 244.59 138.101C244.456 138.065 244.319 138.027 244.181 137.987C240.679 136.954 236.163 132.175 234.425 127.446C231.12 131.541 224.927 134.64 221.243 134.104C220.059 133.931 219.081 133.648 218.291 133.274Z" fill="#C07452"/>
<path fill-rule="evenodd" clip-rule="evenodd" d="M244.181 137.987C253.399 140.705 252.654 131.863 248.564 124.986C245.334 119.555 240.016 115.35 235.871 119.03C230.885 109.119 211.338 125.148 216.362 131.781C217.217 132.911 218.781 133.746 221.244 134.104C224.927 134.64 231.12 131.54 234.426 127.446C236.164 132.173 240.679 136.954 244.181 137.987Z" fill="#232733"/>
<path fill-rule="evenodd" clip-rule="evenodd" d="M218.141 142.695C219.308 139.581 220.39 136.503 221.149 132.71C219.685 130.685 217.597 130.217 216.153 131.694C215.928 134.646 217.215 140.219 218.141 142.695Z" fill="#232733"/>
<path fill-rule="evenodd" clip-rule="evenodd" d="M245.289 147.169C245.238 143.843 245.252 140.58 245.816 136.754C247.875 135.34 249.998 135.6 250.861 137.476C250.081 140.333 246.994 145.148 245.289 147.169Z" fill="#232733"/>
<path fill-rule="evenodd" clip-rule="evenodd" d="M233.787 147.666C232.344 147.964 230.971 147.778 229.603 147.03C230.011 149.132 232.593 150.024 233.787 147.666Z" fill="#C07452"/>
<path fill-rule="evenodd" clip-rule="evenodd" d="M234.41 145.946C234.52 146.306 234.316 146.686 233.957 146.796C233.597 146.905 233.217 146.701 233.108 146.341C233.02 146.051 232.958 145.687 232.92 145.316C232.879 144.903 232.867 144.468 232.878 144.112C232.889 143.737 233.205 143.441 233.58 143.454C233.955 143.465 234.25 143.78 234.239 144.156C234.23 144.456 234.241 144.828 234.276 145.183C234.306 145.476 234.349 145.749 234.41 145.946Z" fill="#F0D4B8"/>
<path fill-rule="evenodd" clip-rule="evenodd" d="M235.604 150.741C235.805 150.831 235.897 151.069 235.806 151.271C235.606 151.719 235.326 152.151 235.005 152.509C234.686 152.869 234.321 153.161 233.949 153.334C232.902 153.82 231.896 153.999 230.921 153.888C229.945 153.777 229.01 153.376 228.109 152.701C227.73 152.418 227.394 151.989 227.139 151.496C226.884 151.005 226.704 150.443 226.638 149.902C226.612 149.682 226.769 149.482 226.988 149.456C228.036 149.333 235.401 150.651 235.604 150.741Z" fill="white"/>
<path fill-rule="evenodd" clip-rule="evenodd" d="M238.89 140.655C238.069 140.531 237.262 141.377 237.088 142.541C236.915 143.707 237.441 144.751 238.262 144.873C239.084 144.995 239.892 144.15 240.065 142.985C240.239 141.821 239.712 140.777 238.89 140.655Z" fill="#232733"/>
<path fill-rule="evenodd" clip-rule="evenodd" d="M232.367 155.125C232.344 155.529 231.974 156.005 231.602 156.152C230.818 156.46 230.09 156.363 229.397 155.9C229.015 155.645 228.735 155.013 228.864 154.604C229.392 154.733 229.979 154.849 230.602 154.941C231.228 155.035 231.825 155.095 232.367 155.125Z" fill="#C07452"/>
<path fill-rule="evenodd" clip-rule="evenodd" d="M237.631 138.528C240.042 138.245 239.866 138.671 242.066 139.229C241.199 137.167 239.549 136.787 237.506 136.598C236.974 136.632 236.571 137.093 236.604 137.625C236.638 138.158 237.098 138.562 237.631 138.528Z" fill="#232733"/>
<path fill-rule="evenodd" clip-rule="evenodd" d="M228.75 137.084C226.505 136.162 226.558 136.618 224.29 136.564C225.681 134.812 227.371 134.89 229.389 135.259C229.894 135.436 230.158 135.988 229.982 136.492C229.805 136.995 229.254 137.261 228.75 137.084Z" fill="#232733"/>
<path fill-rule="evenodd" clip-rule="evenodd" d="M226.884 138.866C226.062 138.744 225.255 139.589 225.081 140.754C224.908 141.919 225.434 142.963 226.255 143.085C227.078 143.207 227.884 142.362 228.058 141.197C228.231 140.032 227.706 138.989 226.884 138.866Z" fill="#232733"/>
<path fill-rule="evenodd" clip-rule="evenodd" d="M227.451 139.352C227.766 139.355 228.017 139.624 228.014 139.953C228.009 140.282 227.751 140.545 227.438 140.542C227.123 140.539 226.872 140.27 226.875 139.941C226.879 139.612 227.137 139.348 227.451 139.352Z" fill="white"/>
<path fill-rule="evenodd" clip-rule="evenodd" d="M224.467 144.444C225.96 144.696 227.062 145.538 226.929 146.325C226.797 147.112 225.479 147.547 223.986 147.295C222.494 147.043 221.391 146.201 221.525 145.414C221.658 144.627 222.975 144.193 224.467 144.444Z" fill="#C9676B"/>
<path fill-rule="evenodd" clip-rule="evenodd" d="M239.745 146.967C241.239 147.219 242.34 148.061 242.207 148.848C242.075 149.634 240.758 150.07 239.265 149.817C237.772 149.566 236.669 148.724 236.802 147.937C236.936 147.15 238.253 146.716 239.745 146.967Z" fill="#C9676B"/>
<path fill-rule="evenodd" clip-rule="evenodd" d="M227.62 139.427C227.679 139.52 227.65 139.645 227.557 139.702C227.463 139.761 227.339 139.732 227.281 139.639C227.145 139.421 226.942 139.276 226.703 139.202C226.497 139.138 226.265 139.126 226.025 139.165C225.782 139.206 225.53 139.3 225.294 139.449C224.84 139.732 224.438 140.212 224.228 140.888C224.196 140.993 224.082 141.053 223.977 141.019C223.871 140.986 223.812 140.874 223.846 140.768C224.086 139.995 224.553 139.44 225.082 139.11C225.365 138.933 225.666 138.82 225.962 138.771C226.262 138.72 226.558 138.737 226.823 138.82C227.149 138.921 227.43 139.123 227.62 139.427Z" fill="#232733"/>
<path fill-rule="evenodd" clip-rule="evenodd" d="M223.057 140.25C223.078 140.142 223.184 140.071 223.292 140.093C223.401 140.114 223.471 140.219 223.45 140.328C223.442 140.368 223.439 140.407 223.437 140.442C223.435 140.551 223.465 140.636 223.513 140.697C223.558 140.753 223.618 140.789 223.683 140.803C223.701 140.805 223.718 140.808 223.73 140.808C223.855 140.81 223.912 140.642 224.02 140.323L224.042 140.252C224.078 140.147 224.193 140.09 224.296 140.125C224.402 140.16 224.458 140.274 224.423 140.38L224.399 140.448C224.231 140.95 224.142 141.214 223.724 141.206C223.681 141.205 223.642 141.201 223.607 141.195C223.449 141.164 223.304 141.077 223.199 140.944C223.097 140.815 223.034 140.643 223.037 140.436C223.039 140.376 223.046 140.314 223.057 140.25Z" fill="#232733"/>
<path fill-rule="evenodd" clip-rule="evenodd" d="M223.714 139.23C223.773 139.136 223.898 139.109 223.99 139.168C224.084 139.227 224.112 139.351 224.051 139.445C223.907 139.673 223.898 139.824 223.951 139.912C223.969 139.943 223.996 139.966 224.026 139.985C224.058 140.004 224.092 140.015 224.126 140.018C224.158 140.022 224.183 140.023 224.184 140.022C224.229 139.92 224.346 139.874 224.448 139.918C224.55 139.962 224.596 140.08 224.551 140.181C224.474 140.356 224.286 140.435 224.087 140.416C223.998 140.407 223.905 140.379 223.822 140.331C223.738 140.281 223.662 140.21 223.607 140.116C223.485 139.911 223.471 139.612 223.714 139.23Z" fill="#232733"/>
<path fill-rule="evenodd" clip-rule="evenodd" d="M238.539 141.234C238.446 141.294 238.322 141.265 238.263 141.172C238.204 141.08 238.231 140.956 238.324 140.896C238.626 140.704 238.968 140.643 239.307 140.692C239.581 140.733 239.855 140.845 240.105 141.022C240.351 141.193 240.573 141.425 240.751 141.706C241.085 142.232 241.266 142.934 241.152 143.736C241.135 143.845 241.034 143.922 240.924 143.906C240.815 143.891 240.738 143.789 240.755 143.68C240.856 142.98 240.701 142.373 240.414 141.921C240.263 141.684 240.079 141.49 239.875 141.349C239.678 141.211 239.464 141.121 239.25 141.09C239.002 141.054 238.755 141.096 238.539 141.234Z" fill="#232733"/>
<path fill-rule="evenodd" clip-rule="evenodd" d="M241.698 143.508C241.724 143.401 241.835 143.337 241.941 143.364C242.048 143.392 242.113 143.501 242.086 143.608C242.069 143.672 242.048 143.73 242.024 143.784C241.937 143.973 241.806 144.101 241.658 144.173C241.505 144.249 241.337 144.263 241.183 144.223C241.144 144.213 241.107 144.2 241.072 144.183C240.691 144.01 240.725 143.734 240.789 143.208L240.799 143.134C240.812 143.025 240.912 142.946 241.022 142.959C241.132 142.974 241.21 143.073 241.196 143.183L241.187 143.257C241.145 143.591 241.124 143.767 241.236 143.819C241.253 143.826 241.267 143.831 241.283 143.836C241.346 143.852 241.416 143.846 241.48 143.815C241.55 143.78 241.613 143.717 241.658 143.618C241.674 143.585 241.688 143.548 241.698 143.508Z" fill="#232733"/>
<path fill-rule="evenodd" clip-rule="evenodd" d="M241.536 142.453C241.523 142.343 241.602 142.243 241.711 142.23C241.822 142.217 241.921 142.296 241.935 142.406C241.99 142.855 241.847 143.119 241.648 143.252C241.559 143.311 241.459 143.343 241.36 143.351C241.265 143.359 241.168 143.345 241.084 143.314C240.897 143.246 240.761 143.093 240.767 142.903C240.771 142.793 240.863 142.706 240.974 142.71C241.084 142.713 241.171 142.805 241.167 142.916C241.167 142.918 241.19 142.928 241.222 142.939C241.253 142.95 241.289 142.955 241.327 142.952C241.362 142.949 241.395 142.938 241.425 142.919C241.511 142.862 241.569 142.722 241.536 142.453Z" fill="#232733"/>
<path fill-rule="evenodd" clip-rule="evenodd" d="M239.633 141.18C239.328 141.103 239.021 141.301 238.946 141.62C238.873 141.94 239.061 142.261 239.366 142.337C239.672 142.413 239.978 142.215 240.052 141.896C240.125 141.577 239.938 141.256 239.633 141.18Z" fill="white"/>
<path fill-rule="evenodd" clip-rule="evenodd" d="M231.182 128.118C231.066 129.493 227.474 133.582 227.206 133.812C226.94 134.041 234.43 130.792 235.5 127.964C236.57 125.136 234.506 124.678 234.506 124.678L231.182 128.118Z" fill="#232733"/>
<path fill-rule="evenodd" clip-rule="evenodd" d="M238.231 129.407C237.675 130.671 238.573 135.512 238.698 135.841C238.823 136.17 233.952 130.141 234.364 127.145C234.775 124.15 236.956 124.796 236.956 124.796L238.231 129.407Z" fill="#232733"/>
<path fill-rule="evenodd" clip-rule="evenodd" d="M224.091 118.051C230.338 122.275 240.244 123.647 247.404 123.215C247.814 123.784 248.202 124.378 248.565 124.986C248.815 125.408 249.053 125.836 249.276 126.267C239.752 128.673 228.199 126.749 218.966 122.273C220.415 120.662 222.205 119.181 224.091 118.051Z" fill="#464A5C"/>
<path fill-rule="evenodd" clip-rule="evenodd" d="M222.826 195.187C221.318 191.847 220.905 186.892 222.814 186.222C232.625 182.781 255.017 178.712 261.25 180.075C263.642 180.519 266.269 181.859 267.51 183.478C272.442 189.908 269.356 193.833 263.3 195.187H222.826Z" fill="#AB8F7F"/>
<path fill-rule="evenodd" clip-rule="evenodd" d="M222.433 195.187C222.216 194.615 222.029 194.014 221.872 193.425C221.39 191.631 221.173 189.926 221.178 189.534C221.221 186.176 223.24 185.675 223.898 185.512L224.009 185.482C226.817 184.578 231.305 183.936 235.795 183.294C238.315 182.933 240.836 182.573 243.042 182.169C244.841 181.84 246.61 181.493 248.261 181.169C254.149 180.015 258.544 179.153 261.319 179.759C261.493 179.797 261.604 179.968 261.566 180.142C261.528 180.316 261.356 180.427 261.183 180.389C258.536 179.812 254.197 180.662 248.385 181.801C246.781 182.116 245.065 182.453 243.158 182.802C240.926 183.21 238.405 183.571 235.885 183.931C231.422 184.569 226.961 185.207 224.205 186.095L224.051 186.137C223.511 186.271 221.856 186.682 221.821 189.54C221.816 189.904 222.027 191.517 222.494 193.258C222.669 193.907 222.878 194.571 223.125 195.187H222.433Z" fill="#6B635C"/>
<path fill-rule="evenodd" clip-rule="evenodd" d="M246.882 174.703C246.945 174.538 247.131 174.454 247.296 174.517C247.462 174.58 247.546 174.767 247.483 174.932C245.556 179.938 244.757 182.412 244.755 182.419C244.701 182.588 244.519 182.68 244.35 182.627C244.182 182.573 244.087 182.391 244.142 182.222C244.144 182.215 244.941 179.748 246.882 174.703Z" fill="#6B635C"/>
<path fill-rule="evenodd" clip-rule="evenodd" d="M155.067 184.501C162.876 184.501 169.206 189.513 169.206 195.696C169.206 201.879 162.876 206.892 155.067 206.892C147.257 206.892 140.927 201.88 140.927 195.696C140.927 189.513 147.257 184.501 155.067 184.501Z" fill="#313543"/>
<path fill-rule="evenodd" clip-rule="evenodd" d="M137.336 195.647L141.603 191.61H168.669L172.214 195.259C172.214 195.259 153.993 209.582 137.336 195.647Z" fill="#464A5C"/>
<path fill-rule="evenodd" clip-rule="evenodd" d="M124.633 195.918C216.436 194.462 308.956 194.434 402.232 195.918C412.133 196.076 420.05 204.022 420.236 213.923C421.139 261.878 421.172 308.788 420.236 354.534C420.034 364.436 412.133 372.39 402.232 372.54C309.698 373.94 217.166 374.082 124.633 372.54C114.731 372.375 106.792 364.437 106.628 354.534C105.856 308.051 105.929 261.144 106.628 213.923C106.775 204.022 114.731 196.076 124.633 195.918Z" fill="#C4CDE6"/>
<path fill-rule="evenodd" clip-rule="evenodd" d="M420.447 343.252C420.384 347.021 420.313 350.783 420.236 354.535C420.034 364.437 412.133 372.392 402.232 372.541C309.698 373.941 217.166 374.083 124.634 372.541C114.731 372.376 106.793 364.438 106.628 354.535C106.566 350.778 106.508 347.016 106.457 343.252H420.447Z" fill="#ACB8CB"/>
<path fill-rule="evenodd" clip-rule="evenodd" d="M272.709 373.635L271.384 373.637C233.905 373.319 203.618 342.843 203.618 305.289C203.618 267.536 234.222 236.932 271.975 236.932C309.728 236.932 340.332 267.535 340.332 305.289C340.332 342.795 310.123 373.242 272.709 373.635Z" fill="#808FA2"/>
<path fill-rule="evenodd" clip-rule="evenodd" d="M114.249 209.204H185.476C192.876 209.204 198.957 199.833 207.581 199.514C247.122 198.049 299.366 198.049 338.905 199.514C346.295 199.787 355.747 209.204 359.43 209.204H412.615C416.808 209.204 420.147 212.577 420.236 216.698C421.199 260.756 420.809 304.485 420.236 348.17C420.183 352.292 416.807 355.664 412.615 355.664H114.249C110.056 355.664 106.626 352.293 106.626 348.17V216.698C106.626 212.576 110.056 209.204 114.249 209.204Z" fill="#E2E7F5"/>
<path fill-rule="evenodd" clip-rule="evenodd" d="M420.623 245.73C421.408 279.89 421.28 314.009 420.237 348.169C420.113 352.289 416.807 355.663 412.615 355.663H114.249C110.056 355.663 106.626 352.292 106.626 348.169V245.688L420.623 245.73Z" fill="#E5AE62"/>
<path fill-rule="evenodd" clip-rule="evenodd" d="M318.177 355.664H225.774C212.158 343.169 203.618 325.228 203.618 305.289C203.618 279.704 217.677 257.406 238.489 245.688H305.46C326.272 257.406 340.331 279.704 340.331 305.289C340.332 325.227 331.793 343.168 318.177 355.664Z" fill="#D39242"/>
<path fill-rule="evenodd" clip-rule="evenodd" d="M181.739 355.664H113.908C109.714 355.664 106.285 352.293 106.285 348.17V245.688H181.739V355.664Z" fill="#313543"/>
<path fill-rule="evenodd" clip-rule="evenodd" d="M181.739 250.459V350.785C173.235 349.4 148.991 346.625 148.318 336.618C147.508 324.57 147.477 280.696 148.225 266.213C148.868 253.765 171.747 252.089 181.739 250.459Z" fill="#464A5C"/>
<path fill-rule="evenodd" clip-rule="evenodd" d="M417.596 353.473C418.001 353.179 418.569 353.268 418.864 353.672C419.158 354.077 419.069 354.644 418.665 354.939C417.947 355.464 417.147 355.878 416.289 356.158C415.455 356.428 414.568 356.574 413.646 356.574H113.975C112.99 356.574 112.035 356.405 111.139 356.095C110.215 355.773 109.362 355.302 108.613 354.71C108.22 354.399 108.153 353.828 108.464 353.436C108.775 353.043 109.345 352.976 109.738 353.286C110.328 353.755 111.001 354.127 111.728 354.38C112.425 354.621 113.181 354.752 113.975 354.752H413.645C414.378 354.752 415.077 354.639 415.725 354.428C416.408 354.205 417.039 353.88 417.596 353.473Z" fill="#808FA2"/>
<path fill-rule="evenodd" clip-rule="evenodd" d="M181.739 343.252C212.888 342.843 250.131 342.761 287.791 342.678C335.03 342.574 382.911 342.468 420.422 341.624C420.445 340.704 420.468 339.786 420.49 338.866C383.204 339.537 335.158 339.643 287.77 339.747C250.131 339.831 212.91 339.913 181.738 340.322V343.252H181.739ZM420.706 270.727L420.747 273.653C414.975 273.895 408.929 274.187 402.602 274.528C302.259 279.936 227.493 280.455 181.739 278.293V275.361C227.377 277.528 302.086 277.015 402.435 271.607C408.806 271.264 414.894 270.972 420.706 270.727ZM420.926 298.519V301.449C416.917 301.577 412.835 301.666 408.688 301.712C348.533 302.402 264.751 303.714 202.207 306.152C195.083 306.431 188.235 306.718 181.739 307.014V304.108C188.22 303.797 195.018 303.503 202.084 303.227C264.766 300.783 348.528 299.473 408.645 298.784C412.807 298.736 416.903 298.647 420.926 298.519ZM420.762 324.469C420.748 325.441 420.734 326.414 420.718 327.386C385.614 325.997 341.263 325.309 297.337 324.628C255.692 323.983 214.439 323.346 181.739 322.106V319.174C214.387 320.409 255.683 321.047 297.371 321.693C341.251 322.373 385.556 323.06 420.762 324.469ZM181.739 261.367C232.612 258.265 311.012 256.626 362.778 257.275C379.291 257.482 393.075 257.924 402.366 258.626C409.578 259.171 414.694 258.674 414.329 259.008C414.028 259.283 412.996 259.643 411.16 260.097C400.419 262.746 380.39 264.899 356.561 266.539C322.241 268.902 280.155 270.191 246.539 270.364C214.122 270.532 189.781 269.991 188.606 268.69C189.173 264.775 228.879 266.341 228.994 266.345L229.087 263.418C228.961 263.414 185.214 261.642 185.722 269.013C185.728 269.098 185.741 269.191 185.768 269.298L185.769 269.305C186.45 272.151 212.246 273.472 246.572 273.294C280.293 273.12 322.454 271.83 356.764 269.469C380.726 267.818 400.917 265.64 411.842 262.946C414.146 262.379 415.59 261.789 416.25 261.187C419.366 258.335 414.033 256.569 402.573 255.702C393.192 254.993 379.349 254.549 362.804 254.341C311.149 253.693 232.956 255.368 181.742 258.525V261.367H181.739Z" fill="#D39242"/>
<path fill-rule="evenodd" clip-rule="evenodd" d="M106.626 246.598C106.123 246.598 105.715 246.19 105.715 245.687C105.715 245.183 106.123 244.776 106.626 244.776H420.237C420.741 244.776 421.148 245.183 421.148 245.687C421.148 246.19 420.741 246.598 420.237 246.598H106.626Z" fill="#808FA2"/>
<path fill-rule="evenodd" clip-rule="evenodd" d="M115.254 258.928C115.254 258.215 115.832 257.638 116.545 257.638C117.259 257.638 117.837 258.215 117.837 258.928V345.633C117.837 346.347 117.259 346.924 116.545 346.924C115.833 346.924 115.254 346.347 115.254 345.633V258.928Z" fill="#464A5C"/>
<path fill-rule="evenodd" clip-rule="evenodd" d="M122.769 258.928C122.769 258.215 123.347 257.638 124.06 257.638C124.774 257.638 125.352 258.215 125.352 258.928V345.633C125.352 346.347 124.774 346.924 124.06 346.924C123.347 346.924 122.769 346.347 122.769 345.633V258.928Z" fill="#464A5C"/>
<path fill-rule="evenodd" clip-rule="evenodd" d="M130.285 258.928C130.285 258.215 130.863 257.638 131.576 257.638C132.29 257.638 132.867 258.215 132.867 258.928V345.633C132.867 346.347 132.29 346.924 131.576 346.924C130.863 346.924 130.285 346.347 130.285 345.633V258.928Z" fill="#464A5C"/>
<path fill-rule="evenodd" clip-rule="evenodd" d="M137.8 258.928C137.8 258.215 138.377 257.638 139.091 257.638C139.804 257.638 140.382 258.215 140.382 258.928V345.633C140.382 346.347 139.805 346.924 139.091 346.924C138.377 346.924 137.8 346.347 137.8 345.633V258.928Z" fill="#464A5C"/>
<path fill-rule="evenodd" clip-rule="evenodd" d="M122.118 373.698C121.761 373.698 121.473 373.407 121.473 373.052C121.473 372.695 121.762 372.406 122.118 372.406H402.92C403.277 372.406 403.565 372.696 403.565 373.052C403.565 373.408 403.276 373.698 402.92 373.698H122.118Z" fill="#808FA2"/>
<path fill-rule="evenodd" clip-rule="evenodd" d="M213.197 204.1H295.349C299.242 204.1 302.429 207.286 302.429 211.181V232.605C302.429 236.499 299.243 239.685 295.349 239.685H213.197C203.411 239.685 195.405 231.679 195.405 221.893C195.405 212.106 203.411 204.1 213.197 204.1Z" fill="#232733"/>
<path fill-rule="evenodd" clip-rule="evenodd" d="M213.197 209.367C206.318 209.367 200.673 215.013 200.673 221.892C200.673 228.77 206.319 234.417 213.197 234.417H295.349C296.335 234.417 297.162 233.59 297.162 232.604V211.18C297.162 210.192 296.335 209.367 295.349 209.367H213.197Z" fill="#313543"/>
<path fill-rule="evenodd" clip-rule="evenodd" d="M218.69 234.417L206.8 211.143C208.446 210.155 210.332 209.534 212.343 209.396L225.124 234.417H218.69Z" fill="#464A5C"/>
<path fill-rule="evenodd" clip-rule="evenodd" d="M233.781 209.367L246.576 234.417H231.776L218.978 209.367H233.781Z" fill="#464A5C"/>
<path fill-rule="evenodd" clip-rule="evenodd" d="M250.297 209.367L263.095 234.417H255.694L242.898 209.367H250.297Z" fill="#464A5C"/>
<path fill-rule="evenodd" clip-rule="evenodd" d="M271.176 213.054H288.467C290.443 213.054 292.06 214.668 292.06 216.639V227.145C292.06 229.116 290.443 230.73 288.467 230.73H271.176C269.2 230.73 267.583 229.116 267.583 227.145V216.639C267.583 214.666 269.2 213.054 271.176 213.054Z" fill="#232733"/>
<path fill-rule="evenodd" clip-rule="evenodd" d="M318.328 204.1H336.007C345.794 204.1 353.8 212.106 353.8 221.891C353.8 231.678 345.794 239.684 336.007 239.684H318.328C314.433 239.684 311.247 236.498 311.247 232.604V211.181C311.248 207.286 314.433 204.1 318.328 204.1Z" fill="#232733"/>
<path fill-rule="evenodd" clip-rule="evenodd" d="M330.727 208.852C338.43 208.852 344.674 214.689 344.674 221.892C344.674 229.094 338.43 234.934 330.727 234.934C323.025 234.934 316.781 229.094 316.781 221.892C316.781 214.69 323.025 208.852 330.727 208.852Z" fill="#464A5C"/>
<path fill-rule="evenodd" clip-rule="evenodd" d="M340.233 187.137C344.308 210.23 340.061 205.982 363.153 210.056C340.061 214.132 344.308 209.884 340.233 232.976C336.157 209.884 340.406 214.132 317.313 210.056C340.407 205.982 336.157 210.23 340.233 187.137Z" fill="white"/>
<path d="M318.758 345.899C341.179 315.528 334.733 272.731 304.362 250.31C273.99 227.889 231.193 234.334 208.772 264.706C186.351 295.077 192.796 337.874 223.168 360.295C253.54 382.716 296.337 376.271 318.758 345.899Z" fill="#E2E7F5"/>
<path fill-rule="evenodd" clip-rule="evenodd" d="M263.777 244.303C297.457 244.303 324.761 271.606 324.761 305.288C324.761 338.97 297.457 366.273 263.777 366.273C230.095 366.273 202.791 338.97 202.791 305.288C202.791 271.607 230.095 244.303 263.777 244.303Z" fill="#464A5C"/>
<path fill-rule="evenodd" clip-rule="evenodd" d="M263.777 244.303C297.457 244.303 324.761 271.606 324.761 305.288C324.761 306.664 324.711 308.029 324.622 309.383C322.515 277.611 296.081 252.491 263.777 252.491C231.471 252.491 205.037 277.611 202.931 309.383C202.841 308.029 202.791 306.663 202.791 305.288C202.791 271.607 230.095 244.303 263.777 244.303Z" fill="#313543"/>
<path fill-rule="evenodd" clip-rule="evenodd" d="M263.777 269.418C283.587 269.418 299.648 285.478 299.648 305.289C299.648 325.1 283.587 341.159 263.777 341.159C243.965 341.159 227.906 325.1 227.906 305.289C227.906 285.478 243.965 269.418 263.777 269.418Z" fill="#313543"/>
<path fill-rule="evenodd" clip-rule="evenodd" d="M263.777 276.778C279.522 276.778 292.286 289.542 292.286 305.288C292.286 321.034 279.522 333.798 263.777 333.798C248.031 333.798 235.267 321.034 235.267 305.288C235.267 289.542 248.031 276.778 263.777 276.778Z" fill="#232733"/>
<path fill-rule="evenodd" clip-rule="evenodd" d="M263.67 332.396C251.375 332.396 236.4 320.145 238.825 309.692C242.032 295.862 284.739 295.761 288.831 309.791C291.582 319.225 276.499 332.396 263.67 332.396Z" fill="#464A5C"/>
<path fill-rule="evenodd" clip-rule="evenodd" d="M263.777 255.871C277.422 255.871 289.776 261.402 298.721 270.345C307.662 279.287 313.194 291.643 313.194 305.289C313.194 318.934 307.663 331.291 298.721 340.233C289.777 349.175 277.422 354.706 263.777 354.706C250.131 354.706 237.775 349.175 228.833 340.233C219.89 331.291 214.358 318.934 214.358 305.289C214.358 291.643 219.89 279.287 228.833 270.345C237.775 261.403 250.131 255.871 263.777 255.871ZM297.807 271.258C289.097 262.549 277.066 257.163 263.777 257.163C250.488 257.163 238.455 262.549 229.746 271.258C221.037 279.967 215.651 292 215.651 305.289C215.651 318.578 221.037 330.61 229.746 339.319C238.455 348.028 250.488 353.414 263.777 353.414C277.066 353.414 289.097 348.028 297.807 339.319C306.515 330.61 311.903 318.577 311.903 305.289C311.903 291.999 306.515 279.967 297.807 271.258Z" fill="#313543"/>
<path fill-rule="evenodd" clip-rule="evenodd" d="M263.777 262.02C275.725 262.02 286.542 266.863 294.372 274.692C302.202 282.522 307.045 293.34 307.045 305.288C307.045 317.236 302.202 328.054 294.372 335.884C286.542 343.714 275.725 348.557 263.777 348.557C251.828 348.557 241.011 343.714 233.18 335.884C225.35 328.055 220.507 317.236 220.507 305.288C220.507 293.34 225.351 282.522 233.18 274.692C241.011 266.863 251.828 262.02 263.777 262.02ZM293.459 275.606C285.863 268.009 275.368 263.309 263.777 263.309C252.185 263.309 241.69 268.009 234.093 275.606C226.498 283.201 221.798 293.697 221.798 305.288C221.798 316.88 226.497 327.375 234.093 334.971C241.69 342.567 252.185 347.266 263.777 347.266C275.368 347.266 285.863 342.567 293.459 334.971C301.055 327.375 305.755 316.88 305.755 305.288C305.755 293.697 301.055 283.201 293.459 275.606Z" fill="#313543"/>
<path fill-rule="evenodd" clip-rule="evenodd" d="M482.253 353.858C507.265 368.264 529.182 370.063 537.409 367.657C547.256 364.778 547.945 356.594 532.643 350.672C561.343 353.404 585.872 341.089 553.815 332.521C593.796 329.51 596.862 317.819 572.312 315.243C620.577 293.128 601.271 272.985 565.884 306.406C575.612 289.843 563.396 280.49 542.099 314.836C552.582 281.674 521.264 306.567 516.364 330.252C519.005 317.229 518.323 312.877 514.816 311.928C507.401 309.922 490.437 328.437 482.253 353.858Z" fill="#AB8F7F"/>
<path fill-rule="evenodd" clip-rule="evenodd" d="M579.79 302.566C580.084 302.367 580.484 302.442 580.684 302.735C580.885 303.03 580.809 303.431 580.515 303.631C572.696 308.966 561.007 316.848 544.857 325.816C528.713 334.783 508.122 344.827 482.512 354.48C482.179 354.603 481.807 354.437 481.683 354.104C481.558 353.771 481.725 353.399 482.059 353.274C507.605 343.646 528.137 333.631 544.232 324.693C560.32 315.758 571.986 307.891 579.79 302.566Z" fill="#6B635C"/>
<path fill-rule="evenodd" clip-rule="evenodd" d="M575.029 321.825C575.376 321.751 575.718 321.975 575.79 322.323C575.862 322.671 575.639 323.012 575.291 323.084C575.253 323.094 562.157 325.912 547.39 324.26C547.035 324.221 546.781 323.903 546.819 323.55C546.858 323.196 547.177 322.941 547.53 322.979C562.095 324.608 574.992 321.831 575.029 321.825Z" fill="#6B635C"/>
<path fill-rule="evenodd" clip-rule="evenodd" d="M563.277 339.387C563.622 339.302 563.97 339.516 564.054 339.86C564.138 340.205 563.926 340.553 563.58 340.638C559.526 341.627 552.315 342.01 544.175 341.088C537.823 340.368 530.891 338.855 524.434 336.218C524.105 336.085 523.946 335.709 524.079 335.378C524.212 335.048 524.589 334.889 524.919 335.023C531.262 337.613 538.072 339.099 544.316 339.807C552.306 340.713 559.346 340.346 563.277 339.387Z" fill="#6B635C"/>
<path fill-rule="evenodd" clip-rule="evenodd" d="M537.233 360.141C537.586 360.185 537.836 360.508 537.791 360.86C537.746 361.212 537.425 361.461 537.073 361.416C531.627 360.708 524.16 358.909 516.922 355.882C511.292 353.526 505.786 350.422 501.456 346.501C501.193 346.263 501.172 345.857 501.41 345.593C501.648 345.331 502.054 345.309 502.318 345.547C506.524 349.357 511.902 352.385 517.416 354.692C524.548 357.675 531.889 359.445 537.233 360.141Z" fill="#AB8F7F"/>
<path fill-rule="evenodd" clip-rule="evenodd" d="M563.026 300.883C563.257 300.613 563.664 300.582 563.933 300.813C564.203 301.043 564.236 301.451 564.004 301.722C561.035 305.204 558.621 308.648 556.786 311.839C554.81 315.277 553.505 318.422 552.902 321.001C552.822 321.347 552.475 321.563 552.128 321.482C551.781 321.401 551.566 321.054 551.647 320.708C552.275 318.02 553.626 314.756 555.673 311.198C557.548 307.936 560.008 304.423 563.026 300.883Z" fill="#6B635C"/>
<path fill-rule="evenodd" clip-rule="evenodd" d="M536.819 308.241C537.031 307.956 537.433 307.895 537.719 308.107C538.005 308.319 538.064 308.722 537.853 309.007C536.132 311.315 533.913 315.648 532.501 320.696C531.446 324.462 530.848 328.615 531.248 332.597C531.283 332.951 531.024 333.266 530.671 333.301C530.317 333.336 530.003 333.077 529.967 332.724C529.549 328.563 530.168 324.249 531.26 320.348C532.717 315.142 535.025 310.647 536.819 308.241Z" fill="#6B635C"/>
<path fill-rule="evenodd" clip-rule="evenodd" d="M510.301 319.485C510.513 319.199 510.916 319.14 511.202 319.351C511.488 319.563 511.547 319.967 511.335 320.251C509.789 322.325 508.551 326.666 508.067 331.287C507.629 335.484 507.821 339.878 508.981 342.983C509.105 343.316 508.935 343.687 508.603 343.811C508.27 343.934 507.899 343.764 507.777 343.432C506.542 340.13 506.331 335.523 506.787 331.156C507.292 326.323 508.624 321.737 510.301 319.485Z" fill="#AB8F7F"/>
<path fill-rule="evenodd" clip-rule="evenodd" d="M401.07 393.411C401.07 395.967 388.495 398.039 372.985 398.039C357.474 398.039 344.9 395.967 344.9 393.411C344.9 390.16 344.9 391.342 344.9 388.091C344.9 385.535 357.474 383.464 372.985 383.464C388.495 383.464 401.07 385.535 401.07 388.091C401.07 391.342 401.07 390.16 401.07 393.411Z" fill="#313543"/>
<path fill-rule="evenodd" clip-rule="evenodd" d="M372.985 392.717C388.453 392.717 401.069 390.639 401.069 388.091C401.069 385.542 388.453 383.464 372.985 383.464C357.516 383.464 344.899 385.542 344.899 388.091C344.9 390.639 357.516 392.717 372.985 392.717Z" fill="#464A5C"/>
<path fill-rule="evenodd" clip-rule="evenodd" d="M399.364 386.664C399.364 389.344 387.553 390.935 372.985 390.935C358.416 390.935 346.606 389.023 346.606 386.664C346.606 383.664 346.606 302.975 346.606 299.973C346.606 297.616 358.416 295.703 372.985 295.703C387.553 295.703 399.364 297.616 399.364 299.973C399.364 302.975 399.364 383.984 399.364 386.664Z" fill="#313543"/>
<path fill-rule="evenodd" clip-rule="evenodd" d="M399.364 386.664C399.364 389.344 387.553 390.935 372.985 390.935C358.416 390.935 346.606 389.023 346.606 386.664C346.606 383.663 346.606 302.975 346.606 299.975C346.606 298.521 351.088 297.238 357.935 296.466C361.475 298.239 365.128 301.245 368.855 305.693C362.034 327.93 356.031 394.788 399.364 382.963V386.664Z" fill="#232733"/>
<path fill-rule="evenodd" clip-rule="evenodd" d="M385.119 390.518C381.486 390.791 377.36 390.935 372.985 390.935C358.417 390.935 346.606 389.023 346.606 386.664C346.606 383.664 346.606 302.975 346.606 299.973C346.606 297.616 358.417 295.703 372.985 295.703C377.36 295.703 381.486 295.876 385.119 296.181V390.518Z" fill="#AB8F7F"/>
<path fill-rule="evenodd" clip-rule="evenodd" d="M385.119 390.518C381.486 390.791 377.36 390.935 372.985 390.935C358.417 390.935 346.606 389.023 346.606 386.664C346.606 383.663 346.606 302.975 346.606 299.975C346.606 298.521 351.088 297.238 357.935 296.466C361.475 298.239 356.911 298.505 360.637 302.953C361.076 339.407 349.053 394.009 385.119 383.903V390.518Z" fill="#6B635C"/>
<path fill-rule="evenodd" clip-rule="evenodd" d="M401.069 301.467C401.069 303.825 388.495 305.738 372.985 305.738C357.474 305.738 344.9 303.825 344.9 301.467C344.9 298.467 344.9 299.558 344.9 296.556C344.9 294.198 357.474 292.286 372.985 292.286C388.495 292.286 401.069 294.198 401.069 296.556C401.069 299.558 401.069 298.468 401.069 301.467Z" fill="#464A5C"/>
<path fill-rule="evenodd" clip-rule="evenodd" d="M372.985 292.286C388.495 292.286 401.069 294.198 401.069 296.556C401.069 298.915 388.495 300.828 372.985 300.828C357.474 300.828 344.9 298.915 344.9 296.556C344.9 294.198 357.474 292.286 372.985 292.286Z" fill="#313543"/>
<path fill-rule="evenodd" clip-rule="evenodd" d="M381.207 297.478C381.207 298.314 377.526 298.809 372.985 298.809C368.443 298.809 364.762 298.213 364.762 297.478C364.762 296.543 364.762 284.534 364.762 283.597C364.762 282.863 368.443 282.267 372.985 282.267C377.526 282.267 381.207 282.863 381.207 283.597C381.207 284.534 381.207 296.643 381.207 297.478Z" fill="#464A5C"/>
<path fill-rule="evenodd" clip-rule="evenodd" d="M372.985 281.43C377.416 281.43 381.008 282.351 381.008 283.487C381.008 284.622 377.416 285.544 372.985 285.544C368.552 285.544 364.96 284.623 364.96 283.487C364.961 282.35 368.552 281.43 372.985 281.43Z" fill="#232733"/>
<path fill-rule="evenodd" clip-rule="evenodd" d="M390.015 310.734L390.014 384.246C390.014 384.246 415.946 373.959 450.52 384.246C485.094 394.532 519.994 383.093 522.719 382.479V308.967C522.719 308.967 496.788 319.253 462.214 308.967C427.64 298.681 392.843 309.545 390.015 310.734ZM515.017 313.12C516.61 312.757 518.206 312.357 519.805 311.917V316.797C518.207 317.222 516.612 317.609 515.017 317.959V313.12ZM503.793 315.038C505.389 314.856 506.984 314.636 508.581 314.376V319.173C506.986 319.423 505.391 319.635 503.793 319.812V315.038ZM492.569 315.668C494.168 315.669 495.764 315.634 497.357 315.557V320.313C495.764 320.386 494.169 320.421 492.569 320.42V315.668ZM481.345 315.012C482.946 315.196 484.542 315.34 486.132 315.447V320.208C484.542 320.104 482.947 319.965 481.345 319.788V315.012ZM470.122 313.12C471.726 313.476 473.321 313.794 474.909 314.075V318.88C473.322 318.609 471.726 318.299 470.122 317.956V313.12ZM458.897 310.145C459.813 310.388 460.723 310.644 461.63 310.913C462.317 311.118 463.002 311.316 463.686 311.506V316.387C462.684 316.114 461.679 315.829 460.67 315.528C460.082 315.353 459.491 315.185 458.898 315.021V310.145H458.897ZM447.674 307.844C449.277 308.082 450.872 308.354 452.462 308.666V313.487C450.875 313.166 449.277 312.883 447.674 312.638V307.844ZM436.45 306.753C437.328 306.795 438.205 306.848 439.081 306.911C439.8 306.962 440.519 307.019 441.237 307.084V311.854C440.439 311.78 439.641 311.715 438.842 311.659C438.045 311.604 437.248 311.555 436.45 311.515V306.753ZM425.226 306.711C426.82 306.647 428.417 306.614 430.013 306.608V311.365C428.417 311.37 426.821 311.406 425.226 311.47V306.711ZM414.002 307.617L414.448 307.564C415.89 307.392 417.337 307.244 418.789 307.119V311.889C417.471 312.007 416.158 312.143 414.848 312.298C414.563 312.331 414.282 312.365 414.002 312.4L414.002 307.617ZM402.779 309.475C404.346 309.139 405.936 308.833 407.566 308.553V313.359C405.931 313.646 404.341 313.96 402.779 314.303V309.475ZM391.554 312.433C393.156 311.935 394.745 311.472 396.342 311.039V315.912C394.756 316.356 393.167 316.834 391.554 317.348V312.433ZM515.017 377.349C516.616 376.952 518.209 376.539 519.805 376.111V381.113C518.211 381.534 516.618 381.94 515.017 382.326V377.349ZM503.793 379.736C505.406 379.456 507 379.149 508.581 378.82V383.756C507.001 384.075 505.408 384.37 503.793 384.64V379.736ZM492.569 381.193C494.17 381.052 495.766 380.884 497.357 380.689V385.551C495.767 385.736 494.171 385.896 492.569 386.027V381.193ZM481.345 381.699C482.941 381.698 484.537 381.664 486.132 381.601V386.409C484.54 386.464 482.943 386.493 481.345 386.489V381.699ZM470.122 381.18C471.22 381.285 472.321 381.374 473.423 381.447C473.918 381.479 474.413 381.509 474.908 381.535V386.309C474.465 386.284 474.022 386.256 473.578 386.229C472.425 386.152 471.272 386.057 470.121 385.947L470.122 381.18ZM458.897 379.475C460.484 379.81 462.082 380.103 463.686 380.36V385.132C462.082 384.878 460.486 384.588 458.897 384.258V379.475ZM447.674 376.526C449.008 376.875 450.348 377.252 451.697 377.652C451.952 377.728 452.206 377.803 452.462 377.877V382.693C452.009 382.565 451.557 382.435 451.105 382.301C449.956 381.958 448.813 381.636 447.674 381.332V376.526ZM436.45 374.149C438.039 374.403 439.634 374.693 441.238 375.02V379.803C439.634 379.47 438.039 379.175 436.45 378.919V374.149ZM425.226 372.96C426.82 373.043 428.414 373.163 430.013 373.319V378.083C428.414 377.925 426.818 377.808 425.226 377.728V372.96ZM414.002 372.986C415.599 372.895 417.195 372.842 418.79 372.826V377.613C417.196 377.636 415.602 377.698 414.002 377.796V372.986ZM402.779 374.201C404.379 373.947 405.974 373.727 407.566 373.541V378.394C405.977 378.591 404.381 378.824 402.779 379.094V374.201ZM391.554 376.532C393.158 376.125 394.754 375.749 396.342 375.408V380.357C394.756 380.714 393.16 381.104 391.554 381.528V376.532Z" fill="#313543"/>
<path fill-rule="evenodd" clip-rule="evenodd" d="M390.015 374.449C395.209 372.861 401.978 371.838 407.505 371.298V315.378C401.447 316.664 396.309 318.448 390.015 320.097V374.449ZM412.375 370.93C430.559 369.942 441.19 373.192 458.11 377.166V316.944C443.807 312.958 427.061 312.318 412.375 314.497V370.93ZM462.981 378.173C477.069 380.7 492.047 380.155 506.284 377.572V321.808C491.794 323.354 477.099 322.095 462.981 318.324V378.173Z" fill="#4B4E58"/>
<path fill-rule="evenodd" clip-rule="evenodd" d="M375.993 320.656V378.793C375.993 380.551 374.555 381.988 372.797 381.988C371.039 381.988 369.602 380.55 369.602 378.793V320.656C369.602 318.899 371.039 317.46 372.797 317.46C374.555 317.46 375.993 318.899 375.993 320.656Z" fill="#313543"/>
<path fill-rule="evenodd" clip-rule="evenodd" d="M436.964 341.869C434.408 341.869 432.338 354.443 432.338 369.954C432.338 385.464 434.408 398.039 436.964 398.039C440.216 398.039 439.033 398.039 442.284 398.039C444.841 398.039 446.911 385.464 446.911 369.954C446.911 354.443 444.84 341.869 442.284 341.869C439.032 341.869 440.215 341.869 436.964 341.869Z" fill="#313543"/>
<path fill-rule="evenodd" clip-rule="evenodd" d="M446.911 369.953C446.911 354.442 444.84 341.868 442.284 341.868C439.729 341.868 437.658 354.442 437.658 369.953C437.658 385.464 439.729 398.038 442.284 398.038C444.84 398.038 446.911 385.464 446.911 369.953Z" fill="#464A5C"/>
<path fill-rule="evenodd" clip-rule="evenodd" d="M443.711 343.575C441.031 343.575 439.44 355.385 439.44 369.953C439.44 384.522 441.352 396.333 443.711 396.333C446.712 396.333 527.4 396.333 530.402 396.333C532.76 396.333 534.671 384.522 534.671 369.953C534.671 355.385 532.76 343.575 530.402 343.575C527.4 343.575 446.391 343.575 443.711 343.575Z" fill="#232733"/>
<path fill-rule="evenodd" clip-rule="evenodd" d="M443.711 343.575C441.031 343.575 439.44 355.385 439.44 369.953L443.027 369.836C442.389 360.436 444.603 348.5 446.508 343.575H443.711Z" fill="#232733"/>
<path fill-rule="evenodd" clip-rule="evenodd" d="M439.857 357.819C439.584 361.453 439.44 365.578 439.44 369.954C439.44 384.522 441.352 396.333 443.711 396.333C446.712 396.333 527.4 396.333 530.402 396.333C532.76 396.333 534.672 384.522 534.672 369.954C534.672 365.579 534.499 361.453 534.194 357.819H439.857Z" fill="#E5AE62"/>
<path fill-rule="evenodd" clip-rule="evenodd" d="M439.857 357.819C439.584 361.453 439.44 365.578 439.44 369.954C439.44 384.522 441.352 396.333 443.711 396.333C446.712 396.333 527.4 396.333 530.402 396.333C531.952 396.333 533.31 391.23 534.057 383.597H480.917C461.136 383.597 449.893 384.21 446.625 380.944C442.652 376.97 442.392 366.845 443.442 357.82H439.857V357.819Z" fill="#D39242"/>
<path fill-rule="evenodd" clip-rule="evenodd" d="M528.906 341.869C526.548 341.869 524.637 354.443 524.637 369.954C524.637 385.464 526.548 398.039 528.906 398.039C531.908 398.039 530.817 398.039 533.818 398.039C536.176 398.039 538.087 385.464 538.087 369.954C538.087 354.443 536.176 341.869 533.818 341.869C530.817 341.869 531.908 341.869 528.906 341.869Z" fill="#464A5C"/>
<path fill-rule="evenodd" clip-rule="evenodd" d="M538.087 369.953C538.087 354.442 536.176 341.868 533.818 341.868C531.459 341.868 529.548 354.442 529.548 369.953C529.548 385.463 531.459 398.038 533.818 398.038C536.176 398.038 538.087 385.463 538.087 369.953Z" fill="#313543"/>
<path fill-rule="evenodd" clip-rule="evenodd" d="M532.896 361.73C532.061 361.73 531.565 365.411 531.565 369.953C531.565 374.494 532.161 378.175 532.896 378.175C533.832 378.175 545.84 378.175 546.777 378.175C547.512 378.175 548.108 374.494 548.108 369.953C548.108 365.411 547.512 361.73 546.777 361.73C545.841 361.73 533.732 361.73 532.896 361.73Z" fill="#464A5C"/>
<path fill-rule="evenodd" clip-rule="evenodd" d="M548.108 369.953C548.108 365.522 547.561 361.93 546.887 361.93C546.213 361.93 545.667 365.522 545.667 369.953C545.667 374.384 546.213 377.976 546.887 377.976C547.561 377.976 548.108 374.384 548.108 369.953Z" fill="#232733"/>
<path fill-rule="evenodd" clip-rule="evenodd" d="M512.329 363.26H454.192C452.433 363.26 450.996 364.698 450.996 366.455C450.996 368.214 452.434 369.652 454.192 369.652H512.329C514.087 369.652 515.525 368.213 515.525 366.455C515.525 364.698 514.087 363.26 512.329 363.26Z" fill="#232733"/>
<path fill-rule="evenodd" clip-rule="evenodd" d="M427.309 144.979C426.019 145.238 419.761 146.728 418.605 147.425C405.094 155.554 397.434 190.925 362.992 202.705C363.259 208.413 365.864 212.188 369.329 214.216C397.715 208.181 411.893 190.501 424.986 172.53C432.542 162.631 430.507 151.286 427.309 144.979Z" fill="#AB8F7F"/>
<path fill-rule="evenodd" clip-rule="evenodd" d="M497.24 90.6996C500.472 92.6851 502.769 92.956 508.038 91.6736C508.726 89.9063 509.457 88.0637 509.695 84.6487C510.068 79.2791 497.633 76.7727 496.158 82.185C496.366 85.4588 496.77 87.4167 497.24 90.6996Z" fill="#E1A679"/>
<path fill-rule="evenodd" clip-rule="evenodd" d="M490.322 83.7381C493.539 87.246 498.901 94.7181 504.098 91.3817C505.44 87.8562 500.272 82.4515 496.444 84.7304C492.953 81.1239 488.829 82.1079 490.322 83.7381Z" fill="#E1A679"/>
<path fill-rule="evenodd" clip-rule="evenodd" d="M496.216 83.3173L495.602 71.4152C495.665 69.5007 496.993 68.6455 497.5 70.3877C497.688 71.0256 499.28 78.2679 499.457 79.5904L496.216 83.3173Z" fill="#E1A679"/>
<path fill-rule="evenodd" clip-rule="evenodd" d="M499.395 81.1072L500.614 68.1483C500.978 66.0985 502.427 66.2631 502.687 68.2486C502.781 68.9743 503.136 78.1678 503.114 79.6308L499.395 81.1072Z" fill="#E1A679"/>
<path fill-rule="evenodd" clip-rule="evenodd" d="M502.87 81.7007L505.458 68.9158C506.037 66.9127 507.454 67.248 507.499 69.2577C507.516 69.9934 506.457 81.0829 506.279 82.5392L502.87 81.7007Z" fill="#E1A679"/>
<path fill-rule="evenodd" clip-rule="evenodd" d="M506.255 83.644L509.127 71.6825C509.738 69.8224 511.033 70.2512 510.998 72.1674C510.986 72.8688 509.589 83.3355 509.371 84.7074L506.255 83.644Z" fill="#E1A679"/>
<path fill-rule="evenodd" clip-rule="evenodd" d="M504.025 88.0469C504.071 88.1489 504.025 88.2693 503.923 88.3145C503.821 88.3604 503.701 88.3145 503.656 88.2133C503.56 87.9993 503.449 87.7886 503.327 87.5855L503.322 87.5746C502.656 86.4602 501.632 85.4779 500.479 84.9069C499.34 84.3435 498.076 84.1855 496.917 84.7105C496.788 84.769 496.664 84.8333 496.547 84.9036C496.465 84.9512 496.362 84.9353 496.298 84.8701C495.496 84.0417 494.661 83.4606 493.871 83.0786C493.037 82.6756 492.256 82.4934 491.625 82.4733C491.022 82.4549 490.565 82.5803 490.341 82.7969C490.3 82.8378 490.267 82.8813 490.246 82.9256C490.197 83.0268 490.077 83.0686 489.976 83.0201C489.875 82.9716 489.833 82.8504 489.882 82.7509C489.925 82.6623 489.986 82.5812 490.061 82.5076C490.36 82.2167 490.922 82.0478 491.637 82.0704C492.321 82.0913 493.159 82.2852 494.047 82.7149C494.84 83.0987 495.675 83.6713 496.48 84.4772C496.571 84.4271 496.662 84.3819 496.751 84.3409C498.031 83.7608 499.417 83.9305 500.658 84.5441C501.879 85.1485 502.964 86.1885 503.669 87.3673L503.676 87.379C503.806 87.5988 503.923 87.8237 504.025 88.0469Z" fill="#662E32"/>
<path fill-rule="evenodd" clip-rule="evenodd" d="M498.507 79.5619C498.397 79.5803 498.293 79.5067 498.274 79.3964C498.256 79.2868 498.328 79.1815 498.438 79.164C499.353 79.0068 501.119 78.8889 503.411 79.2977C504.951 79.5719 506.731 80.0836 508.652 80.9797C508.753 81.0266 508.796 81.1478 508.75 81.2489C508.703 81.3493 508.582 81.3936 508.481 81.3468C506.594 80.4673 504.849 79.9657 503.34 79.6957C501.103 79.2969 499.39 79.4089 498.507 79.5619Z" fill="#662E32"/>
<path fill-rule="evenodd" clip-rule="evenodd" d="M495.946 93.4913L496.935 90.4725C500.188 89.4919 505.726 89.8255 508.499 91.8394L508.073 96.4708C505.418 96.9983 499.862 97.2458 495.946 93.4913Z" fill="#6B635C"/>
<path fill-rule="evenodd" clip-rule="evenodd" d="M420.629 147.76C430.6 143.043 445.115 137.737 456.092 137.043C466.963 141.459 475.473 194.443 478.358 208.916C479.905 216.672 480.755 220.686 473.419 223.751C459.704 229.484 444.053 228.9 428.434 225.549C418.173 223.348 427.32 216.651 426.169 206.5C423.273 180.953 417.871 152.243 420.629 147.76Z" fill="#AB8F7F"/>
<path fill-rule="evenodd" clip-rule="evenodd" d="M449.802 138.697C464.5 133.027 473.75 130.261 480.949 124.822C489.176 110.792 492.797 94.1493 496.443 93.3685C500.689 92.4598 504.627 93.9403 508.118 95.7243C513.038 98.2415 499.316 130.124 497.146 135.334C494.717 141.164 471.416 156.823 463.094 162.22C449.138 160.613 450.475 145.857 449.802 138.697Z" fill="#AB8F7F"/>
<path fill-rule="evenodd" clip-rule="evenodd" d="M417.137 158.714C417.082 158.602 417.127 158.465 417.24 158.409C417.352 158.353 417.489 158.399 417.545 158.511C418.489 160.403 419.276 162.726 420.051 165.807C420.821 168.872 421.58 172.699 422.467 177.61C422.488 177.733 422.407 177.851 422.283 177.873C422.16 177.894 422.042 177.813 422.021 177.689C421.136 172.795 420.38 168.981 419.61 165.918C418.845 162.87 418.066 160.576 417.137 158.714Z" fill="#6B635C"/>
<path fill-rule="evenodd" clip-rule="evenodd" d="M483.28 127.516C483.183 127.437 483.167 127.293 483.247 127.196C483.326 127.099 483.47 127.084 483.567 127.163C483.579 127.173 487.508 130.293 488.852 134.256C488.892 134.375 488.829 134.504 488.71 134.544C488.59 134.585 488.462 134.521 488.422 134.402C487.119 130.565 483.291 127.525 483.28 127.516Z" fill="#6B635C"/>
<path fill-rule="evenodd" clip-rule="evenodd" d="M483.909 126.147C483.788 126.109 483.723 125.981 483.762 125.861C483.8 125.742 483.928 125.676 484.047 125.714C484.062 125.719 488.84 127.251 491.5 130.483C491.58 130.58 491.566 130.723 491.469 130.803C491.372 130.883 491.229 130.869 491.149 130.772C488.576 127.644 483.922 126.151 483.909 126.147Z" fill="#6B635C"/>
<path fill-rule="evenodd" clip-rule="evenodd" d="M467.468 161.27C465.985 152.366 462.791 144.44 462.782 144.417L463.26 144.226C463.27 144.248 466.483 152.224 467.977 161.186L467.468 161.27Z" fill="#6B635C"/>
<path fill-rule="evenodd" clip-rule="evenodd" d="M392.165 185.874C392.051 185.821 392.004 185.684 392.057 185.572C392.112 185.459 392.247 185.412 392.36 185.465C392.373 185.471 396.926 187.58 399.167 191.114C399.233 191.22 399.202 191.362 399.097 191.429C398.99 191.496 398.849 191.464 398.782 191.358C396.612 187.934 392.176 185.88 392.165 185.874Z" fill="#6B635C"/>
<path fill-rule="evenodd" clip-rule="evenodd" d="M367.429 201.762C370.061 204.494 370.818 206.68 370.692 212.101C369.114 213.151 367.47 214.261 364.185 215.223C359.019 216.738 353.908 205.127 358.879 202.526C362.123 202.029 364.123 202.004 367.429 201.762Z" fill="#E1A679"/>
<path fill-rule="evenodd" clip-rule="evenodd" d="M359.147 196.494C363.263 198.883 371.708 202.522 369.562 208.314C366.407 210.381 360.022 206.488 361.427 202.261C357.159 199.624 357.236 195.384 359.147 196.494Z" fill="#E1A679"/>
<path fill-rule="evenodd" clip-rule="evenodd" d="M359.999 202.341L348.241 204.29C346.384 204.761 345.834 206.242 347.644 206.364C348.307 206.41 355.722 206.416 357.052 206.306L359.999 202.341Z" fill="#E1A679"/>
<path fill-rule="evenodd" clip-rule="evenodd" d="M358.521 205.92L346.123 209.884C344.198 210.679 344.67 212.06 346.664 211.889C347.393 211.826 356.45 210.202 357.873 209.869L358.521 205.92Z" fill="#E1A679"/>
<path fill-rule="evenodd" clip-rule="evenodd" d="M359.844 209.188L347.909 214.452C346.078 215.448 346.709 216.76 348.682 216.373C349.403 216.233 360.009 212.824 361.394 212.34L359.844 209.188Z" fill="#E1A679"/>
<path fill-rule="evenodd" clip-rule="evenodd" d="M362.466 212.078L351.398 217.444C349.711 218.438 350.409 219.613 352.273 219.169C352.954 219.008 362.878 215.401 364.173 214.895L362.466 212.078Z" fill="#E1A679"/>
<path fill-rule="evenodd" clip-rule="evenodd" d="M366.375 208.561C366.484 208.584 366.554 208.691 366.53 208.8C366.508 208.91 366.401 208.979 366.291 208.956C366.051 208.905 365.808 208.837 365.565 208.757C364.258 208.322 363.004 207.484 362.15 206.418C361.284 205.336 360.822 204.018 361.115 202.644C361.136 202.546 361.161 202.448 361.19 202.348C360.229 201.735 359.491 201.041 358.946 200.349C358.337 199.574 357.968 198.798 357.802 198.134C357.627 197.441 357.673 196.856 357.891 196.502C357.946 196.412 358.014 196.335 358.091 196.274C358.179 196.204 358.306 196.22 358.375 196.308C358.444 196.396 358.429 196.523 358.341 196.591C358.301 196.624 358.264 196.665 358.234 196.713C358.072 196.977 358.046 197.45 358.194 198.035C358.348 198.649 358.694 199.372 359.265 200.099C359.807 200.789 360.554 201.482 361.535 202.087C361.613 202.136 361.65 202.233 361.621 202.322C361.576 202.455 361.539 202.59 361.51 202.726C361.247 203.97 361.671 205.171 362.466 206.163C363.272 207.169 364.456 207.961 365.691 208.372C365.916 208.449 366.145 208.512 366.375 208.561Z" fill="#662E32"/>
<path fill-rule="evenodd" clip-rule="evenodd" d="M356.417 205.401C356.413 205.289 356.5 205.195 356.611 205.191C356.722 205.186 356.816 205.273 356.822 205.383C356.862 206.278 357.119 207.976 357.987 210.075C358.572 211.49 359.438 213.088 360.701 214.744C360.769 214.832 360.751 214.959 360.662 215.026C360.575 215.094 360.447 215.079 360.38 214.989C359.093 213.303 358.211 211.674 357.613 210.229C356.723 208.077 356.459 206.328 356.417 205.401Z" fill="#662E32"/>
<path fill-rule="evenodd" clip-rule="evenodd" d="M436.692 135.717C424.376 138.292 425.633 152.981 432.948 157.695L439.154 150.602L447.474 154.692C451.823 143.222 447.896 133.375 436.692 135.717Z" fill="#6B635C"/>
<path fill-rule="evenodd" clip-rule="evenodd" d="M428.434 131.317L429.491 140.681C430.114 146.196 437.17 149.244 438.5 149.053C440.578 148.753 445.553 143.483 444.941 138.778L443.807 130.051L428.434 131.317Z" fill="#E1A679"/>
<path fill-rule="evenodd" clip-rule="evenodd" d="M442.745 123.38L444.847 138.288C442.003 144.246 433.678 145.998 429.478 140.173L427.709 126.655L442.745 123.38Z" fill="#C07452"/>
<path fill-rule="evenodd" clip-rule="evenodd" d="M417.239 122.926C419.094 122.686 421.517 124.529 422.653 127.041C423.788 129.554 423.203 131.785 421.348 132.024C419.492 132.264 417.07 130.422 415.934 127.91C414.798 125.397 415.383 123.166 417.239 122.926Z" fill="#E1A679"/>
<path fill-rule="evenodd" clip-rule="evenodd" d="M417.862 125.47C417.181 125.4 416.601 125.948 417.193 127.47C417.784 128.993 419.256 129.69 419.256 129.69C419.256 129.69 419.214 128.373 419.95 128.338C420.685 128.302 421.159 128.536 421.159 128.536C421.159 128.536 420.296 125.826 417.862 125.47Z" fill="#6B635C"/>
<path fill-rule="evenodd" clip-rule="evenodd" d="M417.28 127.534C417.318 127.625 417.275 127.727 417.185 127.765C417.094 127.802 416.991 127.759 416.954 127.668C416.623 126.866 416.578 126.292 416.721 125.913C416.821 125.651 417.004 125.481 417.244 125.392C417.467 125.31 417.738 125.302 418.03 125.359C418.773 125.503 419.691 126.075 420.335 126.899C420.727 127.402 421.113 127.995 421.262 128.343C421.309 128.451 421.337 128.544 421.338 128.616C421.344 128.793 421.265 128.884 421.085 128.869C421.008 128.862 420.904 128.816 420.772 128.72C420.56 128.568 420.292 128.485 420.04 128.49C419.882 128.492 419.732 128.53 419.612 128.607C419.497 128.68 419.408 128.792 419.361 128.946C419.3 129.15 419.312 129.43 419.431 129.796C419.462 129.888 419.411 129.989 419.317 130.02C419.225 130.05 419.125 130.001 419.094 129.906C418.949 129.468 418.941 129.116 419.023 128.845C419.095 128.603 419.238 128.426 419.421 128.308C419.599 128.195 419.812 128.14 420.033 128.135C420.322 128.13 420.628 128.214 420.884 128.37C420.72 128.04 420.391 127.548 420.055 127.117C419.464 126.361 418.63 125.836 417.963 125.706C417.733 125.662 417.527 125.666 417.366 125.725C417.22 125.778 417.11 125.881 417.051 126.039C416.938 126.336 416.987 126.822 417.28 127.534Z" fill="#232733"/>
<path fill-rule="evenodd" clip-rule="evenodd" d="M452.386 118.384C450.53 118.623 448.655 121.021 448.196 123.74C447.737 126.458 448.87 128.467 450.724 128.227C452.58 127.988 454.456 125.59 454.915 122.871C455.373 120.154 454.242 118.144 452.386 118.384Z" fill="#E1A679"/>
<path fill-rule="evenodd" clip-rule="evenodd" d="M452.43 121.002C453.069 120.762 453.771 121.145 453.585 122.767C453.4 124.39 452.155 125.439 452.155 125.439C452.155 125.439 451.861 124.155 451.14 124.307C450.419 124.46 450.02 124.808 450.02 124.808C450.02 124.808 450.166 121.966 452.43 121.002Z" fill="#6B635C"/>
<path fill-rule="evenodd" clip-rule="evenodd" d="M453.515 122.85C453.503 122.947 453.57 123.037 453.667 123.049C453.764 123.063 453.855 122.994 453.866 122.896C453.983 122.037 453.881 121.47 453.646 121.14C453.483 120.912 453.263 120.793 453.008 120.77C452.77 120.746 452.506 120.807 452.238 120.937C451.556 121.265 450.813 122.053 450.401 123.012C450.149 123.598 449.926 124.269 449.87 124.644C449.853 124.761 449.85 124.858 449.866 124.927C449.906 125.1 450.006 125.168 450.175 125.108C450.248 125.082 450.336 125.01 450.44 124.884C450.607 124.682 450.845 124.533 451.089 124.475C451.243 124.436 451.397 124.435 451.532 124.48C451.661 124.522 451.777 124.607 451.861 124.744C451.973 124.926 452.033 125.199 452.01 125.582C452.004 125.68 452.078 125.765 452.176 125.771C452.273 125.776 452.357 125.702 452.363 125.604C452.392 125.143 452.311 124.801 452.163 124.56C452.032 124.344 451.848 124.21 451.642 124.143C451.442 124.078 451.221 124.078 451.005 124.13C450.725 124.199 450.45 124.357 450.242 124.574C450.318 124.212 450.51 123.652 450.726 123.151C451.104 122.269 451.778 121.55 452.391 121.254C452.601 121.152 452.801 121.104 452.972 121.121C453.126 121.136 453.259 121.206 453.356 121.345C453.544 121.606 453.618 122.087 453.515 122.85Z" fill="#232733"/>
<path fill-rule="evenodd" clip-rule="evenodd" d="M437.619 139.997C447.498 138.487 451.478 126.977 449.042 111.572C446.402 94.8763 414.994 97.233 417.886 115.531C420.323 130.936 428.44 141.294 437.619 139.997Z" fill="#E1A679"/>
<path fill-rule="evenodd" clip-rule="evenodd" d="M443.365 103.362C445.188 102.077 446.147 102.042 447.237 102.511C452.88 104.934 450.748 125.42 449.126 124.191C448.28 123.549 447.473 116.477 447.473 116.477C447.473 116.477 440.943 111.273 443.365 103.362Z" fill="#232733"/>
<path fill-rule="evenodd" clip-rule="evenodd" d="M417.101 106.471C415.951 108.267 416.495 114.097 416.941 116.517C417.3 118.472 421.27 128.676 421.796 127.543C422.265 126.535 421.544 121.325 421.544 121.325C428.539 110.421 418.172 104.795 417.101 106.471Z" fill="#232733"/>
<path fill-rule="evenodd" clip-rule="evenodd" d="M446.595 102.111C444.783 110.162 439.152 110.99 440.296 108.537C437.729 110.81 429.066 112.605 433.158 109.51C431.883 110.149 419.095 115.858 423.051 110.336C413.459 114.582 413.985 105.706 420.079 101.293C426.511 96.6369 439.33 93.2704 446.595 102.111Z" fill="#232733"/>
<path fill-rule="evenodd" clip-rule="evenodd" d="M415.962 106.685C416.551 104.865 417.947 102.871 419.976 101.37C426.954 104.105 436.14 101.281 441.035 97.8965C441.949 98.2902 442.835 98.781 443.679 99.3796C437.596 106.697 425.97 109.026 415.962 106.685Z" fill="#464A5C"/>
<path fill-rule="evenodd" clip-rule="evenodd" d="M445.415 101.634C445.415 101.634 444.201 99.0526 445.011 98.347C445.82 97.6415 446.596 102.11 446.596 102.11L445.415 101.634Z" fill="#232733"/>
<path fill-rule="evenodd" clip-rule="evenodd" d="M446.275 102.206C446.633 96.8426 448.608 99.2913 447.182 102.655L446.275 102.206Z" fill="#232733"/>
<path fill-rule="evenodd" clip-rule="evenodd" d="M437.735 125.405C436.426 126.087 435.05 126.282 433.527 125.936C434.495 127.851 437.227 128.004 437.735 125.405Z" fill="#C07452"/>
<path fill-rule="evenodd" clip-rule="evenodd" d="M437.865 123.576C438.068 123.893 437.976 124.315 437.66 124.518C437.343 124.721 436.92 124.629 436.717 124.312C436.554 124.058 436.396 123.725 436.258 123.377C436.105 122.993 435.973 122.576 435.886 122.227C435.795 121.861 436.018 121.491 436.382 121.399C436.748 121.308 437.119 121.53 437.211 121.896C437.283 122.185 437.395 122.54 437.528 122.875V122.878C437.634 123.151 437.752 123.401 437.865 123.576Z" fill="#F0D4B8"/>
<path fill-rule="evenodd" clip-rule="evenodd" d="M441.33 128.279C441.609 129.624 440.97 131.501 440.038 132.305C438.073 133.997 435.921 134.314 433.55 133.405C432.241 132.903 430.9 131.077 430.918 129.625C432.527 129.588 434.297 129.456 436.15 129.216C438.008 128.977 439.761 128.655 441.33 128.279Z" fill="white"/>
<path fill-rule="evenodd" clip-rule="evenodd" d="M441.349 129.6C441.197 130.66 440.688 131.743 440.039 132.304C438.074 133.996 435.922 134.314 433.551 133.404C432.612 133.045 431.656 132.004 431.199 130.909C432.777 130.869 434.509 130.736 436.317 130.502C438.117 130.27 439.817 129.96 441.349 129.6Z" fill="#232733"/>
<path fill-rule="evenodd" clip-rule="evenodd" d="M440.31 132.031C440.223 132.132 440.131 132.223 440.038 132.305C438.073 133.997 435.921 134.315 433.55 133.405C433.305 133.312 433.061 133.173 432.823 132.998C433.008 132.769 433.21 132.572 433.422 132.419C435.484 130.937 437.647 130.696 439.977 131.835C440.088 131.889 440.2 131.955 440.31 132.031Z" fill="#6B635C"/>
<path fill-rule="evenodd" clip-rule="evenodd" d="M428.673 118.809C427.847 118.916 427.301 119.951 427.452 121.121C427.604 122.292 428.395 123.154 429.22 123.047C430.047 122.94 430.594 121.905 430.443 120.735C430.291 119.565 429.5 118.702 428.673 118.809Z" fill="#232733"/>
<path fill-rule="evenodd" clip-rule="evenodd" d="M440.736 117.25C439.91 117.357 439.363 118.393 439.515 119.563C439.666 120.733 440.458 121.596 441.284 121.489C442.11 121.382 442.657 120.347 442.505 119.177C442.355 118.006 441.563 117.144 440.736 117.25Z" fill="#232733"/>
<path fill-rule="evenodd" clip-rule="evenodd" d="M440.136 117.283C439.821 117.294 439.577 117.569 439.594 117.896C439.612 118.225 439.88 118.482 440.194 118.472C440.51 118.462 440.754 118.187 440.736 117.859C440.719 117.532 440.45 117.273 440.136 117.283Z" fill="white"/>
<path fill-rule="evenodd" clip-rule="evenodd" d="M427.673 119.009C427.977 118.925 428.293 119.117 428.379 119.435C428.465 119.753 428.289 120.078 427.984 120.16C427.68 120.244 427.365 120.052 427.279 119.734C427.193 119.417 427.37 119.092 427.673 119.009Z" fill="white"/>
<path fill-rule="evenodd" clip-rule="evenodd" d="M439.254 135C439.357 135.467 439.09 136.126 438.714 136.412C437.923 137.015 437.063 137.14 436.125 136.838C435.608 136.672 435.087 136.043 435.104 135.536C435.743 135.513 436.448 135.455 437.187 135.359C437.928 135.265 438.628 135.141 439.254 135Z" fill="#C07452"/>
<path fill-rule="evenodd" clip-rule="evenodd" d="M439.63 115.974C441.876 115.044 441.824 115.502 444.097 115.438C442.697 113.687 441.004 113.771 438.983 114.148C438.48 114.327 438.215 114.881 438.393 115.385C438.572 115.889 439.127 116.153 439.63 115.974Z" fill="#232733"/>
<path fill-rule="evenodd" clip-rule="evenodd" d="M429.333 117.374C426.94 116.946 427.089 117.382 424.856 117.807C425.848 115.797 427.52 115.517 429.575 115.452C430.106 115.519 430.483 116.003 430.416 116.534C430.349 117.065 429.863 117.441 429.333 117.374Z" fill="#232733"/>
<path fill-rule="evenodd" clip-rule="evenodd" d="M442.777 122.483C444.28 122.281 445.584 122.76 445.69 123.552C445.797 124.345 444.665 125.151 443.163 125.353C441.66 125.555 440.356 125.077 440.249 124.284C440.141 123.491 441.274 122.685 442.777 122.483ZM427.406 124.601C428.908 124.4 430.213 124.878 430.32 125.671C430.427 126.463 429.295 127.27 427.792 127.472C426.289 127.674 424.985 127.195 424.878 126.403C424.771 125.61 425.903 124.804 427.406 124.601Z" fill="#C9676B"/>
</svg>
