<svg width="200" height="52" viewBox="0 0 200 52" fill="none" xmlns="http://www.w3.org/2000/svg">
<g clip-path="url(#clip0_280_10700)">
<path d="M0 31.4508C0 22.3812 6.56922 15.7295 16.5888 15.7295C24.6112 15.7295 28.5714 19.9201 29.1748 23.3277L28.4525 23.4138C27.6026 18.1905 20.9909 16.4609 16.5973 16.4609C9.39067 16.4609 3.94323 22.2865 3.94323 31.4422C3.94323 41.1142 10.2405 46.3375 16.5973 46.3375C19.7077 46.3805 25.682 46.2944 30.5855 41.4154L31.0954 41.8887C25.9794 46.9828 19.7926 47.1549 16.5973 47.1549C6.56922 47.1635 0 40.4344 0 31.4508Z" fill="white"/>
<path d="M33.05 14.3877H36.1009V37.4921C36.9932 32.0968 39.2963 24.1888 45.823 24.1888C52.8596 24.1888 55.5451 28.2503 55.5451 36.537V46.4671H52.0268V31.176C52.0268 26.4691 48.381 24.9546 45.8145 24.9546C37.2822 24.9546 36.0924 40.1597 36.0924 46.4585H33.0415V14.3877H33.05Z" fill="white"/>
<path d="M127.968 14.043V46.131H125.215V14.043H127.968Z" fill="white"/>
<path d="M131.495 38.2755C131.495 34.3 134.223 31.839 137.767 31.0645L135.183 29.8082C136.509 27.6053 138.064 23.8535 145.781 23.8535C150.939 23.8535 154.755 25.1098 154.755 32.579V46.0974L151.279 46.1405V35.2982L151.194 35.8145C150.302 41.4679 148.254 46.8289 141.557 46.8289C135.846 46.8289 131.495 45.3574 131.495 38.2755ZM134.435 38.7057C134.435 44.3592 139.007 46.0888 141.523 46.0888C149.367 46.0888 150.565 37.5785 151.075 31.3657H142.925C139.475 31.3657 134.435 33.3104 134.435 38.7057ZM141.523 30.6343H151.16C151.16 26.2285 150.905 24.3698 145.534 24.3698C140.928 24.3698 139.475 29.7221 139.475 30.7633C140.112 30.6773 140.801 30.6343 141.523 30.6343Z" fill="white"/>
<path d="M157.211 25.2731V24.5417H160.925V15.9453H164.392V24.5417H174.327V25.2731H164.392V39.8672C164.392 44.5741 166.483 46.0886 168.998 46.0886C172.797 46.0886 175.567 43.1113 177.191 37.2341L177.913 37.4062C176.672 41.7689 174.242 46.82 169.041 46.82C161.962 46.82 160.925 44.0148 160.925 33.1725L160.882 25.2731H157.211Z" fill="white"/>
<path d="M176.63 35.3754C176.63 27.9062 182.816 23.8877 189.556 23.8877C198.513 23.8877 199.448 30.1952 199.448 37.3631H180.088C180.343 41.5968 184.61 46.0886 189.556 46.0886C193.439 46.0886 196.89 44.9183 199.66 42.5003L200 42.9306C199.278 43.5329 196.159 46.82 189.547 46.82C181.482 46.82 176.621 41.941 176.621 35.3754H176.63ZM180.046 36.6661H198.725C198.725 30.1866 197.4 24.5761 189.556 24.5761C183.454 24.5761 179.876 32.0883 180.046 36.6661Z" fill="white"/>
<path d="M114.906 40.8315C108.481 49.6 100.229 48.662 95.9718 47.6983C91.3911 46.6571 84.652 40.0828 85.5188 31.8134C85.6803 30.2818 86.5131 26.4353 89.394 22.8212C88.5527 21.5821 86.8615 19.7406 86.1477 19.4395C84.312 21.453 83.1478 23.6559 82.8503 24.2669C76.3491 37.8369 84.9154 50.9165 97.4675 51.7168C107.156 52.3364 112.977 48.0425 114.906 40.8401V40.8315Z" fill="white"/>
<path d="M118.059 28.199C115.365 21.3925 109.51 19.551 105.745 18.9229C110.376 21.0999 114.974 25.5573 116.189 31.3915C117.498 37.6817 117.192 46.5363 107.538 51.4239C117.592 49.5222 120.039 40.16 119.291 33.4825C119.189 32.4241 118.79 30.0233 118.067 28.1904L118.059 28.199Z" fill="white"/>
<path d="M74.2925 2.79662L68.964 0L68.2162 0.370015L72.7968 3.53665L74.2925 2.79662Z" fill="white"/>
<path d="M74.4029 3.23535L72.9667 3.94096L71.301 12.6664L74.4029 3.23535Z" fill="white"/>
<path d="M58.919 4.93935L57.8057 10.894L59.3014 10.1626L59.6668 4.56934L58.919 4.93935Z" fill="white"/>
<path d="M58.0776 11.2554L67.3408 14.6114L59.5224 10.5498L58.0861 11.2554H58.0776Z" fill="white"/>
<path d="M68.8025 5.98869L70.4512 14.783L72.4738 4.18164L68.8025 5.98869Z" fill="white"/>
<path d="M60.0067 10.3092L69.5164 15.2485L63.6865 8.51074L60.0152 10.3178L60.0067 10.3092Z" fill="white"/>
<path d="M63.4825 8.10591L62.2673 3.28711L60.1257 4.33692L59.7603 9.93017L63.4825 8.10591Z" fill="white"/>
<path d="M72.3378 3.76039L67.7572 0.59375L65.6156 1.64356L68.624 5.57604L72.3463 3.75178L72.3378 3.76039Z" fill="white"/>
<path d="M70.0773 15.2134L68.3861 6.19531L64.0945 8.30354L70.0773 15.2134Z" fill="white"/>
<path d="M68.2077 5.78209L65.1993 1.84961L63.933 2.46917L62.6667 3.08873L63.882 7.90753L68.2077 5.78209Z" fill="white"/>
<path d="M97.2806 14.4909C94.884 14.7576 92.1731 15.6697 90.074 16.7282C90.8048 17.1928 91.9946 18.1566 93.4478 20.0411C94.969 19.172 97.3656 18.148 100.714 17.778C105.337 17.2703 108.269 18.0877 111.779 19.542C107.742 14.8178 101.147 14.0606 97.2806 14.4909Z" fill="white"/>
<path d="M78.5671 14.1553C68.2501 14.1553 59.8793 22.6312 59.8793 33.0777C59.8793 43.5241 68.2501 52 78.5671 52C81.6945 52 85.9437 51.2256 87.9663 49.7628C87.3119 49.3153 86.3006 48.4978 84.7539 47.0178C82.7398 47.9471 80.3348 48.3773 77.9892 48.3773C69.3634 48.3773 62.1738 40.9512 62.0803 32.2172C61.9869 23.6638 69.3974 15.3858 78.5671 15.5321C87.1929 15.6611 93.6432 23.6982 93.6432 32.4323C93.6432 36.5455 92.7424 39.3851 90.0994 42.4227C90.5073 43.0336 92.2325 44.5223 92.8868 44.8149C95.8868 41.4589 97.255 37.9567 97.255 33.0777C97.255 22.6312 88.8841 14.1553 78.5671 14.1553Z" fill="white"/>
</g>
<defs>
<clipPath id="clip0_280_10700">
<rect width="200" height="52" fill="white"/>
</clipPath>
</defs>
</svg>
