<svg width="146.000000" height="118.000000" viewBox="0 0 146 118" fill="none" xmlns="http://www.w3.org/2000/svg" xmlns:xlink="http://www.w3.org/1999/xlink">
	<desc>
			Created with Pixso.
	</desc>
	<defs>
		<clipPath id="clip33_1275">
			<rect id="Love story" width="146.000000" height="118.000000" fill="white" fill-opacity="0"/>
		</clipPath>
	</defs>
	<rect id="Love story" width="146.000000" height="118.000000" fill="#FFFFFF" fill-opacity="0"/>
	<g clip-path="url(#clip33_1275)">
		<ellipse id="Ellipse 19" cx="119.207520" cy="19.019531" rx="19.026592" ry="19.019737" fill="#FFE6C0" fill-opacity="1.000000"/>
		<ellipse id="Ellipse 20" cx="19.026855" cy="102.861816" rx="11.260638" ry="11.256580" fill="#FFE6C0" fill-opacity="1.000000"/>
		<path id="20 Love" d="M54.8113 19.7705C54.9084 19.9829 55.0471 20.1738 55.219 20.3315C55.3911 20.4897 55.5928 20.6118 55.8127 20.6904C56.0325 20.7695 56.2659 20.8037 56.499 20.791C56.7322 20.7788 56.9607 20.7197 57.1707 20.6177C57.3809 20.5156 57.5684 20.373 57.7224 20.1973C57.8765 20.022 57.9939 19.8174 58.0679 19.5962C58.1418 19.3745 58.1707 19.1406 58.1528 18.9077C58.135 18.6748 58.0708 18.4482 57.9639 18.2402L53.5469 9.14795C53.3435 8.72998 52.9827 8.41016 52.5432 8.2583C52.1038 8.10645 51.6221 8.13525 51.2041 8.33838C50.7859 8.5415 50.4658 8.90234 50.314 9.3418C50.1621 9.78125 50.1909 10.2627 50.3943 10.6807L54.8113 19.7705ZM73.0076 17.2544C73.4724 17.2544 73.9182 17.0698 74.2471 16.7412C74.5757 16.4126 74.7603 15.9673 74.7603 15.5024L74.7603 6.40967C74.7603 5.94531 74.5757 5.49951 74.2471 5.1709C73.9182 4.84229 73.4724 4.65771 73.0076 4.65771C72.5427 4.65771 72.0969 4.84229 71.7681 5.1709C71.4395 5.49951 71.2549 5.94531 71.2549 6.40967L71.2549 15.5024C71.2549 15.9673 71.4395 16.4126 71.7681 16.7412C72.0969 17.0698 72.5427 17.2544 73.0076 17.2544ZM88.8621 20.5815C89.0688 20.6816 89.2932 20.7402 89.5227 20.7539C89.752 20.7676 89.9817 20.7354 90.1987 20.6602C90.4158 20.585 90.616 20.4678 90.7876 20.3149C90.9592 20.1626 91.0991 19.9775 91.1992 19.7705L95.6162 10.6807C95.7168 10.4736 95.7759 10.249 95.7896 10.019C95.8035 9.78955 95.7717 9.55908 95.6965 9.3418C95.6213 9.12451 95.5042 8.92383 95.3513 8.75146C95.1987 8.57959 95.0134 8.43896 94.8064 8.33838C94.5994 8.23779 94.3748 8.17871 94.1448 8.16504C93.915 8.15137 93.6848 8.18311 93.4673 8.2583C93.2498 8.3335 93.0491 8.45068 92.877 8.60303C92.7046 8.75586 92.5642 8.94092 92.4636 9.14795L88.0466 18.2402C87.946 18.4478 87.8872 18.6724 87.8738 18.9023C87.8604 19.1323 87.8923 19.3628 87.9683 19.5801C88.0439 19.7979 88.1619 19.998 88.3154 20.1699C88.4688 20.3418 88.6545 20.4814 88.8621 20.5815ZM107.83 26.5435C108.067 26.6606 108.329 26.7217 108.594 26.7207C108.923 26.7217 109.246 26.6289 109.525 26.4541C109.804 26.2793 110.028 26.0293 110.171 25.7329L112.618 20.7007C112.719 20.4937 112.778 20.269 112.792 20.0391C112.805 19.8096 112.774 19.5791 112.699 19.3618C112.624 19.1445 112.506 18.9438 112.354 18.7715C112.201 18.5996 112.016 18.459 111.809 18.3584C111.602 18.2578 111.377 18.1987 111.147 18.1851C110.917 18.1714 110.687 18.2031 110.469 18.2783C110.252 18.3535 110.051 18.4707 109.879 18.623C109.707 18.7759 109.566 18.9609 109.466 19.168L107.019 24.2026C106.918 24.4092 106.859 24.6343 106.845 24.8638C106.832 25.0933 106.863 25.3237 106.938 25.541C107.014 25.7583 107.131 25.959 107.284 26.1309C107.437 26.3027 107.623 26.4429 107.83 26.5435ZM113.719 93.915L113.684 93.873L108.746 88.2661C106.798 86.0488 104.336 84.3428 101.576 83.2974C98.8154 82.2524 95.8406 81.8999 92.9124 82.2715L78.1724 84.1401C76.5903 84.3481 74.9287 83.1499 74.7769 81.5425C74.72 80.9692 74.8367 80.3926 75.1116 79.8862C75.3867 79.3804 75.8074 78.9683 76.3191 78.7041L89.9607 71.833C93.113 70.2148 95.5569 67.4902 96.824 64.1821C98.0911 60.8735 98.092 57.2144 96.8269 53.9053L95.9106 51.5103C95.2971 49.9087 94.3513 48.4551 93.1353 47.2456C91.9194 46.0356 90.4609 45.0967 88.856 44.4907C87.251 43.8848 85.5359 43.625 83.8235 43.7295C82.1108 43.8335 80.4399 44.2988 78.9204 45.0952C78.3025 45.4209 77.5859 45.5073 76.9084 45.3374C76.2307 45.1675 75.6399 44.7534 75.2488 44.1748C75.0303 43.855 74.8801 43.4937 74.8081 43.1133C74.7361 42.7329 74.7439 42.3418 74.8306 41.9648C75.1414 40.5889 76.5505 39.918 77.6912 39.25C81.4797 37.0278 85.9663 36.313 90.2583 37.2476C94.5503 38.1821 98.3328 40.6978 100.854 44.2939C101.12 44.6748 101.528 44.9336 101.986 45.0146C102.444 45.0952 102.915 44.9907 103.296 44.7236C103.677 44.457 103.936 44.0498 104.017 43.5923C104.097 43.1343 103.993 42.6631 103.726 42.2822C101.78 39.5137 99.1951 37.2544 96.1912 35.6943C93.459 34.2705 90.4456 33.4692 87.3667 33.3481C84.2881 33.2271 81.2207 33.7891 78.3853 34.9937C78.2576 34.4097 78.3179 33.8003 78.5576 33.2524C78.7971 32.7051 79.2039 32.2471 79.7197 31.9448C85.387 28.646 92.3396 27.6064 98.1404 30.606C100.641 31.9048 102.793 33.7861 104.413 36.0913L114.158 49.999C114.291 50.1875 114.458 50.3481 114.652 50.4717C114.846 50.5957 115.063 50.6797 115.29 50.7197C115.516 50.7598 115.749 50.7549 115.973 50.7051C116.198 50.6553 116.411 50.562 116.6 50.4302C116.788 50.2979 116.949 50.1304 117.073 49.936C117.196 49.7422 117.281 49.5259 117.321 49.2993C117.361 49.0728 117.356 48.8403 117.306 48.6157C117.256 48.3911 117.163 48.1782 117.031 47.9897L107.283 34.0825C105.339 31.3125 102.755 29.0522 99.7505 27.4941C92.6692 23.8262 84.7607 24.9243 77.9482 28.9214C76.6562 29.6782 75.6743 30.8672 75.1763 32.2788C74.6785 33.6899 74.6965 35.2319 75.2278 36.6313C74.4133 37.0493 73.665 37.5854 73.0076 38.2222C72.354 37.5806 71.605 37.0439 70.7874 36.6313C71.3186 35.2319 71.3369 33.6899 70.8389 32.2788C70.3408 30.8672 69.3589 29.6782 68.0671 28.9214L66.5364 28.02C61.9878 25.3496 56.5999 24.4902 51.446 25.6133C46.292 26.7358 41.7502 29.7578 38.7253 34.0776L13.4968 70.0835C13.2483 70.4644 13.1575 70.9268 13.2437 71.373C13.3301 71.8198 13.5867 72.2153 13.9592 72.4761C14.3318 72.7368 14.7913 72.8428 15.2407 72.771C15.6899 72.6997 16.0938 72.4561 16.3667 72.0923L41.6069 36.0869C44.1287 32.4922 47.9114 29.9775 52.2029 29.043C56.4944 28.1084 60.9805 28.8223 64.7695 31.043C66.0945 31.8184 68.0601 33.0918 67.6348 34.9888C64.7991 33.7842 61.7317 33.2222 58.6531 33.3433C55.5745 33.4648 52.5608 34.2656 49.8286 35.6895C46.8247 37.2495 44.2405 39.5093 42.2939 42.2778C42.1619 42.4663 42.0681 42.6792 42.0183 42.9038C41.9685 43.1284 41.9634 43.3608 42.0032 43.5874C42.0432 43.814 42.1274 44.0308 42.251 44.2251C42.3748 44.4189 42.5354 44.5869 42.7241 44.7192C42.9126 44.8511 43.1255 44.9448 43.3501 44.9946C43.575 45.0444 43.8074 45.0498 44.0342 45.0098C44.261 44.9697 44.4778 44.8857 44.6719 44.7622C44.8662 44.6382 45.0342 44.4775 45.1663 44.2891C47.6877 40.6929 51.4717 38.1772 55.7646 37.2437C60.0576 36.3096 64.5449 37.0259 68.3335 39.25L69.8618 40.145C70.501 40.5195 70.968 41.1294 71.1628 41.8438C71.3579 42.5586 71.2651 43.3208 70.9045 43.9683C70.5442 44.6152 69.9446 45.0952 69.2344 45.3062C68.5239 45.5166 67.7593 45.4409 67.1042 45.0952C65.5842 44.2974 63.9124 43.8306 62.1987 43.7256C60.4854 43.6206 58.769 43.8794 57.1628 44.4858C55.5566 45.0918 54.0972 46.0312 52.8806 47.2422C51.6641 48.4526 50.7178 49.9077 50.1045 51.5103L49.1907 53.9028C47.925 57.2144 47.9272 60.8765 49.197 64.1865C50.4668 67.4966 52.9148 70.2212 56.071 71.8379L69.6843 78.6968C70.1995 78.9595 70.6238 79.3711 70.9014 79.8784C71.179 80.3857 71.2974 80.9648 71.2407 81.54C71.0913 83.1406 69.418 84.3438 67.845 84.1382L59.4526 83.0728C59.2244 83.0439 58.9929 83.0601 58.771 83.1206C58.5491 83.1812 58.3411 83.2847 58.1594 83.4253C57.9775 83.5659 57.8252 83.7412 57.7109 83.9409C57.5969 84.1406 57.5232 84.3608 57.4941 84.5889C57.4651 84.8169 57.4814 85.0483 57.542 85.2705C57.6025 85.4922 57.7061 85.7002 57.8469 85.8818C57.9878 86.0635 58.1631 86.2158 58.3628 86.3301C58.5625 86.4438 58.7827 86.5176 59.011 86.5469L67.3987 87.6143C68.425 87.7354 69.4656 87.6172 70.4387 87.269C71.4119 86.9209 72.291 86.3521 73.0076 85.6074C73.7236 86.3525 74.603 86.9219 75.5762 87.27C76.5493 87.6182 77.5901 87.7358 78.6165 87.6143L93.3564 85.7451C95.7158 85.4473 98.1125 85.7314 100.337 86.5737C102.561 87.416 104.545 88.7905 106.114 90.5767L111.036 96.1836L125.023 113.137C125.168 113.321 125.347 113.474 125.552 113.587C125.756 113.7 125.981 113.771 126.213 113.797C126.446 113.822 126.681 113.8 126.904 113.733C127.128 113.666 127.336 113.555 127.517 113.407C127.697 113.258 127.846 113.075 127.954 112.868C128.062 112.661 128.128 112.435 128.148 112.202C128.168 111.969 128.141 111.735 128.068 111.513C127.996 111.291 127.88 111.085 127.727 110.909L113.719 93.915ZM73.0076 76.8701C72.5078 76.3442 71.9233 75.9058 71.2781 75.5732L57.6648 68.7144C55.2795 67.4902 53.4299 65.4292 52.4707 62.9263C51.5117 60.4229 51.5105 57.6543 52.4673 55.1504L53.3762 52.7603C53.8132 51.6211 54.4863 50.5874 55.3513 49.7271C56.2166 48.8662 57.2542 48.1987 58.3958 47.7676C59.5376 47.3369 60.7576 47.1523 61.9758 47.2266C63.1938 47.3003 64.3826 47.6313 65.4636 48.1978C66.6843 48.8394 68.0811 49.0654 69.4419 48.8423C70.803 48.6187 72.054 47.958 73.0054 46.9595C73.9565 47.958 75.2075 48.6187 76.5684 48.8423C77.9294 49.0654 79.3262 48.8394 80.5469 48.1978C81.6282 47.6309 82.8171 47.2988 84.0359 47.2246C85.2546 47.1499 86.4753 47.3345 87.6177 47.7651C88.7598 48.1963 89.7979 48.8643 90.6633 49.7251C91.5288 50.5859 92.2021 51.6206 92.6389 52.7603L93.5527 55.1504C94.5071 57.6509 94.5061 60.415 93.5498 62.915C92.5935 65.4146 90.749 67.4746 88.3691 68.7002L74.7275 75.5732C74.0854 75.9058 73.5039 76.3442 73.0076 76.8701ZM132.521 70.0835L120.819 53.3843C120.552 53.0034 120.145 52.7441 119.687 52.6636C119.229 52.583 118.758 52.6875 118.377 52.9541C117.996 53.2212 117.737 53.6279 117.656 54.0859C117.575 54.5439 117.68 55.0146 117.947 55.3955L129.651 72.0923C129.779 72.2891 129.946 72.458 130.141 72.5894C130.336 72.7202 130.555 72.8105 130.786 72.8555C131.017 72.8999 131.254 72.8975 131.484 72.8486C131.714 72.7998 131.932 72.7051 132.124 72.5703C132.317 72.4355 132.48 72.2632 132.605 72.064C132.729 71.8647 132.813 71.6426 132.85 71.4106C132.887 71.1787 132.876 70.9419 132.82 70.7139C132.764 70.4858 132.662 70.2715 132.521 70.0835ZM53.1028 82.2622C50.1748 81.8911 47.2004 82.2437 44.4404 83.2886C41.6804 84.334 39.219 86.0396 37.2717 88.2568L32.3428 93.873L32.3079 93.915L18.2925 110.892C18.1396 111.069 18.0237 111.274 17.9514 111.497C17.8792 111.719 17.8521 111.953 17.8718 112.186C17.8914 112.418 17.9573 112.645 18.0657 112.852C18.1743 113.059 18.323 113.242 18.5032 113.39C18.6836 113.539 18.8916 113.65 19.1155 113.717C19.3394 113.784 19.5742 113.806 19.8066 113.78C20.0388 113.755 20.2637 113.684 20.468 113.571C20.6724 113.458 20.8521 113.305 20.9963 113.121L34.9836 96.167L39.9055 90.5601C41.4773 88.7739 43.4634 87.4004 45.6897 86.5596C47.916 85.7192 50.3145 85.437 52.6753 85.7383C52.9053 85.771 53.1396 85.7573 53.3645 85.6987C53.5894 85.6401 53.8003 85.5371 53.9849 85.396C54.1697 85.2549 54.3245 85.0786 54.4404 84.8774C54.5562 84.6758 54.6309 84.4536 54.6602 84.2231C54.6892 83.9927 54.6721 83.7588 54.6101 83.5347C54.5479 83.311 54.4419 83.1016 54.2979 82.9189C54.1541 82.7368 53.9753 82.5845 53.7722 82.4717C53.5691 82.3589 53.3455 82.2876 53.1145 82.2622L53.1028 82.2622ZM35.8484 25.7329C35.9915 26.0293 36.2156 26.2793 36.4946 26.4541C36.7737 26.6289 37.0964 26.7217 37.426 26.7207C37.6909 26.7217 37.9524 26.6606 38.1902 26.5435C38.6074 26.3408 38.927 25.981 39.0791 25.543C39.2312 25.105 39.2031 24.6245 39.001 24.207L36.5496 19.168C36.449 18.9609 36.3083 18.7759 36.1362 18.623C35.9639 18.4707 35.7634 18.3535 35.5459 18.2783C35.3281 18.2031 35.0979 18.1714 34.8682 18.1851C34.6384 18.1987 34.4136 18.2578 34.2065 18.3584C33.9995 18.459 33.8145 18.5996 33.6616 18.7715C33.509 18.9438 33.3916 19.1445 33.3164 19.3618C33.1646 19.8013 33.1936 20.2827 33.3967 20.7007L35.8484 25.7329Z" fill="#6B635C" fill-opacity="1.000000" fill-rule="nonzero"/>
	</g>
</svg>
