<svg width="146" height="118" viewBox="0 0 146 118" fill="none" xmlns="http://www.w3.org/2000/svg">
<ellipse cx="28.3457" cy="95.0988" rx="19.0266" ry="19.0197" fill="#FFE6C0"/>
<ellipse cx="120.761" cy="21.3489" rx="11.2606" ry="11.2566" fill="#FFE6C0"/>
<path d="M65.7434 86.765C63.149 86.5975 60.6273 85.839 58.3712 84.5476C56.1151 83.2561 54.1844 81.4658 52.7269 79.3138C52.6091 79.1304 52.4557 78.9724 52.2758 78.8493C52.0959 78.7261 51.8931 78.6402 51.6794 78.5967C51.4657 78.5532 51.2455 78.553 51.0317 78.596C50.818 78.6391 50.615 78.7245 50.4348 78.8473C50.2546 78.97 50.1009 79.1276 49.9827 79.3108C49.8645 79.494 49.7842 79.699 49.7465 79.9137C49.7089 80.1284 49.7147 80.3485 49.7636 80.5609C49.8125 80.7733 49.9035 80.9738 50.0313 81.1505C51.7628 83.6909 54.0457 85.8078 56.7097 87.3434C59.3737 88.879 62.3502 89.7936 65.417 90.0191C65.4742 90.0191 65.528 90.0273 65.5802 90.0273C65.9989 90.0273 66.4016 89.8665 66.7049 89.5781C67.0083 89.2897 67.1892 88.8958 67.2101 88.4778C67.2311 88.0598 67.0905 87.6498 66.8175 87.3325C66.5445 87.0152 66.16 86.8149 65.7434 86.7731V86.765ZM49.8974 73.2475C49.6056 72.2779 49.3933 71.2861 49.2627 70.282C49.2194 69.8516 49.0069 69.456 48.6718 69.1822C48.3367 68.9084 47.9065 68.7789 47.4759 68.8221C47.0453 68.8654 46.6495 69.0779 46.3757 69.4129C46.1018 69.7478 45.9722 70.1778 46.0155 70.6083C46.1673 71.8153 46.4234 73.0061 46.7759 74.1675C46.9072 74.5713 47.1909 74.9081 47.5666 75.1062C47.9424 75.3043 48.3806 75.3481 48.7881 75.2283C49.1957 75.1085 49.5404 74.8345 49.7491 74.4646C49.9578 74.0948 50.0139 73.6581 49.9056 73.2475H49.8974Z" fill="#6B635C"/>
<path d="M117.796 23.1416C116.725 23.1387 115.663 23.3484 114.673 23.7586C113.683 24.1688 112.784 24.7713 112.028 25.5313L98.997 38.5577C98.45 38.4168 97.876 38.4177 97.3295 38.5604C96.783 38.7031 96.2819 38.9829 95.8738 39.3733L91.7014 43.5442C88.016 39.9822 83.6439 37.2072 78.8513 35.3884C91.7585 33.7719 103.111 29.6777 103.111 23.1416C103.111 14.6595 83.7727 10.0923 65.5803 10.0923C47.3879 10.0923 28.05 14.6595 28.05 23.1416C28.05 29.6663 39.3629 33.7572 52.2423 35.3753C33.3254 42.5296 23.4696 63.3694 29.9428 82.5242C36.4143 101.679 56.8945 112.275 76.2748 106.497C95.6568 100.72 106.986 80.6434 101.908 61.0727L102.737 58.7744H102.797C103.663 58.7746 104.492 58.4314 105.105 57.8202L109.719 53.2056C110.333 52.5955 110.677 51.7653 110.675 50.8991C110.671 50.6167 110.63 50.3361 110.555 50.064L123.565 37.0571C124.703 35.9161 125.478 34.4636 125.791 32.8829C126.105 31.3021 125.943 29.664 125.325 28.1753C124.708 26.6866 123.664 25.414 122.324 24.5181C120.984 23.6222 119.408 23.1432 117.796 23.1416ZM92.6413 77.218C90.7357 77.166 88.8524 76.7938 87.0705 76.1169L90.3829 70.1501C90.4894 69.9625 90.5577 69.7557 90.5836 69.5415C90.6096 69.3274 90.5929 69.1103 90.5343 68.9026C90.4758 68.695 90.3767 68.5011 90.2426 68.332C90.1086 68.1629 89.9424 68.0221 89.7536 67.9177C89.5648 67.8133 89.3571 67.7474 89.1426 67.7237C88.9281 67.7001 88.7111 67.7192 88.504 67.78C88.297 67.8408 88.1041 67.942 87.9364 68.0778C87.7688 68.2136 87.6297 68.3813 87.5274 68.5712L84.1007 74.7468C82.5427 73.8708 81.0855 72.8266 79.7553 71.6329L86.6446 64.7461C86.9418 64.4385 87.1063 64.0264 87.1026 63.5987C87.0989 63.171 86.9273 62.7619 86.6247 62.4595C86.3222 62.1571 85.9129 61.9855 85.4851 61.9818C85.0572 61.9781 84.645 62.1425 84.3373 62.4396L77.448 69.3264C76.2539 67.9963 75.2088 66.5397 74.3314 64.9826L80.5108 61.5572C80.7008 61.4548 80.8685 61.3158 81.0044 61.1482C81.1402 60.9807 81.2415 60.7878 81.3023 60.5808C81.3631 60.3739 81.3822 60.1569 81.3586 59.9425C81.3349 59.7281 81.269 59.5205 81.1645 59.3318C81.0601 59.143 80.9192 58.9768 80.7501 58.8429C80.581 58.7089 80.3869 58.6098 80.1793 58.5513C79.9716 58.4928 79.7543 58.476 79.5401 58.502C79.3259 58.528 79.119 58.5962 78.9313 58.7026L72.9591 62.0106C72.2845 60.2361 71.909 58.362 71.8479 56.4647L91.9054 49.2402L99.8471 57.1808L92.6413 77.218ZM70.7399 53.403C70.1065 53.6306 69.5597 54.0498 69.1755 54.6022C68.7912 55.1547 68.5886 55.813 68.5958 56.4859C68.6896 59.4796 69.4188 62.4192 70.735 65.1098C73.5666 70.8591 78.2204 75.5112 83.9718 78.3419C84.8203 78.7431 85.6916 79.0954 86.5826 79.394C84.965 83.1903 82.3487 86.4777 79.0117 88.9065C75.6746 91.3354 71.7416 92.815 67.6306 93.1881C63.5197 93.5612 59.3844 92.8139 55.6643 91.0256C51.9442 89.2372 48.7784 86.4747 46.5034 83.0316C44.2283 79.5885 42.929 75.5935 42.7435 71.4713C42.5581 67.349 43.4935 63.2536 45.4502 59.6203C47.407 55.9869 50.312 52.9515 53.8564 50.8366C57.4009 48.7217 61.4524 47.6063 65.5803 47.6091C69.7834 47.598 73.9056 48.7631 77.4807 50.9725L70.7399 53.403ZM73.0766 32.6138C72.7755 32.2071 72.3835 31.8763 71.932 31.6478C71.4804 31.4192 70.9817 31.2993 70.4756 31.2974H60.685C59.6587 31.3007 58.6943 31.7868 58.084 32.6121C45.9438 31.5894 39.4722 28.3988 39.4722 26.4039C39.4722 24.1203 48.4469 19.8793 65.5803 19.8793C82.7137 19.8793 91.6883 24.1203 91.6883 26.4039C91.6883 28.3988 85.2168 31.5894 73.0766 32.6121V32.6138ZM60.685 34.5598H70.4756V37.8221H60.685V34.5598ZM31.3135 23.1416C31.3135 18.5221 45.9666 13.3546 65.5803 13.3546C85.194 13.3546 99.8471 18.5221 99.8471 23.1416C99.8471 24.7418 97.9755 26.5002 94.5765 28.0808C94.8148 27.5539 94.9421 26.983 94.9518 26.4039C94.9518 19.9788 80.1763 16.6169 65.5803 16.6169C50.9843 16.6169 36.2087 19.9788 36.2087 26.4039C36.2185 26.983 36.3458 27.5539 36.584 28.0808C33.1851 26.5002 31.3135 24.7418 31.3135 23.1416ZM99.8471 70.4454C99.8161 88.7095 85.4616 103.741 67.212 104.617V103.069C67.212 102.636 67.0401 102.221 66.7341 101.915C66.4281 101.609 66.0131 101.438 65.5803 101.438C65.1475 101.438 64.7325 101.609 64.4265 101.915C64.1205 102.221 63.9485 102.636 63.9485 103.069V104.617C46.9489 103.827 33.1133 90.6702 31.475 73.7387C29.8367 56.8072 40.8902 41.2426 57.4215 37.2088V37.8221C57.4215 38.6873 57.7654 39.5171 58.3774 40.1289C58.9894 40.7407 59.8195 41.0844 60.685 41.0844H70.4756C71.3411 41.0844 72.1712 40.7407 72.7832 40.1289C73.3952 39.5171 73.7391 38.6873 73.7391 37.8221V37.2022C79.9152 38.7258 85.5481 41.9326 90.0093 46.4673L81.2582 49.6187C76.7551 46.1844 71.2443 44.3313 65.5803 44.3467C60.8412 44.3432 56.1906 45.6292 52.127 48.0669C48.0634 50.5045 44.7402 54.0018 42.5137 58.1838C40.2872 62.3657 39.2414 67.0747 39.4884 71.8056C39.7354 76.5365 41.2659 81.111 43.9158 85.0386C46.5656 88.9662 50.235 92.0987 54.5303 94.1002C58.8256 96.1018 63.5849 96.8968 68.2979 96.4002C73.0109 95.9036 77.4997 94.134 81.2832 91.2811C85.0666 88.4283 88.0019 84.5998 89.7743 80.2063C90.7077 80.371 91.6541 80.4624 92.6021 80.4803H92.6396C93.3058 80.4793 93.9555 80.2729 94.5001 79.8893C95.0446 79.5058 95.4577 78.9637 95.6829 78.337L99.6807 67.245C99.7802 68.3069 99.8471 69.3721 99.8471 70.4454ZM102.797 55.5202L93.5649 46.2911L98.1811 41.6782L107.412 50.9057L102.797 55.5202ZM121.257 34.7571L108.566 47.446L101.642 40.5249L114.334 27.8377C115.266 26.9481 116.506 26.4517 117.795 26.4517C119.084 26.4517 120.323 26.9481 121.256 27.8377C122.173 28.7554 122.689 29.9998 122.689 31.2974C122.689 32.595 122.175 33.8395 121.257 34.7571Z" fill="#6B635C"/>
<path d="M90.104 56.6733L88.9503 57.8265C88.7945 57.977 88.6701 58.157 88.5846 58.356C88.4991 58.555 88.4541 58.769 88.4522 58.9856C88.4503 59.2022 88.4916 59.417 88.5737 59.6174C88.6557 59.8179 88.7769 60 88.9301 60.1532C89.0833 60.3063 89.2655 60.4275 89.466 60.5095C89.6665 60.5915 89.8814 60.6328 90.0981 60.6309C90.3147 60.629 90.5289 60.584 90.7279 60.4985C90.927 60.413 91.1071 60.2888 91.2576 60.133L92.4113 58.9797C92.5671 58.8293 92.6914 58.6493 92.7769 58.4503C92.8625 58.2513 92.9075 58.0372 92.9093 57.8206C92.9112 57.604 92.8699 57.3893 92.7879 57.1888C92.7059 56.9883 92.5847 56.8062 92.4315 56.6531C92.2783 56.4999 92.0961 56.3788 91.8955 56.2968C91.695 56.2147 91.4801 56.1735 91.2635 56.1754C91.0468 56.1772 90.8327 56.2222 90.6336 56.3077C90.4345 56.3932 90.2545 56.5175 90.104 56.6733Z" fill="#6B635C"/>
</svg>
