<?xml version="1.0" encoding="UTF-8" standalone="no"?>
<!-- Created with Inkscape (http://www.inkscape.org/) -->

<svg
   width="64pt"
   height="64pt"
   viewBox="0 0 22.577778 22.577778"
   version="1.1"
   id="svg831"
   inkscape:version="1.1.1 (3bf5ae0d25, 2021-09-20)"
   sodipodi:docname="Export - Unblash - 64px.svg"
   inkscape:export-filename="C:\Users\User\Desktop\CARLOS PROJECT\3. MARET 1\EXPORT\SOLID\15 - Garbage.png"
   inkscape:export-xdpi="576"
   inkscape:export-ydpi="576"
   xmlns:inkscape="http://www.inkscape.org/namespaces/inkscape"
   xmlns:sodipodi="http://sodipodi.sourceforge.net/DTD/sodipodi-0.dtd"
   xmlns="http://www.w3.org/2000/svg"
   xmlns:svg="http://www.w3.org/2000/svg"
   xmlns:rdf="http://www.w3.org/1999/02/22-rdf-syntax-ns#"
   xmlns:cc="http://creativecommons.org/ns#"
   xmlns:dc="http://purl.org/dc/elements/1.1/">
  <defs
     id="defs825">
    <pattern
       id="EMFhbasepattern"
       patternUnits="userSpaceOnUse"
       width="6"
       height="6"
       x="0"
       y="0" />
    <pattern
       id="EMFhbasepattern-9"
       patternUnits="userSpaceOnUse"
       width="6"
       height="6"
       x="0"
       y="0" />
    <pattern
       id="EMFhbasepattern-0"
       patternUnits="userSpaceOnUse"
       width="6"
       height="6"
       x="0"
       y="0" />
    <pattern
       id="EMFhbasepattern-7"
       patternUnits="userSpaceOnUse"
       width="6"
       height="6"
       x="0"
       y="0" />
    <pattern
       id="EMFhbasepattern-2"
       patternUnits="userSpaceOnUse"
       width="6"
       height="6"
       x="0"
       y="0" />
    <pattern
       id="EMFhbasepattern-98"
       patternUnits="userSpaceOnUse"
       width="6"
       height="6"
       x="0"
       y="0" />
    <pattern
       id="EMFhbasepattern-6"
       patternUnits="userSpaceOnUse"
       width="6"
       height="6"
       x="0"
       y="0" />
    <pattern
       id="EMFhbasepattern-01"
       patternUnits="userSpaceOnUse"
       width="6"
       height="6"
       x="0"
       y="0" />
    <pattern
       id="EMFhbasepattern-07"
       patternUnits="userSpaceOnUse"
       width="6"
       height="6"
       x="0"
       y="0" />
    <pattern
       id="EMFhbasepattern-8"
       patternUnits="userSpaceOnUse"
       width="6"
       height="6"
       x="0"
       y="0" />
    <pattern
       id="EMFhbasepattern-4"
       patternUnits="userSpaceOnUse"
       width="6"
       height="6"
       x="0"
       y="0" />
    <pattern
       id="EMFhbasepattern-40"
       patternUnits="userSpaceOnUse"
       width="6"
       height="6"
       x="0"
       y="0" />
    <pattern
       id="EMFhbasepattern-08"
       patternUnits="userSpaceOnUse"
       width="6"
       height="6"
       x="0"
       y="0" />
    <pattern
       id="EMFhbasepattern-04"
       patternUnits="userSpaceOnUse"
       width="6"
       height="6"
       x="0"
       y="0" />
    <pattern
       id="EMFhbasepattern-014"
       patternUnits="userSpaceOnUse"
       width="6"
       height="6"
       x="0"
       y="0" />
    <pattern
       id="EMFhbasepattern-27"
       patternUnits="userSpaceOnUse"
       width="6"
       height="6"
       x="0"
       y="0" />
    <pattern
       id="EMFhbasepattern-09"
       patternUnits="userSpaceOnUse"
       width="6"
       height="6"
       x="0"
       y="0" />
    <pattern
       id="EMFhbasepattern-5"
       patternUnits="userSpaceOnUse"
       width="6"
       height="6"
       x="0"
       y="0" />
    <pattern
       id="EMFhbasepattern-018"
       patternUnits="userSpaceOnUse"
       width="6"
       height="6"
       x="0"
       y="0" />
  </defs>
  <sodipodi:namedview
     id="base"
     pagecolor="#ffffff"
     bordercolor="#666666"
     borderopacity="1.0"
     inkscape:pageopacity="0.0"
     inkscape:pageshadow="2"
     inkscape:zoom="3.2441286"
     inkscape:cx="5.8567346"
     inkscape:cy="38.068775"
     inkscape:document-units="pt"
     inkscape:current-layer="layer1"
     showgrid="false"
     units="pt"
     inkscape:window-width="1920"
     inkscape:window-height="1001"
     inkscape:window-x="-9"
     inkscape:window-y="41"
     inkscape:window-maximized="1"
     inkscape:pagecheckerboard="true"
     inkscape:showpageshadow="false"
     inkscape:object-paths="true"
     inkscape:snap-intersection-paths="true"
     inkscape:snap-smooth-nodes="true"
     inkscape:snap-midpoints="true"
     showguides="true"
     inkscape:snap-bbox="true"
     inkscape:bbox-nodes="true"
     inkscape:snap-nodes="false"
     inkscape:snap-global="true">
    <inkscape:grid
       type="xygrid"
       id="grid1378" />
    <sodipodi:guide
       position="0.97013831,21.607643"
       orientation="78.000048,0"
       id="guide1380"
       inkscape:locked="false" />
    <sodipodi:guide
       position="0.97013831,0.97013129"
       orientation="0,78.000005"
       id="guide1382"
       inkscape:locked="false" />
    <sodipodi:guide
       position="21.607639,0.97013129"
       orientation="-78.000048,0"
       id="guide1384"
       inkscape:locked="false" />
    <sodipodi:guide
       position="21.607639,21.607643"
       orientation="0,-78.000005"
       id="guide1386"
       inkscape:locked="false" />
  </sodipodi:namedview>
  <metadata
     id="metadata828">
    <rdf:RDF>
      <cc:Work
         rdf:about="">
        <dc:format>image/svg+xml</dc:format>
        <dc:type
           rdf:resource="http://purl.org/dc/dcmitype/StillImage" />
      </cc:Work>
    </rdf:RDF>
  </metadata>
  <g
     inkscape:label="Icon"
     inkscape:groupmode="layer"
     id="layer1"
     transform="translate(0,-274.42223)">
    <path
       id="path29724"
       style="color:#000000;display:inline;fill:#000000;stroke-width:1;stroke-linecap:round;stroke-linejoin:round;-inkscape-stroke:none"
       d="m 13.883941,276.85615 c 0,-0.80446 -0.660296,-1.46427 -1.464924,-1.46427 h -2.300446 c -0.7874066,0.0201 -1.4246086,0.67238 -1.4246086,1.46427 z m -11.6017687,1.13072 c 0,0.59632 0.4894909,1.08585 1.0858519,1.08585 H 19.209101 c 0.59636,0 1.086504,-0.48953 1.086504,-1.08585 l -0.0026,-0.42263 H 2.2847124 Z m 15.8359387,1.92137 -13.6589717,0.003 c -0.1962457,-8e-5 -0.3499858,0.16874 -0.331606,0.36412 l 1.2679092,14.51335 0.00267,0.003 c 0.068309,0.69979 0.6609052,1.23865 1.3641396,1.23865 h 9.0509259 c 0.703038,0 1.304453,-0.53612 1.366094,-1.24061 l 1.270509,-14.51659 c 0.01838,-0.19538 -0.135361,-0.3642 -0.331606,-0.36412 z m -11.7317453,1.51369 h 9.8051713 c 0.1831,6.7e-4 0.331254,0.14915 0.33161,0.33227 6.66e-4,0.18385 -0.147748,0.33348 -0.33161,0.33419 H 6.3863657 c -0.184877,6.7e-4 -0.3349353,-0.14932 -0.3342095,-0.33419 3.329e-4,-0.18412 0.1500948,-0.33298 0.3342095,-0.33227 z m 1.8700027,1.50654 c 0.3881039,0 0.7100257,0.32251 0.7100324,0.71069 V 293.813 c -6.7e-6,0.38816 -0.3219585,0.71002 -0.7100324,0.71002 H 7.8805489 c -0.5963544,0 -1.1000372,-0.46479 -1.1476229,-1.0592 -3.3e-6,-9.9e-4 -3.3e-6,-10e-4 0,-0.003 l -0.6638647,-9.79997 c -0.029995,-0.39039 0.2864671,-0.7328 0.6781696,-0.7328 z m 2.6541606,0 h 0.778951 c 0.596371,0 1.085852,0.49017 1.085852,1.08651 v 9.41959 c 0,0.59633 -0.489488,1.08845 -1.085852,1.08845 h -0.778951 c -0.596365,0 -1.0865013,-0.49212 -1.0865013,-1.08845 v -9.41959 c 0,-0.59634 0.4901303,-1.08651 1.0865013,-1.08651 z m 4.91754,0 c 0.392412,0 0.71209,0.34347 0.680774,0.73474 l -0.666469,9.79802 v 6.7e-4 6.7e-4 6.6e-4 6.7e-4 c -0.04759,0.59439 -0.548668,1.05918 -1.14502,1.05918 h -0.378422 c -0.388074,0 -0.708075,-0.32186 -0.708079,-0.71002 v -10.17384 c 4e-6,-0.38818 0.319978,-0.71069 0.708079,-0.71069 z m -9.095153,0.68602 0.6658154,9.79802 c 0.020341,0.25423 0.2262542,0.44475 0.4818075,0.44475 h 0.3758195 c 0.028497,0 0.044217,-0.0161 0.044217,-0.0442 v -10.17384 z m 4.177613,-0.0195 c -0.236764,0 -0.420686,0.18377 -0.420686,0.42004 v 9.41959 c 0,0.23626 0.183915,0.42264 0.420686,0.42264 h 0.778951 c 0.23677,0 0.420036,-0.18638 0.420036,-0.42264 v -9.41959 c 0,-0.23627 -0.183272,-0.42004 -0.420036,-0.42004 z m 3.36419,0.0442 v 10.17384 c 0,0.0281 0.01572,0.0442 0.04421,0.0442 h 0.378423 c 0.255549,0 0.461447,-0.19052 0.481806,-0.44473 l 0.663213,-9.79804 z"
       sodipodi:nodetypes="ccccccsscccccccccssccccscccccsccsscccsccssssssssscccccssccsccccssscccsssssssssccccscc" />
  </g>
</svg>
