<svg width="146" height="118" viewBox="0 0 146 118" fill="none" xmlns="http://www.w3.org/2000/svg">
<ellipse cx="28.3458" cy="26.7829" rx="19.8032" ry="19.7961" fill="#FFE6C0"/>
<ellipse cx="127.75" cy="96.6515" rx="12.8138" ry="12.8092" fill="#FFE6C0"/>
<path d="M73.1941 17.0794C74.1591 17.0794 74.9415 16.2973 74.9415 15.3326C74.9415 14.368 74.1591 13.5859 73.1941 13.5859C72.2291 13.5859 71.4468 14.368 71.4468 15.3326C71.4468 16.2973 72.2291 17.0794 73.1941 17.0794Z" fill="#6B635C"/>
<path d="M87.1729 20.5725C88.1379 20.5725 88.9202 19.7905 88.9202 18.8258C88.9202 17.8611 88.1379 17.0791 87.1729 17.0791C86.2078 17.0791 85.4255 17.8611 85.4255 18.8258C85.4255 19.7905 86.2078 20.5725 87.1729 20.5725Z" fill="#6B635C"/>
<path d="M97.6569 11.8391C98.6219 11.8391 99.4042 11.0571 99.4042 10.0924C99.4042 9.12773 98.6219 8.3457 97.6569 8.3457C96.6919 8.3457 95.9095 9.12773 95.9095 10.0924C95.9095 11.0571 96.6919 11.8391 97.6569 11.8391Z" fill="#6B635C"/>
<path d="M108.141 20.5725C109.106 20.5725 109.888 19.7905 109.888 18.8258C109.888 17.8611 109.106 17.0791 108.141 17.0791C107.176 17.0791 106.394 17.8611 106.394 18.8258C106.394 19.7905 107.176 20.5725 108.141 20.5725Z" fill="#6B635C"/>
<path d="M69.6994 6.59889C70.6644 6.59889 71.4467 5.81686 71.4467 4.85218C71.4467 3.8875 70.6644 3.10547 69.6994 3.10547C68.7343 3.10547 67.952 3.8875 67.952 4.85218C67.952 5.81686 68.7343 6.59889 69.6994 6.59889Z" fill="#6B635C"/>
<path d="M55.7207 6.59889C56.6858 6.59889 57.4681 5.81686 57.4681 4.85218C57.4681 3.8875 56.6858 3.10547 55.7207 3.10547C54.7557 3.10547 53.9734 3.8875 53.9734 4.85218C53.9734 5.81686 54.7557 6.59889 55.7207 6.59889Z" fill="#6B635C"/>
<path d="M41.742 95.6809C42.707 95.6809 43.4893 94.8989 43.4893 93.9342C43.4893 92.9695 42.707 92.1875 41.742 92.1875C40.7769 92.1875 39.9946 92.9695 39.9946 93.9342C39.9946 94.8989 40.7769 95.6809 41.742 95.6809Z" fill="#6B635C"/>
<path d="M20.4943 22.2466C19.5174 18.269 19.0246 14.188 19.0265 10.0923V4.85218C19.0265 4.38892 18.8425 3.94464 18.5148 3.61707C18.1871 3.2895 17.7426 3.10547 17.2792 3.10547C16.8158 3.10547 16.3713 3.2895 16.0436 3.61707C15.716 3.94464 15.5319 4.38892 15.5319 4.85218V10.0923C15.53 14.4696 16.0568 18.8311 17.101 23.0822C17.1559 23.3049 17.2541 23.5146 17.3901 23.6994C17.526 23.8842 17.6971 24.0404 17.8934 24.1591C18.0898 24.2778 18.3076 24.3567 18.5345 24.3912C18.7613 24.4258 18.9928 24.4153 19.2156 24.3604C19.4384 24.3056 19.6482 24.2074 19.8331 24.0714C20.0179 23.9355 20.1742 23.7645 20.2929 23.5682C20.4116 23.372 20.4905 23.1542 20.5251 22.9274C20.5597 22.7007 20.5492 22.4693 20.4943 22.2466Z" fill="#6B635C"/>
<path d="M46.984 111.402C47.9491 111.402 48.7314 110.62 48.7314 109.655C48.7314 108.69 47.9491 107.908 46.984 107.908C46.019 107.908 45.2367 108.69 45.2367 109.655C45.2367 110.62 46.019 111.402 46.984 111.402Z" fill="#6B635C"/>
<path d="M33.0053 113.148C33.9703 113.148 34.7526 112.366 34.7526 111.401C34.7526 110.437 33.9703 109.655 33.0053 109.655C32.0402 109.655 31.2579 110.437 31.2579 111.401C31.2579 112.366 32.0402 113.148 33.0053 113.148Z" fill="#6B635C"/>
<path d="M27.7632 102.668C28.7282 102.668 29.5106 101.886 29.5106 100.921C29.5106 99.9563 28.7282 99.1743 27.7632 99.1743C26.7982 99.1743 26.0159 99.9563 26.0159 100.921C26.0159 101.886 26.7982 102.668 27.7632 102.668Z" fill="#6B635C"/>
<path d="M101.152 104.415C102.117 104.415 102.899 103.633 102.899 102.668C102.899 101.703 102.117 100.921 101.152 100.921C100.187 100.921 99.4043 101.703 99.4043 102.668C99.4043 103.633 100.187 104.415 101.152 104.415Z" fill="#6B635C"/>
<path d="M125.614 104.415C126.579 104.415 127.362 103.633 127.362 102.668C127.362 101.703 126.579 100.921 125.614 100.921C124.649 100.921 123.867 101.703 123.867 102.668C123.867 103.633 124.649 104.415 125.614 104.415Z" fill="#6B635C"/>
<path d="M113.383 97.428C114.348 97.428 115.13 96.646 115.13 95.6813C115.13 94.7166 114.348 93.9346 113.383 93.9346C112.418 93.9346 111.635 94.7166 111.635 95.6813C111.635 96.646 112.418 97.428 113.383 97.428Z" fill="#6B635C"/>
<path d="M97.6569 31.053C98.6219 31.053 99.4042 30.271 99.4042 29.3063C99.4042 28.3416 98.6219 27.5596 97.6569 27.5596C96.6919 27.5596 95.9095 28.3416 95.9095 29.3063C95.9095 30.271 96.6919 31.053 97.6569 31.053Z" fill="#6B635C"/>
<path d="M55.7207 22.3191C56.6858 22.3191 57.4681 21.5371 57.4681 20.5724C57.4681 19.6077 56.6858 18.8257 55.7207 18.8257C54.7557 18.8257 53.9734 19.6077 53.9734 20.5724C53.9734 21.5371 54.7557 22.3191 55.7207 22.3191Z" fill="#6B635C"/>
<path d="M113.383 114.895C114.348 114.895 115.13 114.113 115.13 113.148C115.13 112.183 114.348 111.401 113.383 111.401C112.418 111.401 111.635 112.183 111.635 113.148C111.635 114.113 112.418 114.895 113.383 114.895Z" fill="#6B635C"/>
<path d="M123.137 82.1311C122.745 81.354 122.229 80.646 121.608 80.0351C121.226 79.6553 120.812 79.3077 120.372 78.9956V74.7207C120.372 73.1715 119.857 71.6662 118.909 70.4413C117.96 69.2165 116.631 68.3414 115.13 67.9537V64.2404H125.614C126.078 64.2404 126.522 64.0564 126.85 63.7288C127.178 63.4013 127.362 62.957 127.362 62.4937C127.362 62.0305 127.178 61.5862 126.85 61.2586C126.522 60.931 126.078 60.747 125.614 60.747H99.4042V57.0337C100.905 56.646 102.234 55.771 103.183 54.5461C104.131 53.3212 104.646 51.8159 104.646 50.2668V45.9919C105.086 45.6798 105.5 45.3321 105.882 44.9524C106.503 44.3415 107.019 43.6335 107.411 42.8563C107.891 41.9039 108.141 40.8526 108.141 39.7865C108.141 35.245 107.66 31.2538 106.708 27.9241C105.922 25.1753 104.812 22.8587 103.41 21.0356C100.793 17.6229 98.0255 17.1186 97.9993 17.112C97.7729 17.0683 97.5401 17.0683 97.3137 17.112C97.2875 17.1186 94.5201 17.6229 91.9035 21.0356C90.5012 22.8587 89.3917 25.1753 88.6054 27.9241C87.6533 31.2538 87.1706 35.245 87.1728 39.7865C87.1731 40.8526 87.4229 41.9039 87.9023 42.8563C88.2936 43.6341 88.8101 44.3422 89.4312 44.9524C89.8138 45.3327 90.2273 45.6805 90.6675 45.9923V50.2668C90.6674 51.8159 91.1823 53.3212 92.1311 54.5461C93.08 55.771 94.4091 56.646 95.9095 57.0337V60.747H69.6994C62.98 60.77 56.3237 59.4506 50.1215 56.8665C43.9193 54.2823 38.296 50.4854 33.5821 45.6987L39.0554 40.2269C39.2437 40.324 39.4361 40.4138 39.6338 40.4939C40.4673 40.8335 41.359 41.0078 42.2591 41.007H42.2766C43.1928 41.0067 44.1 40.8259 44.9463 40.4748C45.7925 40.1238 46.5612 39.6094 47.2085 38.9612L50.2314 35.9394C50.764 36.0291 51.3031 36.0751 51.8433 36.0769C52.7124 36.081 53.5766 35.9461 54.4032 35.6774C55.4172 35.3424 56.3387 34.7748 57.0941 34.0202C61.137 29.9896 64.1053 25.946 65.9159 22.0028C66.6179 20.4954 67.1591 18.9183 67.5305 17.2976C67.8069 16.0921 67.9483 14.8597 67.952 13.623C67.952 11.3282 67.4104 10.0094 67.3492 9.86534C67.1714 9.45401 66.8433 9.12602 66.4318 8.94832C66.2877 8.88718 64.9706 8.3457 62.6772 8.3457H62.6336C61.3954 8.35363 60.1619 8.49787 58.9554 8.77583C57.3367 9.14904 55.7619 9.69207 54.2572 10.3959C50.3235 12.2081 46.2894 15.171 42.2683 19.1993C41.5141 19.955 40.9465 20.876 40.6105 21.8893C40.3408 22.7153 40.2058 23.5793 40.2108 24.4482C40.2125 24.9882 40.2585 25.5271 40.3484 26.0595L37.3255 29.0813C36.3548 30.0529 35.6916 31.2885 35.4186 32.6342C35.1455 33.9799 35.2747 35.3762 35.79 36.649C35.9671 37.0848 36.1876 37.5017 36.4481 37.8935L31.2181 43.1207C27.5454 38.8188 24.6137 33.9363 22.543 28.673C22.4588 28.4597 22.3334 28.265 22.1739 28.1C22.0144 27.9351 21.824 27.8032 21.6135 27.7118C21.403 27.6205 21.1766 27.5715 20.9471 27.5676C20.7177 27.5637 20.4897 27.605 20.2763 27.6892C20.0628 27.7734 19.868 27.8988 19.7031 28.0582C19.5381 28.2176 19.4061 28.408 19.3147 28.6184C19.2233 28.8288 19.1743 29.0552 19.1704 29.2845C19.1665 29.5139 19.2079 29.7418 19.2921 29.9551C23.2275 39.9388 30.045 48.5266 38.8772 54.6257C44.7587 58.7089 51.3966 61.5769 58.4017 63.0614L54.5222 70.0046C53.8318 69.7818 53.1109 69.668 52.3854 69.6673H52.3789C51.136 69.6682 49.9158 70.0003 48.844 70.6293C47.7721 71.2583 46.8873 72.1615 46.2806 73.2458L44.1937 76.9781C43.4921 77.0525 42.8009 77.2046 42.1329 77.4314C40.4323 77.9768 38.9982 79.14 38.114 80.6912C36.1395 84.2195 34.6739 87.6278 33.7566 90.8155C33.0165 93.2832 32.6247 95.8421 32.5924 98.4181C32.5859 104.043 34.805 106.698 34.8268 106.724C35.1109 107.072 35.5171 107.298 35.9626 107.357C36.186 107.382 36.4106 107.393 36.6353 107.392C37.7187 107.392 40.6345 107.141 44.328 104.831C46.4872 103.447 48.4453 101.773 50.1466 99.8548C52.3548 97.4181 54.4669 94.4094 56.4196 90.916C56.993 89.8827 57.2923 88.7199 57.2889 87.5383C57.2695 86.2403 56.9642 84.9625 56.3945 83.796L58.4814 80.0624C59.2059 78.7688 59.4991 77.278 59.3185 75.8065C59.1378 74.335 58.4927 72.9593 57.4767 71.8792L62.0471 63.704C64.5822 64.0614 67.1392 64.2407 69.6994 64.2404H111.636V67.9535C110.135 68.3413 108.806 69.2164 107.857 70.4413C106.908 71.6662 106.394 73.1715 106.394 74.7207V78.9956C105.954 79.3077 105.54 79.6553 105.157 80.0351C104.536 80.6453 104.02 81.3534 103.628 82.1311C103.148 83.0831 102.898 84.1347 102.899 85.201C102.897 89.7424 103.379 93.7336 104.332 97.0633C105.118 99.81 106.228 102.129 107.63 103.952C110.251 107.369 113.014 107.869 113.04 107.873C113.266 107.92 113.499 107.92 113.726 107.873C113.752 107.869 116.515 107.369 119.136 103.952C120.538 102.129 121.648 99.81 122.434 97.0633C123.386 93.7336 123.869 89.7424 123.867 85.201C123.867 84.1348 123.617 83.0835 123.137 82.1311ZM43.9239 22.9941C44.0866 22.4946 44.3658 22.0411 44.7386 21.6709C52.8616 13.5684 58.9751 11.8522 62.6729 11.8391C63.2248 11.8356 63.776 11.8816 64.3197 11.9767C64.4149 12.5202 64.4609 13.0712 64.4574 13.623C64.4442 17.3194 62.7253 23.4307 54.6242 31.5508C54.2528 31.9226 53.7984 32.201 53.2984 32.363C52.8298 32.5133 52.3402 32.5878 51.8481 32.5835H51.8437C51.4397 32.5812 51.0368 32.541 50.6403 32.4634L50.5791 32.4503L48.4445 30.3158L53.3879 25.3761C53.7158 25.0484 53.9 24.6038 53.9 24.1403C53.9 23.6768 53.7158 23.2323 53.3879 22.9045C53.0601 22.5768 52.6154 22.3927 52.1517 22.3927C51.688 22.3927 51.2433 22.5768 50.9155 22.9045L45.9742 27.8455L43.8387 25.7102C43.751 25.2952 43.7064 24.8723 43.7055 24.4482C43.7016 23.955 43.7753 23.4643 43.9239 22.9941ZM39.7958 31.5508L42.2672 29.0802L47.21 34.0213L44.7386 36.4918C44.4141 36.8162 44.0288 37.0735 43.6047 37.2491C43.1807 37.4247 42.7262 37.5151 42.2672 37.5151C41.8082 37.5151 41.3538 37.4247 40.9297 37.2491C40.5057 37.0735 40.1204 36.8162 39.7958 36.4918C39.4713 36.1673 39.2138 35.7822 39.0382 35.3583C38.8625 34.9344 38.7721 34.4801 38.7721 34.0213C38.7721 33.5624 38.8625 33.1081 39.0382 32.6842C39.2138 32.2603 39.4713 31.8752 39.7958 31.5508ZM53.3683 89.2097C50.0287 95.1812 46.3658 99.4388 42.478 101.867C40.1387 103.323 38.2997 103.76 37.1661 103.867C36.7642 103.048 36.0915 101.255 36.0871 98.417C36.0893 93.8122 37.7973 88.4193 41.1653 82.3931C41.6043 81.6115 42.2727 81.0831 43.2687 80.7338C43.7668 80.5667 44.2843 80.464 44.8085 80.4281L47.4463 81.9008L44.0375 88.0001C43.9165 88.2007 43.8371 88.4235 43.8041 88.6554C43.771 88.8873 43.785 89.1235 43.845 89.3499C43.9051 89.5763 44.0102 89.7883 44.1539 89.9733C44.2976 90.1583 44.4771 90.3125 44.6816 90.4267C44.8862 90.541 45.1116 90.6129 45.3446 90.6383C45.5775 90.6637 45.8132 90.642 46.0376 90.5745C46.2619 90.507 46.4704 90.395 46.6506 90.2453C46.8309 90.0956 46.9791 89.9112 47.0866 89.7031L50.4959 83.6032L53.1346 85.0765C53.3399 85.4783 53.8117 86.511 53.7942 87.5372C53.7998 88.1222 53.653 88.6985 53.3683 89.2097ZM55.4323 78.3582L53.7272 81.4075L47.6261 77.9993L49.3297 74.95C49.6345 74.4073 50.0781 73.9554 50.615 73.6405C51.1519 73.3255 51.7629 73.1588 52.3854 73.1574C52.9807 73.1574 53.566 73.3108 54.0847 73.6028C54.894 74.055 55.4906 74.8099 55.7433 75.7016C55.996 76.5934 55.8842 77.5489 55.4323 78.3582ZM91.7792 42.352C91.0322 41.5463 90.6675 40.7057 90.6675 39.7865C90.6696 30.3477 92.8471 25.5399 94.6732 23.1665C95.3421 22.2605 96.1847 21.4968 97.1521 20.9198C97.3148 20.827 97.4825 20.7432 97.6544 20.6687C98.3708 20.9722 99.7731 21.7976 101.164 23.9045C102.752 26.3194 104.644 31.0355 104.646 39.7865C104.646 40.7559 104.242 41.638 103.41 42.4808C103.124 42.766 102.811 43.022 102.475 43.245C102.457 43.2581 102.44 43.269 102.422 43.2799H99.4042V36.2931C99.4042 35.8298 99.2201 35.3855 98.8924 35.058C98.5647 34.7304 98.1203 34.5464 97.6568 34.5464C97.1934 34.5464 96.749 34.7304 96.4213 35.058C96.0936 35.3855 95.9095 35.8298 95.9095 36.2931V43.2799H92.891C92.4839 43.017 92.1106 42.7054 91.7792 42.352ZM94.1621 50.2668V46.7733H101.152V50.2668C101.152 51.1933 100.783 52.0818 100.128 52.737C99.4726 53.3921 98.5837 53.7602 97.6568 53.7602C96.73 53.7602 95.8411 53.3921 95.1857 52.737C94.5303 52.0818 94.1621 51.1933 94.1621 50.2668ZM109.888 74.7207C109.888 73.7942 110.256 72.9056 110.912 72.2505C111.567 71.5953 112.456 71.2273 113.383 71.2273C114.31 71.2273 115.199 71.5953 115.854 72.2505C116.509 72.9056 116.878 73.7942 116.878 74.7207V78.2141H109.888V74.7207ZM116.366 101.821C115.696 102.726 114.854 103.491 113.887 104.07C113.725 104.162 113.557 104.245 113.385 104.319C112.668 104.015 111.266 103.19 109.875 101.083C108.287 98.6681 106.394 93.9542 106.394 85.201C106.394 84.2294 106.798 83.3495 107.63 82.5067C107.915 82.2216 108.228 81.9656 108.564 81.7425C108.582 81.7294 108.6 81.7185 108.615 81.7075H111.636V88.6944C111.636 89.1576 111.82 89.6019 112.147 89.9295C112.475 90.2571 112.919 90.4411 113.383 90.4411C113.846 90.4411 114.291 90.2571 114.618 89.9295C114.946 89.6019 115.13 89.1576 115.13 88.6944V81.7075H118.151C118.556 81.9715 118.928 82.2823 119.261 82.6333C120.007 83.4412 120.37 84.2818 120.372 85.201C120.37 94.6376 118.192 99.4476 116.366 101.821Z" fill="#6B635C"/>
</svg>
